<svg width="264" height="48" viewBox="0 0 264 48" fill="none" xmlns="http://www.w3.org/2000/svg">
<path d="M59.7951 31.1717C59.8255 31.5355 59.7343 31.8992 59.5214 32.2629C59.3086 32.6267 59.1109 32.945 58.9285 33.2178C58.8373 33.3087 58.6548 33.4451 58.3812 33.627C58.1379 33.7786 57.8643 33.9301 57.5602 34.0817C57.2865 34.2332 57.0129 34.4 56.7392 34.5818C56.496 34.7334 56.3439 34.8546 56.2831 34.9456C56.1311 35.1881 55.9486 35.5063 55.7358 35.9004C55.5533 36.2945 55.3861 36.6127 55.2341 36.8552C54.8084 37.4009 54.3827 37.8252 53.957 38.1283C53.5617 38.4315 53.136 38.7043 52.6799 38.9468C52.2542 39.159 51.7981 39.3711 51.3116 39.5833C50.8251 39.7955 50.293 40.0986 49.7152 40.4927L49.3503 41.6294C48.7118 41.5688 48.2557 41.5991 47.982 41.7203C47.7388 41.8113 47.5563 41.9628 47.4347 42.175C47.3435 42.3872 47.2523 42.6297 47.161 42.9025C47.1002 43.1753 46.9482 43.4481 46.7049 43.7209C46.5833 43.8725 46.3705 44.0241 46.0664 44.1756C45.7927 44.3272 45.5799 44.4181 45.4279 44.4484C45.1846 44.4484 44.9718 44.4333 44.7893 44.403C44.6373 44.3727 44.5005 44.3575 44.3788 44.3575C44.2876 44.3575 44.2116 44.403 44.1508 44.4939C44.09 44.5545 44.0595 44.7061 44.0595 44.9486H43.9683C43.6339 44.9486 43.3298 45.0244 43.0561 45.1759C42.7825 45.3578 42.5088 45.5245 42.2351 45.6761C41.9615 45.8276 41.6878 45.9186 41.4142 45.9489C41.1405 46.0095 40.8364 45.9337 40.5019 45.7215H40.4563C40.4563 44.994 40.3195 44.4636 40.0458 44.1301C39.8026 43.7664 39.5137 43.4481 39.1792 43.1753C38.8448 42.8722 38.5255 42.5388 38.2214 42.175C37.9478 41.8113 37.7805 41.2657 37.7197 40.5382C37.6589 39.841 37.7349 39.1286 37.9478 38.4012C38.191 37.6737 38.3127 36.9613 38.3127 36.2641C38.3127 35.8398 38.2366 35.476 38.0846 35.1729C37.9326 34.8698 37.8565 34.5515 37.8565 34.2181C37.8565 33.915 37.9326 33.6573 38.0846 33.4451C38.267 33.2329 38.4343 33.0359 38.5863 32.854C38.7688 32.6722 38.8752 32.46 38.9056 32.2175C38.9664 31.975 38.8752 31.6719 38.6319 31.3081V31.2626C38.6319 30.9898 38.6927 30.6564 38.8144 30.2623C38.936 29.838 39.0272 29.4894 39.088 29.2166C39.2705 28.4588 39.4377 27.7161 39.5897 26.9886C39.7722 26.2308 39.9242 25.4882 40.0458 24.7607C40.2283 23.6391 40.4107 22.5479 40.5932 21.487C40.7756 20.3957 41.0493 19.3197 41.4142 18.2587L41.4598 18.2133L41.1405 17.7586H41.2773C41.703 17.6373 41.9767 17.3797 42.0983 16.9856C42.2503 16.5916 42.3416 16.1672 42.372 15.7125C42.4024 15.2578 42.4176 14.8335 42.4176 14.4394C42.448 14.015 42.5848 13.7119 42.8281 13.53C42.676 13.3785 42.524 13.2269 42.372 13.0754C42.2503 12.8935 42.1135 12.7268 41.9615 12.5752C41.9311 12.6055 41.9159 12.651 41.9159 12.7116C41.6422 13.5907 41.2165 14.3485 40.6388 14.985C40.0915 15.5913 39.5137 16.1975 38.9056 16.8038C38.3279 17.3797 37.7957 18.0162 37.3092 18.7134C36.8227 19.3803 36.5034 20.229 36.3514 21.2596C35.8345 22.1387 35.3632 23.0481 34.9375 23.9877C34.5422 24.9274 34.1165 25.8671 33.6604 26.8068C33.2043 27.7464 32.7026 28.6558 32.1553 29.5349C31.6383 30.3836 31.015 31.1566 30.2852 31.8537C30.2852 31.9144 30.2852 31.9901 30.2852 32.0811C30.3156 32.172 30.3308 32.2478 30.3308 32.3084C30.3308 32.5812 30.27 32.8086 30.1484 32.9904C30.0268 33.1723 29.8899 33.3542 29.7379 33.5361C29.5859 33.6876 29.4186 33.8543 29.2362 34.0362C29.0538 34.1878 28.9017 34.3545 28.7801 34.5364C28.7801 35.0214 28.6585 35.476 28.4152 35.9004C28.172 36.2945 27.8983 36.6734 27.5942 37.0371C27.3206 37.4009 27.0621 37.7646 26.8189 38.1283C26.5756 38.4921 26.454 38.8558 26.454 39.2196C26.454 39.9774 26.3171 40.5533 26.0435 40.9474C25.7698 41.3111 25.4353 41.6142 25.0401 41.8567C24.6752 42.0689 24.2799 42.2963 23.8542 42.5388C23.4589 42.7509 23.1244 43.0692 22.8508 43.4936V43.5391C22.7595 43.5088 22.6531 43.5239 22.5315 43.5845C22.4099 43.6452 22.273 43.63 22.121 43.5391C21.969 43.4784 21.8625 43.3269 21.8017 43.0844C21.7713 42.8116 21.7409 42.5236 21.7105 42.2205C21.6801 41.9174 21.6497 41.6446 21.6193 41.4021C21.5889 41.1596 21.5281 41.008 21.4368 40.9474C21.5585 40.8564 21.7257 40.5533 21.9386 40.038C22.1514 39.5227 22.349 38.9468 22.5315 38.3102C22.7443 37.6737 22.9268 37.0674 23.0788 36.4915C23.2613 35.9156 23.3829 35.5367 23.4437 35.3548C23.5653 34.9607 23.6717 34.5667 23.763 34.1726C23.8846 33.7786 24.0214 33.3845 24.1735 32.9904C24.2343 32.8389 24.2951 32.6722 24.3559 32.4903C24.4471 32.2781 24.5079 32.0962 24.5383 31.9447C24.5687 31.7022 24.584 31.4445 24.584 31.1717C24.6144 30.8989 24.6448 30.6261 24.6752 30.3533L24.7664 30.3078C25.0096 30.3078 25.1769 30.2017 25.2681 29.9895C25.3897 29.747 25.4657 29.4894 25.4962 29.2166C25.5266 28.9135 25.5266 28.6103 25.4962 28.3072C25.4962 28.0041 25.5114 27.7768 25.5418 27.6252C25.785 26.1702 26.1043 24.6698 26.4996 23.1238C26.8949 21.5476 27.0925 20.032 27.0925 18.577V17.895C27.1229 17.41 27.1685 16.9098 27.2293 16.3945C27.2902 15.8792 27.3054 15.3639 27.275 14.8486C27.275 14.303 27.1989 13.7877 27.0469 13.3027C26.9253 12.8177 26.7124 12.363 26.4084 11.9387V11.8932C25.4353 11.8932 24.5383 12.1963 23.7174 12.8026C22.8964 13.3785 22.1362 14.106 21.4368 14.985C20.7679 15.8338 20.175 16.7431 19.658 17.7131C19.1411 18.6528 18.7154 19.4864 18.381 20.2139L18.2897 20.3048L18.0161 19.8956L17.9705 19.9411C17.4535 20.3048 17.0887 20.6989 16.8758 21.1232C16.6934 21.5173 16.5109 22.0023 16.3285 22.5782C16.146 23.1845 15.918 23.7604 15.6443 24.306C15.4011 24.8516 14.9754 25.2457 14.3672 25.4882L14.3216 25.5337C14.3216 26.2308 14.2152 26.7613 14.0024 27.125C13.7895 27.4585 13.5463 27.7616 13.2726 28.0344C13.0293 28.3072 12.8013 28.6255 12.5884 28.9892C12.3756 29.3227 12.2692 29.8531 12.2692 30.5806L12.2236 30.6261C11.6154 31.0808 11.1897 31.5658 10.9465 32.0811C10.7032 32.5964 10.46 33.1875 10.2167 33.8543C10.0039 34.3696 9.80621 34.8698 9.62377 35.3548C9.44133 35.8095 9.16767 36.2338 8.80279 36.6279L8.8484 36.7188C9.03084 36.8098 9.09165 36.9916 9.03084 37.2645C9.00043 37.5069 9.00043 37.704 9.03084 37.8555C8.72677 38.3708 8.4227 38.8558 8.11863 39.3105C7.81456 39.7349 7.5409 40.1744 7.29765 40.6291C7.0848 41.0535 6.90236 41.5082 6.75032 41.9931C6.59829 42.4781 6.52227 43.0389 6.52227 43.6755V43.7209H6.43105C5.91414 43.7816 5.54925 43.9786 5.3364 44.312C5.12356 44.6151 4.95632 44.9789 4.83469 45.4033C4.74347 45.8276 4.68266 46.252 4.65225 46.6764C4.62184 47.1007 4.53062 47.4342 4.37859 47.6767C4.25696 47.9192 4.04411 48.0253 3.74004 47.9949C3.43598 47.9949 2.97987 47.7525 2.37174 47.2675L1.14026 46.3581C1.47473 45.6306 1.79401 44.9031 2.09807 44.1756C2.37174 43.4178 2.61499 42.6449 2.82784 41.8567C3.04069 41.0686 3.26874 40.2957 3.51199 39.5379C3.75525 38.7801 4.12013 38.0526 4.60664 37.3554V37.3099C4.60664 37.1887 4.63705 36.9916 4.69786 36.7188C4.78908 36.4157 4.8803 36.0974 4.97152 35.764C5.06274 35.4306 5.15396 35.1274 5.24518 34.8546C5.36681 34.5515 5.45803 34.3242 5.51885 34.1726C5.7621 33.6573 5.97495 33.1572 6.15739 32.6722C6.37024 32.1872 6.47666 31.6415 6.47666 31.0353C6.75032 30.6109 6.96317 30.1563 7.11521 29.6713C7.26724 29.156 7.40407 28.6406 7.5257 28.1253C7.67773 27.61 7.84497 27.1099 8.02741 26.6249C8.24026 26.1399 8.52913 25.7004 8.89401 25.3063C8.89401 25.276 8.93962 25.079 9.03084 24.7152C9.15247 24.3515 9.27409 23.9574 9.39572 23.5331C9.51735 23.1087 9.62377 22.6995 9.71499 22.3054C9.83662 21.9114 9.91264 21.6689 9.94305 21.5779C10.2775 20.4867 10.5512 19.4561 10.764 18.4861C11.0073 17.4858 11.1289 16.4097 11.1289 15.2578C11.1289 15.0153 11.1137 14.7728 11.0833 14.5303C11.0529 14.2575 11.0529 13.9999 11.0833 13.7574C11.6002 12.9693 12.0411 12.1054 12.406 11.1657C12.7709 10.226 13.0293 9.3015 13.1814 8.39213V8.34666C13.0902 8.16479 12.9533 7.9223 12.7709 7.61917C12.5884 7.31605 12.4212 7.11902 12.2692 7.02809C11.9347 6.87653 11.585 6.87653 11.2201 7.02809C10.8553 7.14934 10.4752 7.27058 10.0799 7.39183C9.68459 7.51308 9.3045 7.54339 8.93962 7.48277C8.57474 7.42214 8.24026 7.11902 7.93619 6.5734V6.48247C7.5409 6.63403 7.19122 6.8159 6.88716 7.02809C6.61349 7.20996 6.2182 7.20996 5.70129 7.02809L5.65568 6.98262C5.65568 6.64919 5.56446 6.36122 5.38202 6.11872C5.19957 5.84591 5.03234 5.5731 4.8803 5.30029C4.72827 5.48217 4.54583 5.5731 4.33298 5.5731C4.12013 5.5731 3.89208 5.54279 3.64882 5.48217C3.40557 5.42154 3.17752 5.34576 2.96467 5.25483C2.72141 5.13358 2.52377 5.04264 2.37174 4.98202L2.28051 4.93655C2.18929 4.54249 2.02206 4.25453 1.7788 4.07265C1.53555 3.86047 1.27709 3.6786 1.00343 3.52703C0.729765 3.37547 0.501713 3.20876 0.319272 3.02688C0.106424 2.8147 0 2.51158 0 2.11752C0 1.66284 0.121627 1.26878 0.364882 0.935346C0.57773 0.5716 0.851392 0.313947 1.18587 0.162386C1.52034 0.0108258 1.88523 -0.0346425 2.28051 0.0259818C2.6758 0.0866061 3.04069 0.283635 3.37516 0.617069V0.662537C3.5272 0.814098 3.75525 0.99597 4.05932 1.20816C4.36339 1.42034 4.66745 1.64768 4.97152 1.89018C5.306 2.10236 5.62527 2.28424 5.92934 2.4358C6.26381 2.58736 6.53748 2.66314 6.75032 2.66314C6.87195 2.5722 6.97838 2.55705 7.0696 2.61767C7.19122 2.64798 7.28244 2.70861 7.34326 2.79954C7.43448 2.89048 7.5257 2.99657 7.61692 3.11782C7.70814 3.20876 7.79936 3.25423 7.89058 3.25423C8.10343 3.1936 8.24026 3.0572 8.30107 2.84501L8.34668 2.89048C8.62035 2.98142 8.90921 2.9511 9.21328 2.79954C9.54776 2.61767 9.88223 2.45095 10.2167 2.29939C10.5816 2.11752 10.9465 2.02658 11.3114 2.02658C11.7066 1.99627 12.0867 2.17814 12.4516 2.5722C12.5124 2.48127 12.6341 2.40549 12.8165 2.34486C12.9989 2.28424 13.151 2.25392 13.2726 2.25392C13.6679 2.25392 14.0176 2.4358 14.3216 2.79954C15.021 3.6786 15.4467 4.66374 15.5987 5.75498C15.7508 6.84621 15.8268 7.92229 15.8268 8.98322V10.3473C15.5835 10.8019 15.3707 11.2566 15.1882 11.7113C15.0362 12.166 14.9602 12.651 14.9602 13.1663C14.9602 13.2572 14.9602 13.3785 14.9602 13.53C14.9906 13.6816 15.021 13.8483 15.0514 14.0302C15.0818 14.1818 15.097 14.3333 15.097 14.4849C15.1274 14.6061 15.1426 14.6819 15.1426 14.7122C15.0514 15.2578 14.9146 15.8035 14.7321 16.3491C14.5497 16.8947 14.3672 17.4252 14.1848 17.9405C13.8503 18.8801 13.5615 19.835 13.3182 20.805C13.075 21.7446 12.9229 22.7146 12.8621 23.7149C13.4702 22.8056 13.7743 21.7598 13.7743 20.5776L13.8199 20.5321C14.5801 19.9259 15.2034 19.2742 15.6899 18.577C16.1765 17.8495 16.6478 17.0766 17.1039 16.2581C17.6208 15.3488 18.1833 14.4546 18.7914 13.5755C19.43 12.6965 20.2662 12.0599 21.3 11.6658C21.6345 11.3324 21.9386 10.999 22.2122 10.6655C22.5163 10.3321 22.8812 10.0896 23.3069 9.93805L23.3525 9.89258L23.6261 10.3473C23.7478 10.2563 23.839 10.1654 23.8998 10.0745C23.991 9.98352 24.0822 9.89258 24.1735 9.80165C24.4775 9.49853 24.66 9.3015 24.7208 9.21056C24.7816 9.08931 24.812 8.8165 24.812 8.39213C25.2681 8.02839 25.6786 7.83136 26.0435 7.80105C26.4388 7.77073 26.7884 7.84651 27.0925 8.02839C27.427 8.17995 27.7615 8.39213 28.0959 8.66494C28.4304 8.93775 28.7801 9.18025 29.145 9.39243V9.4379C29.3882 10.9838 29.6011 12.5146 29.7835 14.0302C29.9964 15.5458 30.1028 17.0917 30.1028 18.668C30.1028 19.4864 30.0724 20.229 30.0116 20.8959C29.9812 21.5324 29.9052 22.169 29.7835 22.8056C29.6923 23.4118 29.5555 24.0332 29.373 24.6698C29.221 25.3063 29.0386 26.0035 28.8257 26.7613V26.8068C29.2514 27.2614 29.6315 27.413 29.966 27.2614C30.3308 27.1099 30.6653 26.8371 30.9694 26.443C31.2735 26.0186 31.5471 25.5791 31.7904 25.1244C32.064 24.6394 32.3225 24.2757 32.5658 24.0332H32.6114C32.581 23.7301 32.6722 23.3663 32.885 22.942C33.0979 22.4873 33.3411 22.0326 33.6148 21.5779C33.8885 21.1232 34.1317 20.6989 34.3446 20.3048C34.5574 19.8804 34.6486 19.5773 34.6182 19.3954C35.2264 18.5164 35.7737 17.6525 36.2602 16.8038C36.7771 15.9247 37.2484 15.0153 37.6741 14.0757C37.8261 14.1969 37.9478 14.1969 38.039 14.0757C38.1302 13.9544 38.2214 13.8483 38.3127 13.7574H38.3583C38.4799 13.0299 38.7231 12.4388 39.088 11.9841C39.4833 11.4991 39.909 11.0748 40.3651 10.711C40.8516 10.317 41.3533 9.93805 41.8703 9.57431C42.3872 9.21056 42.8585 8.78619 43.2842 8.3012C43.9531 8.3012 44.5461 8.4376 45.063 8.71041C45.6103 8.95291 45.9144 9.46821 45.9752 10.2563C45.8231 10.7413 45.7319 11.2415 45.7015 11.7568C45.7015 12.2418 45.6863 12.7419 45.6559 13.2572C45.6559 13.7725 45.6255 14.2878 45.5647 14.8032C45.5039 15.2881 45.367 15.758 45.1542 16.2127C45.1542 16.2733 45.1086 16.4703 45.0174 16.8038C44.9261 17.1372 44.8197 17.5161 44.6981 17.9405C44.6069 18.3345 44.5005 18.7134 44.3788 19.0772C44.2572 19.4409 44.1812 19.6683 44.1508 19.7592C43.7251 21.0626 43.3906 22.3054 43.1473 23.4876C42.9041 24.6394 42.7825 25.9277 42.7825 27.3524C42.6608 27.4736 42.5392 27.5949 42.4176 27.7161C42.3264 27.8374 42.2199 27.9435 42.0983 28.0344L42.1439 28.0799C42.2655 28.383 42.3264 28.6558 42.3264 28.8983C42.3264 29.2317 42.2351 29.5955 42.0527 29.9895C41.9007 30.3836 41.7486 30.7777 41.5966 31.1717C41.475 31.5355 41.4142 31.9144 41.4142 32.3084C41.4142 32.6722 41.5966 33.0056 41.9615 33.3087C41.9615 33.7937 41.8855 34.3242 41.7334 34.9001C41.5814 35.4457 41.4446 36.0065 41.3229 36.5824C41.2317 37.128 41.1861 37.6737 41.1861 38.2193C41.1861 38.7649 41.3381 39.2651 41.6422 39.7197L41.6878 39.7652C42.1743 39.7652 42.5392 39.7197 42.7825 39.6288C43.0257 39.5379 43.2234 39.4772 43.3754 39.4469C43.5578 39.4166 43.7555 39.4469 43.9683 39.5379C44.1812 39.5985 44.5157 39.7955 44.9718 40.1289L47.5715 38.3557C47.9364 38.0829 48.2557 37.7949 48.5294 37.4918C48.8334 37.1887 49.1375 36.9159 49.4416 36.6734C49.7456 36.4309 50.0801 36.249 50.445 36.1277C50.8099 36.0065 51.2508 35.9913 51.7677 36.0823L51.8133 35.9913C52.239 35.3851 52.7711 34.8698 53.4097 34.4454C54.0786 34.021 54.778 33.6422 55.5077 33.3087C56.2375 32.945 56.9825 32.6115 57.7426 32.3084C58.5028 31.975 59.187 31.5961 59.7951 31.1717Z" fill="white"/>
<path d="M84.4247 30.7625C84.5463 31.2172 84.5007 31.6112 84.2878 31.9447C84.075 32.2478 83.7861 32.5206 83.4212 32.7631C83.0868 33.0056 82.7067 33.2329 82.281 33.4451C81.8857 33.627 81.5512 33.8392 81.2775 34.0817C79.9092 34.3848 78.6626 34.6121 77.5375 34.7637C76.4429 34.8849 75.2266 35.0517 73.8887 35.2638C73.4934 35.3245 73.1133 35.3245 72.7484 35.2638C72.4139 35.1729 72.0643 35.1426 71.6994 35.1729C71.4865 35.1729 71.2889 35.1729 71.1065 35.1729C70.924 35.1426 70.7416 35.1426 70.5591 35.1729C69.8598 35.2335 69.4037 35.476 69.1908 35.9004C68.978 36.2945 68.7955 36.7643 68.6435 37.3099C68.5219 37.8252 68.3546 38.3254 68.1418 38.8104C67.9593 39.2651 67.5489 39.5833 66.9103 39.7652C66.8495 39.9168 66.8647 40.0532 66.9559 40.1744C67.0775 40.2957 67.1688 40.4018 67.2296 40.4927C66.7127 40.6443 66.363 40.9171 66.1805 41.3111C66.0285 41.7052 65.8917 42.0992 65.7701 42.4933C65.6484 42.8874 65.466 43.2208 65.2227 43.4936C65.0099 43.7664 64.5842 43.8573 63.9456 43.7664C63.003 44.7667 61.8932 45.57 60.6161 46.1762C59.339 46.8128 58.0163 47.222 56.648 47.4039C56.4047 47.2826 56.1615 47.1311 55.9182 46.9492C55.7054 46.7673 55.4773 46.6006 55.2341 46.449C55.0212 46.2975 54.778 46.1762 54.5043 46.0853C54.2611 46.0247 53.9722 46.0247 53.6377 46.0853C53.6073 45.4487 53.4857 44.8576 53.2728 44.312C53.0296 43.7664 52.7255 43.2511 52.3606 42.7661C52.2998 42.2205 52.3758 41.7203 52.5887 41.2657C52.7711 40.7807 52.9688 40.3108 53.1816 39.8561C53.3945 39.4015 53.5769 38.9468 53.7289 38.4921C53.8506 38.0071 53.8202 37.4615 53.6377 36.8552C53.9418 36.6734 54.1394 36.4612 54.2306 36.2187C54.3523 35.9762 54.4283 35.7337 54.4587 35.4912C54.5195 35.2184 54.5955 34.9759 54.6867 34.7637C54.778 34.5212 54.9908 34.3242 55.3253 34.1726C55.082 33.4451 55.1124 32.9147 55.4165 32.5812C55.751 32.2175 56.1463 31.8992 56.6024 31.6264C57.0585 31.3536 57.4842 31.0505 57.8795 30.717C58.2748 30.3836 58.4268 29.8834 58.3356 29.2166C58.518 29.0347 58.7309 28.8831 58.9741 28.7619C59.2174 28.6406 59.4454 28.5346 59.6583 28.4436C59.9015 28.3224 60.1296 28.2011 60.3424 28.0799C60.5553 27.9586 60.7529 27.7919 60.9354 27.5797C60.7225 27.4282 60.6161 27.2766 60.6161 27.125C60.6465 26.9735 60.6921 26.8219 60.7529 26.6704C60.8137 26.4885 60.8745 26.3066 60.9354 26.1247C61.0266 25.9429 61.0266 25.761 60.9354 25.5791C61.7563 25.7004 62.4709 25.5943 63.079 25.2608C63.7176 24.8971 64.3105 24.5333 64.8578 24.1696C65.4356 23.8059 66.0133 23.5482 66.591 23.3966C67.1688 23.2451 67.8377 23.427 68.5979 23.9423C68.6587 24.1544 68.7499 24.4727 68.8716 24.8971C69.0236 25.2912 69.1604 25.7004 69.282 26.1247C69.4341 26.5491 69.5709 26.9583 69.6925 27.3524C69.8142 27.7464 69.8902 28.0344 69.9206 28.2163C69.9206 28.3678 69.9206 28.6103 69.9206 28.9438C69.9206 29.2772 69.9206 29.6409 69.9206 30.035C69.9206 30.3988 69.9206 30.7473 69.9206 31.0808C69.9206 31.4142 69.9206 31.6719 69.9206 31.8537C70.8024 32.369 71.6842 32.6873 72.566 32.8086C73.4478 32.8995 74.3296 32.6873 75.2114 32.172C75.5459 32.4751 75.8651 32.5661 76.1692 32.4448C76.4733 32.2933 76.7621 32.1265 77.0358 31.9447C77.3399 31.7628 77.6439 31.6719 77.948 31.6719C78.2521 31.6415 78.5561 31.884 78.8602 32.3994C79.2859 32.0053 79.7268 31.7628 80.1829 31.6719C80.639 31.5506 81.1103 31.49 81.5968 31.49C82.0833 31.4597 82.5546 31.4142 83.0107 31.3536C83.4973 31.293 83.9686 31.0959 84.4247 30.7625ZM66.9103 31.5355C66.9103 31.0808 66.9863 30.5958 67.1384 30.0805C67.2904 29.5652 67.412 29.065 67.5032 28.58C67.5945 28.0647 67.5793 27.5797 67.4576 27.125C67.3664 26.6704 67.0775 26.2611 66.591 25.8974C66.2566 26.0793 65.9829 26.3369 65.7701 26.6704C65.5572 26.9735 65.3444 27.2918 65.1315 27.6252C64.9187 27.9283 64.6602 28.186 64.3561 28.3981C64.0825 28.6103 63.7176 28.671 63.2615 28.58C63.1095 28.9438 63.1095 29.2469 63.2615 29.4894C63.4135 29.7016 63.596 29.9138 63.8088 30.1259C64.0217 30.3078 64.2193 30.5048 64.4017 30.717C64.6146 30.9292 64.6906 31.202 64.6298 31.5355C64.7514 31.6264 64.9187 31.7173 65.1315 31.8083C65.3444 31.8689 65.5572 31.9144 65.7701 31.9447C66.0133 31.9447 66.2414 31.9144 66.4542 31.8537C66.6671 31.7931 66.8191 31.687 66.9103 31.5355ZM66.591 35.1729C65.9829 35.1729 65.4508 35.0365 64.9947 34.7637C64.569 34.4606 64.1281 34.1271 63.672 33.7634C63.2463 33.3997 62.7902 33.0662 62.3037 32.7631C61.8476 32.4297 61.285 32.2326 60.6161 32.172C60.3424 32.5358 60.0232 32.8843 59.6583 33.2178C59.2934 33.5209 58.9741 33.8543 58.7005 34.2181C58.4268 34.5818 58.2291 34.9759 58.1075 35.4003C58.0163 35.8246 58.0923 36.3096 58.3356 36.8552C57.6362 37.1887 57.1649 37.6737 56.9217 38.3102C56.6784 38.9165 56.5112 39.5833 56.4199 40.3108C56.3591 41.0383 56.2983 41.7658 56.2375 42.4933C56.1767 43.2208 55.979 43.8725 55.6446 44.4484L56.648 43.7664C56.7696 43.827 56.8608 43.918 56.9217 44.0392C57.0129 44.1605 57.0281 44.2969 56.9673 44.4484C57.2105 44.2059 57.4842 44.0241 57.7882 43.9028C58.0923 43.7513 58.3964 43.6452 58.7005 43.5845C59.0349 43.4936 59.3542 43.4178 59.6583 43.3572C59.9927 43.2966 60.312 43.2056 60.6161 43.0844C61.3763 43.5088 61.9236 43.5997 62.2581 43.3572C62.5925 43.1147 62.8662 42.7509 63.079 42.266C63.2919 41.781 63.5199 41.2808 63.7632 40.7655C64.0065 40.2199 64.4017 39.8865 64.9491 39.7652L64.6298 39.4469C65.1467 38.8104 65.6028 38.1587 65.9981 37.4918C66.4238 36.7946 66.6214 36.0217 66.591 35.1729Z" fill="white"/>
<path d="M111.335 36.0368C110.635 36.3702 110.164 36.7795 109.921 37.2645C109.678 37.7494 109.48 38.2496 109.328 38.7649C109.206 39.2802 109.039 39.7804 108.826 40.2654C108.644 40.72 108.233 41.0989 107.595 41.4021C107.443 41.9477 107.139 42.3266 106.682 42.5388C106.257 42.7509 105.801 42.948 105.314 43.1299C104.828 43.2814 104.387 43.4936 103.991 43.7664C103.627 44.0392 103.444 44.5091 103.444 45.1759C102.836 45.5094 102.167 45.8125 101.437 46.0853C100.738 46.3581 99.993 46.5551 99.2024 46.6764C98.4422 46.8279 97.6821 46.8886 96.9219 46.8582C96.1617 46.8279 95.4472 46.6764 94.7782 46.4036C94.3221 46.1914 93.8812 45.9186 93.4555 45.5851C93.3035 45.4639 93.1514 45.3578 92.9994 45.2669C92.8778 45.2062 92.7409 45.1001 92.5889 44.9486C92.224 44.5848 91.92 44.1605 91.6767 43.6755C91.4334 43.1905 91.2358 42.6752 91.0838 42.1296C90.9317 41.5839 90.8101 41.0383 90.7189 40.4927C90.6277 39.9471 90.5516 39.4318 90.4908 38.9468L92.1784 34.4C91.2966 33.7028 90.5821 32.8995 90.0347 31.9901C89.4874 31.0505 88.8185 30.1866 88.0279 29.3984C87.8758 29.6106 87.6782 29.7925 87.4349 29.9441C87.1917 30.0956 87.1005 30.3381 87.1613 30.6716L87.6174 31.0808C86.614 32.172 85.5953 33.4148 84.5615 34.8092C83.5581 36.1732 82.7675 37.5524 82.1898 38.9468C81.5208 38.9165 81.0495 39.0832 80.7758 39.4469C80.5022 39.7804 80.2741 40.1744 80.0917 40.6291C79.9092 41.0535 79.6812 41.4475 79.4075 41.8113C79.1339 42.175 78.6778 42.3266 78.0392 42.266C77.8872 42.5994 77.7352 42.9631 77.5831 43.3572C77.4311 43.7209 77.2486 44.0695 77.0358 44.403C76.8229 44.7364 76.5645 45.0092 76.2604 45.2214C75.9564 45.4639 75.5763 45.5851 75.1202 45.5851C74.8769 45.3426 74.7401 45.085 74.7097 44.8122C74.6793 44.5394 74.7097 44.2666 74.8009 43.9937C74.8921 43.6906 75.0137 43.4027 75.1658 43.1299C75.3178 42.8267 75.4242 42.5388 75.485 42.266C75.7283 41.3869 76.1692 40.5988 76.8077 39.9016C77.4463 39.1741 78.0848 38.4618 78.7234 37.7646C79.3619 37.0371 79.9092 36.2793 80.3653 35.4912C80.8214 34.7031 81.0039 33.7786 80.9127 32.7176C81.308 32.6873 81.7032 32.6115 82.0985 32.4903C82.5242 32.3387 82.9043 32.1569 83.2388 31.9447C83.6037 31.7022 83.8773 31.4142 84.0598 31.0808C84.2726 30.717 84.3486 30.2927 84.2878 29.8077C84.0446 29.6864 83.9077 29.5197 83.8773 29.3075C83.8469 29.065 83.8469 28.8225 83.8773 28.58C84.5463 28.3678 85.0784 28.0041 85.4737 27.4888C85.8994 26.9432 86.2795 26.3672 86.614 25.761C86.9484 25.1547 87.2677 24.5485 87.5718 23.9423C87.9062 23.3057 88.3319 22.7601 88.8489 22.3054C89.2746 22.5479 89.7003 22.7601 90.126 22.942C90.5516 23.0935 90.9621 23.3057 91.3574 23.5785C91.0838 23.9423 90.9165 24.2909 90.8557 24.6243C90.7949 24.9577 90.7645 25.3063 90.7645 25.6701C90.7645 26.0035 90.7645 26.3369 90.7645 26.6704C90.7645 27.0038 90.6733 27.3524 90.4908 27.7161C90.9773 28.1405 91.3878 28.6406 91.7223 29.2166C92.0568 29.7925 92.4825 30.2775 92.9994 30.6716C93.3643 30.3988 93.7748 30.2623 94.2309 30.2623C94.687 30.232 95.1431 30.232 95.5992 30.2623C96.0857 30.2623 96.5418 30.232 96.9675 30.1714C97.3932 30.0805 97.7429 29.8228 98.0165 29.3984C98.1382 29.5197 98.3206 29.5803 98.5639 29.5803C98.8071 29.5803 99.0504 29.5803 99.2936 29.5803C99.5369 29.5803 99.7497 29.6258 99.9322 29.7167C100.115 29.7774 100.221 29.9138 100.251 30.1259C100.282 30.3684 100.267 30.5352 100.206 30.6261C100.175 30.717 100.13 30.8686 100.069 31.0808C100.008 31.3233 99.993 31.4445 100.023 31.4445C100.054 31.4445 100.023 31.5506 99.9322 31.7628C99.7801 32.1569 99.5217 32.4903 99.1568 32.7631C98.8223 33.0359 98.4726 33.3087 98.1077 33.5815C97.7733 33.824 97.454 34.112 97.1499 34.4454C96.8763 34.7485 96.7394 35.1426 96.7394 35.6276C96.0705 35.8701 95.5992 36.2338 95.3255 36.7188C95.0519 37.1735 94.8694 37.704 94.7782 38.3102C94.687 38.8862 94.6262 39.4924 94.5958 40.1289C94.5654 40.7352 94.4589 41.296 94.2765 41.8113L94.687 42.266L95.0519 41.8113C95.4776 42.4175 95.9793 42.7964 96.557 42.948C97.1651 43.0995 97.7885 43.145 98.427 43.0844C98.7311 42.6297 99.0808 42.266 99.4761 41.9931C99.9018 41.7203 100.343 41.493 100.799 41.3111C101.285 41.1292 101.772 40.9625 102.258 40.811C102.775 40.6594 103.262 40.4775 103.718 40.2654C104.083 40.0835 104.387 39.8865 104.63 39.6743C104.904 39.4621 105.193 39.2196 105.497 38.9468C106.409 38.098 107.306 37.2645 108.188 36.446C109.1 35.6276 110.012 34.794 110.924 33.9453C111.107 33.9453 111.228 34.0362 111.289 34.2181C111.35 34.4 111.38 34.6121 111.38 34.8546C111.38 35.0668 111.365 35.2942 111.335 35.5367C111.335 35.7488 111.335 35.9156 111.335 36.0368Z" fill="white"/>
<path d="M140.708 40.2654C140.282 40.9928 139.948 41.5839 139.704 42.0386C139.492 42.463 139.263 42.8267 139.02 43.1299C138.807 43.4027 138.549 43.6603 138.245 43.9028C137.971 44.115 137.576 44.3878 137.059 44.7212C136.724 45.0244 136.39 45.282 136.056 45.4942C135.782 45.7064 135.508 45.8883 135.235 46.0398C134.991 46.1914 134.794 46.2672 134.642 46.2672C134.581 46.2672 134.52 46.252 134.459 46.2217C134.398 46.2217 134.338 46.2217 134.277 46.2217C134.094 46.2217 133.912 46.2217 133.729 46.2217C133.577 46.252 133.441 46.1459 133.319 45.9034C133.228 45.9943 133.152 46.1004 133.091 46.2217C133.03 46.3429 132.969 46.449 132.908 46.54C132.848 46.6612 132.756 46.7522 132.635 46.8128C132.544 46.8734 132.407 46.8734 132.224 46.8128L131.996 46.54L131.312 47.1311C130.461 46.7067 129.64 46.3429 128.849 46.0398C128.089 45.767 127.405 45.4336 126.797 45.0395C126.188 44.6455 125.672 44.1453 125.246 43.5391C124.82 42.9025 124.516 42.0386 124.334 40.9474C124.182 40.7655 124.014 40.6139 123.832 40.4927C123.65 40.3411 123.437 40.2957 123.193 40.3563C122.889 40.8716 122.524 41.3111 122.099 41.6749C121.673 42.0386 121.247 42.4327 120.822 42.857C120.67 43.0086 120.548 43.1753 120.457 43.3572C120.366 43.5391 120.244 43.7058 120.092 43.8573C119.849 44.1301 119.56 44.3272 119.225 44.4484C118.891 44.5394 118.556 44.6303 118.222 44.7212C117.887 44.8122 117.568 44.9637 117.264 45.1759C116.99 45.3881 116.793 45.7519 116.671 46.2672C116.306 46.055 115.941 45.9943 115.576 46.0853C115.303 46.1459 115.014 46.2065 114.71 46.2672C114.406 46.3581 114.102 46.4036 113.798 46.4036C113.524 46.4339 113.25 46.4036 112.977 46.3126C112.703 46.2217 112.46 46.0247 112.247 45.7215C111.821 45.9034 111.426 45.8883 111.061 45.6761C110.696 45.4942 110.347 45.2365 110.012 44.9031C109.708 44.5394 109.404 44.1605 109.1 43.7664C108.796 43.3723 108.507 43.0844 108.233 42.9025C108.051 42.4175 108.066 42.0083 108.279 41.6749C108.461 41.3111 108.674 40.9777 108.917 40.6746C109.13 40.3411 109.282 40.0229 109.373 39.7197C109.465 39.3863 109.328 38.9922 108.963 38.5376C109.267 38.0829 109.541 37.613 109.784 37.128C110.027 36.6127 110.271 36.1126 110.514 35.6276C110.787 35.1123 111.061 34.6273 111.335 34.1726C111.639 33.6876 112.004 33.2784 112.429 32.945C112.247 32.7328 112.156 32.5358 112.156 32.3539C112.156 32.1417 112.201 31.9447 112.293 31.7628C112.384 31.5506 112.49 31.3536 112.612 31.1717C112.733 30.9595 112.825 30.7625 112.885 30.5806L114.208 29.9441L113.889 28.8528C114.223 28.9135 114.467 28.8983 114.619 28.8074C114.801 28.7164 114.923 28.58 114.984 28.3981C115.075 28.2163 115.136 28.0192 115.166 27.8071C115.227 27.5646 115.303 27.3524 115.394 27.1705C115.546 26.8977 115.774 26.7007 116.078 26.5794C116.717 26.0944 117.34 25.5791 117.948 25.0335C118.587 24.4879 119.21 23.9574 119.818 23.4421C120.457 22.9268 121.111 22.4418 121.779 21.9871C122.448 21.5021 123.178 21.0929 123.969 20.7595C124.516 20.8504 124.942 21.0171 125.246 21.2596C125.58 21.5021 125.824 21.7901 125.976 22.1235C126.158 22.457 126.295 22.8359 126.386 23.2602C126.477 23.6543 126.569 24.0484 126.66 24.4424C126.812 24.9577 126.994 25.3972 127.207 25.761C127.42 26.1247 127.785 26.4279 128.302 26.6704C127.876 27.3978 127.709 28.1253 127.8 28.8528C127.891 29.55 127.982 30.2927 128.074 31.0808C128.165 31.8083 128.15 32.5206 128.028 33.2178C127.937 33.915 127.496 34.5364 126.705 35.082C126.645 35.2942 126.629 35.5215 126.66 35.764C126.69 36.0065 126.705 36.249 126.705 36.4915C126.705 36.734 126.66 36.9613 126.569 37.1735C126.477 37.3857 126.31 37.5524 126.067 37.6737C126.341 38.0071 126.477 38.3405 126.477 38.674C126.508 39.0074 126.523 39.3257 126.523 39.6288C126.553 39.9319 126.629 40.2047 126.751 40.4472C126.903 40.6897 127.238 40.8716 127.754 40.9928C127.846 41.3869 127.922 41.69 127.982 41.9022C128.074 42.0841 128.165 42.2356 128.256 42.3569C128.378 42.4781 128.53 42.5994 128.712 42.7206C128.895 42.8116 129.138 42.9631 129.442 43.1753C129.685 43.2359 129.959 43.2359 130.263 43.1753C130.567 43.1147 130.81 43.2056 130.993 43.4481C131.145 43.2966 131.327 43.2208 131.54 43.2208C131.753 43.1905 131.951 43.1905 132.133 43.2208L132.726 44.2211C133.06 43.9786 133.441 43.7664 133.866 43.5845C134.292 43.4027 134.702 43.2511 135.098 43.1299C135.554 43.0086 136.01 42.9025 136.466 42.8116L140.708 40.2654ZM123.193 24.7152C122.92 24.9577 122.585 25.2002 122.19 25.4427C121.795 25.6852 121.399 25.9429 121.004 26.2157C120.639 26.4885 120.32 26.7916 120.046 27.125C119.773 27.4282 119.605 27.7919 119.545 28.2163C118.845 28.3375 118.359 28.6255 118.085 29.0802C117.811 29.5349 117.583 30.035 117.401 30.5806C117.218 31.1262 117.021 31.6719 116.808 32.2175C116.595 32.7328 116.215 33.142 115.668 33.4451C115.485 33.5664 115.318 33.627 115.166 33.627C115.196 33.627 115.105 33.6876 114.892 33.8089C114.558 34.0514 114.269 34.3545 114.026 34.7182C113.782 35.082 113.57 35.476 113.387 35.9004C113.235 36.3248 113.083 36.7643 112.931 37.219C112.809 37.6434 112.688 38.0374 112.566 38.4012C112.141 38.4618 111.821 38.5527 111.608 38.674C111.396 38.7952 111.259 38.9316 111.198 39.0832C111.168 39.2044 111.183 39.356 111.244 39.5379C111.304 39.7197 111.396 39.9168 111.517 40.1289C111.639 40.3108 111.76 40.523 111.882 40.7655C112.034 41.008 112.156 41.2505 112.247 41.493C112.338 41.7355 112.384 41.978 112.384 42.2205C112.414 42.463 112.353 42.6903 112.201 42.9025C112.627 43.2359 113.038 43.3117 113.433 43.1299C113.828 42.9177 114.193 42.6903 114.527 42.4478C114.649 42.3569 114.771 42.266 114.892 42.175C115.044 42.0538 115.196 41.9628 115.348 41.9022C116.048 42.0538 116.686 42.0083 117.264 41.7658C117.842 41.5233 118.374 41.1899 118.86 40.7655C119.347 40.3411 119.818 39.8865 120.274 39.4015C120.73 38.9165 121.187 38.4921 121.643 38.1283L121.278 37.7646C121.825 37.613 122.205 37.416 122.418 37.1735C122.661 36.9007 122.813 36.5976 122.874 36.2641C122.935 35.9307 122.935 35.5821 122.874 35.2184C122.813 34.8243 122.768 34.4151 122.737 33.9907C122.707 33.7482 122.692 33.5209 122.692 33.3087C122.722 33.0662 122.783 32.8237 122.874 32.5812C122.631 31.884 122.585 31.2172 122.737 30.5806C122.92 29.9441 123.148 29.3378 123.421 28.7619C123.726 28.1557 124.014 27.5494 124.288 26.9432C124.562 26.3369 124.699 25.7004 124.699 25.0335L123.193 24.7152Z" fill="white"/>
<path d="M173.456 27.5797C173.334 28.2163 173.076 28.8074 172.681 29.353C172.316 29.8986 171.86 30.3836 171.312 30.808C170.795 31.2323 170.233 31.5961 169.625 31.8992C169.017 32.172 168.408 32.369 167.8 32.4903C166.888 32.8843 166.037 33.1875 165.246 33.3997C164.486 33.5815 163.711 33.7028 162.92 33.7634C162.129 33.824 161.308 33.8392 160.457 33.8089C159.606 33.7786 158.648 33.7331 157.584 33.6725C157.31 33.7634 157.112 33.915 156.991 34.1271C156.899 34.3393 156.839 34.5667 156.808 34.8092C156.808 35.0517 156.823 35.3093 156.854 35.5821C156.884 35.8246 156.884 36.052 156.854 36.2641C156.58 36.2338 156.352 36.3248 156.17 36.537C156.018 36.7491 155.866 36.931 155.714 37.0826C155.744 37.7191 155.653 38.2041 155.44 38.5376C155.227 38.8407 154.969 39.1135 154.665 39.356C154.391 39.5682 154.072 39.8107 153.707 40.0835C153.372 40.326 153.083 40.6897 152.84 41.1747C152.718 41.3566 152.642 41.5385 152.612 41.7203C152.582 41.8719 152.536 42.0689 152.475 42.3114C152.384 42.7358 152.171 42.9934 151.837 43.0844C151.533 43.1753 151.213 43.2511 150.879 43.3117C150.544 43.342 150.24 43.433 149.967 43.5845C149.693 43.7058 149.541 44.0241 149.511 44.5394C148.842 44.7212 148.188 45.0092 147.549 45.4033C146.911 45.8276 146.272 46.2368 145.634 46.6309C144.995 47.025 144.341 47.3129 143.672 47.4948C143.034 47.707 142.35 47.6918 141.62 47.4493C141.468 47.3887 141.255 47.2978 140.981 47.1765C140.738 47.0553 140.556 46.934 140.434 46.8128C140.373 46.7522 140.282 46.6309 140.16 46.449C140.069 46.2975 139.993 46.1914 139.932 46.1308C139.628 45.6458 139.4 45.1153 139.248 44.5394C139.096 43.9634 138.99 43.3875 138.929 42.8116C138.868 42.2053 138.853 41.5991 138.883 40.9928C138.883 40.3866 138.883 39.8107 138.883 39.2651C139.035 39.3257 139.187 39.3105 139.339 39.2196C139.461 39.0983 139.568 38.9922 139.659 38.9013L139.248 37.7646C139.431 37.8252 139.583 37.8101 139.704 37.7191C139.826 37.6282 139.932 37.5221 140.024 37.4009C139.568 37.1584 139.339 36.9159 139.339 36.6734C139.309 36.4006 139.37 36.1277 139.522 35.8549C139.674 35.5518 139.856 35.2487 140.069 34.9456C140.312 34.6424 140.434 34.3242 140.434 33.9907C140.465 33.2632 140.541 32.5812 140.662 31.9447C140.814 31.2778 140.981 30.6261 141.164 29.9895C141.346 29.353 141.544 28.7164 141.757 28.0799C141.97 27.4433 142.152 26.7764 142.304 26.0793C142.821 26.0186 143.292 25.7913 143.718 25.3972C144.144 24.9729 144.569 24.5788 144.995 24.2151C145.421 23.8513 145.862 23.624 146.318 23.5331C146.804 23.4421 147.352 23.6695 147.96 24.2151C148.081 24.9426 148.021 25.6094 147.777 26.2157C147.565 26.8219 147.306 27.413 147.002 27.9889C146.698 28.5649 146.424 29.156 146.181 29.7622C145.968 30.3684 145.938 31.0353 146.09 31.7628C144.934 32.2781 144.174 33.0208 143.809 33.9907C143.475 34.9607 143.247 36.0065 143.125 37.128C143.095 37.4615 143.049 37.8252 142.988 38.2193C142.927 38.583 142.821 38.9316 142.669 39.2651C142.851 39.6894 142.882 40.1138 142.76 40.5382C142.639 40.9322 142.517 41.3263 142.395 41.7203C142.304 42.1144 142.274 42.4781 142.304 42.8116C142.335 43.145 142.578 43.4633 143.034 43.7664C145.041 43.1905 146.759 42.3417 148.188 41.2202C149.617 40.0986 150.924 38.7043 152.11 37.0371C152.779 36.0974 153.387 35.1729 153.935 34.2635C154.512 33.3239 154.984 32.369 155.349 31.3991C155.714 30.4291 155.957 29.4136 156.078 28.3527C156.2 27.2918 156.139 26.1702 155.896 24.988C156.2 24.9577 156.474 24.8062 156.717 24.5333C156.96 24.2605 157.203 24.0332 157.447 23.8513C157.69 23.6391 157.933 23.5331 158.177 23.5331C158.42 23.5331 158.678 23.7604 158.952 24.2151C159.408 24.4273 159.636 24.6849 159.636 24.988C159.666 25.2608 159.621 25.5488 159.499 25.8519C159.408 26.1551 159.332 26.4582 159.271 26.7613C159.21 27.0644 159.347 27.3524 159.682 27.6252C159.59 27.6858 159.484 27.8222 159.362 28.0344C159.241 28.2163 159.134 28.4436 159.043 28.7164C158.952 28.9589 158.876 29.2014 158.815 29.4439C158.754 29.6561 158.739 29.8077 158.769 29.8986C159.043 30.3836 159.347 30.6412 159.682 30.6716C160.016 30.6716 160.366 30.6109 160.731 30.4897C161.096 30.3684 161.46 30.2927 161.825 30.2623C162.221 30.2017 162.586 30.3381 162.92 30.6716C163.68 30.5806 164.364 30.4897 164.972 30.3988C165.581 30.2775 166.158 30.1563 166.706 30.035C167.283 29.9138 167.861 29.7774 168.439 29.6258C169.047 29.4439 169.731 29.262 170.491 29.0802C170.887 28.5952 171.327 28.2617 171.814 28.0799C172.331 27.898 172.878 27.7313 173.456 27.5797Z" fill="white"/>
<path d="M200.275 31.1262C200.001 31.3991 199.788 31.6112 199.636 31.7628C199.515 31.9144 199.393 32.0659 199.271 32.2175C199.18 32.3387 199.059 32.4751 198.907 32.6267C198.785 32.7783 198.587 33.0056 198.314 33.3087C198.07 33.5512 197.842 33.8089 197.629 34.0817C197.417 34.3545 197.173 34.597 196.9 34.8092C196.535 34.7182 196.246 34.7637 196.033 34.9456C195.851 35.1274 195.668 35.3396 195.486 35.5821C195.334 35.7943 195.182 36.0065 195.03 36.2187C194.908 36.4006 194.741 36.4763 194.528 36.446C193.798 36.8401 193.068 37.1887 192.339 37.4918C191.609 37.7646 190.91 38.1738 190.241 38.7194L189.876 38.3557L185.132 40.6291C184.98 40.6897 184.828 40.7807 184.676 40.9019C184.524 41.0232 184.372 41.1292 184.22 41.2202C183.551 41.5839 182.852 41.9174 182.122 42.2205C181.423 42.4933 180.723 42.7509 180.024 42.9934L179.431 43.1753C179.674 43.7816 179.674 44.2059 179.431 44.4484C179.188 44.6909 178.838 44.8728 178.382 44.994C177.926 45.085 177.424 45.1456 176.877 45.1759C176.329 45.2062 175.904 45.3123 175.6 45.4942C175.235 45.4336 174.855 45.4033 174.459 45.4033C174.095 45.4336 173.714 45.479 173.319 45.5397C172.893 45.6003 172.498 45.6306 172.133 45.6306C171.768 45.6306 171.373 45.5851 170.947 45.4942H170.856C170.339 45.7367 169.883 45.7822 169.488 45.6306C169.123 45.5094 168.789 45.2972 168.484 44.994C168.18 44.6606 167.892 44.2817 167.618 43.8573C167.375 43.4027 167.116 42.9934 166.842 42.6297C166.66 42.3872 166.432 42.0386 166.158 41.5839C165.885 41.1292 165.657 40.6443 165.474 40.1289C165.261 39.6136 165.14 39.0983 165.109 38.583C165.048 38.0374 165.155 37.5676 165.429 37.1735C165.702 36.7795 165.93 36.3551 166.113 35.9004C166.265 35.4457 166.341 34.9153 166.341 34.309C166.341 34.0968 166.341 33.8998 166.341 33.7179C166.31 33.5361 166.295 33.339 166.295 33.1268C166.447 33.1268 166.614 33.142 166.797 33.1723C166.979 33.1723 167.147 33.1723 167.299 33.1723C167.481 33.142 167.618 33.0814 167.709 32.9904C167.831 32.8692 167.892 32.6722 167.892 32.3994C167.892 32.2478 167.831 32.1265 167.709 32.0356C167.618 31.9447 167.557 31.8537 167.527 31.7628C167.709 31.49 167.876 31.2778 168.028 31.1262C168.211 30.9444 168.363 30.7777 168.484 30.6261C168.606 30.4442 168.697 30.2472 168.758 30.035C168.819 29.7925 168.804 29.4742 168.712 29.0802C169.077 28.4436 169.503 27.8828 169.99 27.3978C170.507 26.8825 171.039 26.4127 171.586 25.9883C172.133 25.5337 172.696 25.0941 173.274 24.6698C173.851 24.2454 174.399 23.7907 174.915 23.3057C175.493 23.5482 175.949 23.5482 176.284 23.3057C176.649 23.0632 176.968 22.8056 177.242 22.5327C177.515 22.2296 177.789 21.9871 178.063 21.8053C178.336 21.6234 178.701 21.6992 179.157 22.0326L179.248 22.1235C180.069 21.3051 180.89 20.9414 181.711 21.0323C182.563 21.1232 183.277 21.396 183.855 21.8507C184.463 22.3054 184.859 22.8359 185.041 23.4421C185.223 24.018 185.056 24.4121 184.539 24.6243C184.874 24.9577 185.041 25.3518 185.041 25.8065C185.041 26.2611 184.919 26.6552 184.676 26.9886C184.402 27.3524 184.159 27.7313 183.946 28.1253C183.764 28.4891 183.566 28.8831 183.353 29.3075C183.049 30.0047 182.715 30.6716 182.35 31.3081C181.985 31.9144 181.468 32.4297 180.799 32.854C180.252 32.7025 179.872 32.7631 179.659 33.0359C179.477 33.3087 179.34 33.6118 179.248 33.9453C179.157 34.2484 179.051 34.4909 178.929 34.6728C178.808 34.8546 178.549 34.794 178.154 34.4909L178.063 34.4L177.971 34.4909C177.728 34.7334 177.53 35.0062 177.378 35.3093C177.257 35.6124 177.074 35.8398 176.831 35.9913C176.557 35.9004 176.269 35.8246 175.965 35.764C175.66 35.7034 175.372 35.6427 175.098 35.5821C175.098 36.2187 174.976 36.7188 174.733 37.0826C174.49 37.4463 174.171 37.7494 173.775 37.9919C173.41 38.2041 172.985 38.386 172.498 38.5376C172.012 38.6588 171.525 38.8255 171.039 39.0377C170.583 39.2196 170.142 39.4621 169.716 39.7652C169.321 40.038 169.001 40.4321 168.758 40.9474C169.062 41.2808 169.442 41.4778 169.898 41.5385C170.354 41.5688 170.826 41.5688 171.312 41.5385C171.799 41.4778 172.27 41.4475 172.726 41.4475C173.213 41.4475 173.638 41.5688 174.003 41.8113L174.049 41.8567L174.095 41.8113C174.824 41.7203 175.524 41.5536 176.193 41.3111C176.892 41.0383 177.561 40.7655 178.199 40.4927C178.868 40.1896 179.537 39.9168 180.206 39.6743C180.906 39.4015 181.62 39.2044 182.35 39.0832C182.502 39.3257 182.7 39.4621 182.943 39.4924C183.217 39.5227 183.475 39.5075 183.718 39.4469L183.764 39.356C183.825 39.1438 183.886 38.9619 183.946 38.8104C184.007 38.6285 184.098 38.4315 184.22 38.2193C184.433 37.8858 184.691 37.6282 184.995 37.4463C185.299 37.2645 185.619 37.128 185.953 37.0371C186.318 36.9462 186.698 36.8855 187.093 36.8552C187.489 36.8249 187.884 36.7795 188.279 36.7188H188.371L188.416 36.5824C188.538 36.2187 188.69 35.9762 188.872 35.8549C189.085 35.7034 189.298 35.5973 189.511 35.5367C189.754 35.476 189.997 35.4306 190.241 35.4003C190.514 35.3699 190.773 35.279 191.016 35.1274C191.563 35.3093 192.019 35.2487 192.384 34.9456C192.749 34.6424 193.099 34.3242 193.433 33.9907L193.798 34.4454L193.935 34.2635C194.391 33.8392 194.726 33.5209 194.938 33.3087C195.182 33.0965 195.41 32.9147 195.623 32.7631C195.835 32.5812 196.079 32.4145 196.352 32.2629C196.656 32.0811 197.067 31.8234 197.584 31.49C198.01 31.2172 198.42 30.9444 198.815 30.6716C199.241 30.3988 199.651 30.0956 200.047 29.7622C200.199 29.8228 200.275 29.9441 200.275 30.1259C200.275 30.2775 200.275 30.4291 200.275 30.5806C200.244 30.6412 200.214 30.7322 200.184 30.8534C200.184 30.9747 200.214 31.0656 200.275 31.1262ZM181.392 25.4427C181.362 25.4124 181.331 25.3972 181.301 25.3972C181.301 25.3972 181.286 25.3821 181.255 25.3518C180.617 25.0183 180.085 24.8668 179.659 24.8971C179.233 24.8971 178.838 25.0183 178.473 25.2608C178.139 25.473 177.819 25.761 177.515 26.1247C177.242 26.4582 176.938 26.7764 176.603 27.0796C176.299 27.3524 175.934 27.5646 175.508 27.7161C175.083 27.8677 174.566 27.8525 173.958 27.6707C173.866 28.1557 173.775 28.6406 173.684 29.1256C173.623 29.5803 173.578 30.0502 173.547 30.5352C173.03 30.717 172.62 30.9747 172.316 31.3081C172.042 31.6415 171.799 32.0053 171.586 32.3994C171.404 32.7934 171.221 33.2178 171.039 33.6725C170.887 34.0968 170.674 34.506 170.4 34.9001L170.583 35.1274C170.704 35.0668 170.841 35.1123 170.993 35.2638C171.145 35.4154 171.251 35.5215 171.312 35.5821C171.647 35.0971 172.088 34.6879 172.635 34.3545C173.213 34.021 173.79 33.7179 174.368 33.4451C174.976 33.142 175.554 32.8237 176.101 32.4903C176.649 32.1569 177.059 31.7173 177.333 31.1717C178.306 30.8989 179.036 30.3533 179.522 29.5349C180.009 28.7164 180.419 27.8677 180.754 26.9886C180.814 26.8068 180.921 26.5491 181.073 26.2157C181.255 25.8519 181.362 25.5943 181.392 25.4427Z" fill="white"/>
<path d="M224.22 30.1259C224.251 30.5806 224.159 31.0201 223.947 31.4445C223.764 31.8689 223.597 32.2478 223.445 32.5812L221.985 34.1271L221.119 36.7188C220.784 36.9613 220.419 37.2038 220.024 37.4463C219.659 37.6585 219.325 37.8858 219.021 38.1283C218.686 38.4012 218.382 38.7043 218.108 39.0377C217.865 39.3711 217.592 39.6591 217.287 39.9016C216.983 40.1441 216.619 40.3563 216.193 40.5382C215.798 40.6897 215.433 40.8716 215.098 41.0838C214.49 41.4475 213.912 41.8264 213.365 42.2205C212.848 42.6145 212.301 42.9934 211.723 43.3572C211.571 43.4178 211.449 43.4936 211.358 43.5845C211.297 43.6452 211.191 43.7058 211.039 43.7664C210.948 43.827 210.552 43.9483 209.853 44.1301C209.154 44.312 208.378 44.5242 207.527 44.7667C206.706 44.9789 205.93 45.1759 205.201 45.3578C204.471 45.5397 204.06 45.6306 203.969 45.6306C203.422 45.6912 202.859 45.7215 202.282 45.7215C201.704 45.7215 201.126 45.7367 200.548 45.767L199.864 46.1762C199.53 45.9337 199.165 45.7064 198.77 45.4942C198.374 45.282 198.04 45.0547 197.766 44.8122C197.462 44.5394 197.158 44.2362 196.854 43.9028C196.55 43.5391 196.276 43.2056 196.033 42.9025C195.881 42.4781 195.729 42.0689 195.577 41.6749C195.425 41.2505 195.303 40.8413 195.212 40.4472L194.984 38.7194C194.923 38.1435 194.862 37.5827 194.802 37.0371C194.771 36.4915 194.726 35.9307 194.665 35.3548C195.182 33.9301 195.638 32.5054 196.033 31.0808C196.459 29.6258 196.976 28.2011 197.584 26.8068C197.736 26.4733 197.873 26.1399 197.994 25.8065C198.146 25.4427 198.298 25.0941 198.45 24.7607C198.633 24.3969 198.83 24.0635 199.043 23.7604C199.256 23.427 199.439 23.0935 199.591 22.7601C199.743 22.3963 199.864 22.0326 199.956 21.6689C200.047 21.2748 200.168 20.911 200.32 20.5776C200.412 20.3957 200.564 20.1381 200.777 19.8047C200.989 19.4409 201.217 19.0772 201.461 18.7134C201.704 18.3194 201.932 17.9405 202.145 17.5767C202.388 17.213 202.586 16.925 202.738 16.7128C202.981 16.4097 203.224 16.1217 203.468 15.8489C203.711 15.5761 203.908 15.273 204.06 14.9396C204.365 14.4242 204.653 13.7725 204.927 12.9844C205.201 12.1963 205.505 11.4991 205.839 10.8929C206.204 10.226 206.63 9.60462 207.116 9.02869C207.633 8.42245 208.105 7.80105 208.53 7.16449C208.986 6.52794 209.427 5.83076 209.853 5.07295L211.86 3.61797L212.772 4.52734L214.961 4.16359L216.33 6.20966C216.269 6.66434 216.193 7.17965 216.102 7.75558C216.041 8.33151 215.98 8.9226 215.919 9.52884C215.889 10.1048 215.858 10.6807 215.828 11.2566C215.828 11.8022 215.858 12.2872 215.919 12.7116C215.767 13.2572 215.539 13.8332 215.235 14.4394C214.961 15.0153 214.642 15.5155 214.277 15.9399L214.095 18.3951L212.27 20.032L212.042 22.3509L210.492 24.1696C210.4 24.594 210.309 25.0335 210.218 25.4882C210.127 25.9126 210.005 26.3218 209.853 26.7158C209.701 27.0796 209.519 27.4585 209.306 27.8525C209.093 28.2163 208.88 28.5952 208.667 28.9892C208.059 29.5045 207.436 30.0805 206.797 30.717C206.159 31.3536 205.581 31.9901 205.064 32.6267C204.79 32.9601 204.532 33.3239 204.289 33.7179C204.076 34.0817 203.848 34.4303 203.604 34.7637C202.814 35.764 201.962 36.7037 201.05 37.5827C200.138 38.4618 199.241 39.3711 198.359 40.3108L199.363 42.0841C200.001 42.2963 200.655 42.4933 201.324 42.6752C201.993 42.857 202.662 43.0238 203.331 43.1753C203.635 43.1147 203.984 43.0541 204.38 42.9934C204.775 42.9025 205.186 42.8116 205.611 42.7206C206.037 42.5994 206.447 42.4781 206.843 42.3569C207.268 42.2356 207.618 42.1144 207.892 41.9931C208.5 41.7506 209.199 41.4021 209.99 40.9474C210.78 40.4624 211.449 40.038 211.997 39.6743C212.97 39.068 213.958 38.4466 214.961 37.8101C215.965 37.1735 216.923 36.5066 217.835 35.8095C218.443 35.3548 219.081 34.7789 219.75 34.0817C220.419 33.3845 221.043 32.7328 221.62 32.1265C222.229 31.49 222.761 30.9747 223.217 30.5806C223.703 30.1866 224.038 30.035 224.22 30.1259ZM211.814 8.61947C211.176 9.6804 210.492 10.711 209.762 11.7113C209.062 12.6813 208.409 13.6968 207.801 14.7577C207.588 15.1214 207.405 15.5003 207.253 15.8944C207.101 16.2581 206.904 16.6219 206.66 16.9856C206.447 17.3191 206.219 17.6525 205.976 17.9859C205.733 18.3194 205.52 18.6831 205.338 19.0772C204.973 19.7743 204.638 20.517 204.334 21.3051C204.06 22.0629 203.756 22.8056 203.422 23.5331C203.057 24.2605 202.631 24.9426 202.145 25.5791C201.658 26.2157 201.217 26.8977 200.822 27.6252L200.092 29.0802C200.032 29.2317 199.971 29.353 199.91 29.4439C199.849 29.5045 199.788 29.6106 199.727 29.7622C199.606 30.0956 199.545 30.4594 199.545 30.8534C199.545 31.2475 199.499 31.6112 199.408 31.9447C199.317 32.3084 199.18 32.657 198.998 32.9904C198.815 33.3239 198.648 33.6573 198.496 33.9907C198.344 34.3242 198.222 34.6728 198.131 35.0365C198.04 35.3699 197.933 35.7034 197.812 36.0368C198.055 35.7943 198.314 35.5821 198.587 35.4003C198.891 35.1881 199.18 34.9607 199.454 34.7182C199.727 34.4454 199.986 34.1575 200.229 33.8543C200.472 33.5512 200.746 33.2784 201.05 33.0359C201.324 32.7934 201.613 32.5812 201.917 32.3994C202.251 32.1872 202.571 31.975 202.875 31.7628C203.361 31.0959 203.787 30.4139 204.152 29.7167C204.334 29.3833 204.486 29.0044 204.608 28.58C204.76 28.1557 204.942 27.7768 205.155 27.4433C205.338 27.1099 205.566 26.7916 205.839 26.4885C206.143 26.1854 206.402 25.8671 206.615 25.5337C206.858 25.2002 207.056 24.8516 207.208 24.4879C207.39 24.1241 207.588 23.7755 207.801 23.4421C208.226 22.7752 208.698 22.1387 209.214 21.5324L209.442 18.668L211.084 16.7583L211.313 15.0305L212.453 13.4391L212.59 10.8929L211.814 8.61947Z" fill="white"/>
<path d="M248.667 30.1259C248.698 30.5806 248.607 31.0201 248.394 31.4445C248.211 31.8689 248.044 32.2478 247.892 32.5812L246.432 34.1271L245.566 36.7188C245.231 36.9613 244.866 37.2038 244.471 37.4463C244.106 37.6585 243.772 37.8858 243.468 38.1283C243.133 38.4012 242.829 38.7043 242.556 39.0377C242.312 39.3711 242.039 39.6591 241.735 39.9016C241.431 40.1441 241.066 40.3563 240.64 40.5382C240.245 40.6897 239.88 40.8716 239.545 41.0838C238.937 41.4475 238.359 41.8264 237.812 42.2205C237.295 42.6145 236.748 42.9934 236.17 43.3572C236.018 43.4178 235.896 43.4936 235.805 43.5845C235.744 43.6452 235.638 43.7058 235.486 43.7664C235.395 43.827 234.999 43.9483 234.3 44.1301C233.601 44.312 232.825 44.5242 231.974 44.7667C231.153 44.9789 230.378 45.1759 229.648 45.3578C228.918 45.5397 228.508 45.6306 228.416 45.6306C227.869 45.6912 227.307 45.7215 226.729 45.7215C226.151 45.7215 225.573 45.7367 224.996 45.767L224.311 46.1762C223.977 45.9337 223.612 45.7064 223.217 45.4942C222.822 45.282 222.487 45.0547 222.213 44.8122C221.909 44.5394 221.605 44.2362 221.301 43.9028C220.997 43.5391 220.723 43.2056 220.48 42.9025C220.328 42.4781 220.176 42.0689 220.024 41.6749C219.872 41.2505 219.75 40.8413 219.659 40.4472L219.431 38.7194C219.37 38.1435 219.31 37.5827 219.249 37.0371C219.218 36.4915 219.173 35.9307 219.112 35.3548C219.629 33.9301 220.085 32.5054 220.48 31.0808C220.906 29.6258 221.423 28.2011 222.031 26.8068C222.183 26.4733 222.32 26.1399 222.441 25.8065C222.593 25.4427 222.745 25.0941 222.898 24.7607C223.08 24.3969 223.278 24.0635 223.49 23.7604C223.703 23.427 223.886 23.0935 224.038 22.7601C224.19 22.3963 224.311 22.0326 224.403 21.6689C224.494 21.2748 224.616 20.911 224.768 20.5776C224.859 20.3957 225.011 20.1381 225.224 19.8047C225.437 19.4409 225.665 19.0772 225.908 18.7134C226.151 18.3194 226.379 17.9405 226.592 17.5767C226.835 17.213 227.033 16.925 227.185 16.7128C227.428 16.4097 227.671 16.1217 227.915 15.8489C228.158 15.5761 228.356 15.273 228.508 14.9396C228.812 14.4242 229.101 13.7725 229.374 12.9844C229.648 12.1963 229.952 11.4991 230.286 10.8929C230.651 10.226 231.077 9.60462 231.563 9.02869C232.08 8.42245 232.552 7.80105 232.977 7.16449C233.434 6.52794 233.874 5.83076 234.3 5.07295L236.307 3.61797L237.219 4.52734L239.408 4.16359L240.777 6.20966C240.716 6.66434 240.64 7.17965 240.549 7.75558C240.488 8.33151 240.427 8.9226 240.366 9.52884C240.336 10.1048 240.305 10.6807 240.275 11.2566C240.275 11.8022 240.305 12.2872 240.366 12.7116C240.214 13.2572 239.986 13.8332 239.682 14.4394C239.408 15.0153 239.089 15.5155 238.724 15.9399L238.542 18.3951L236.717 20.032L236.489 22.3509L234.939 24.1696C234.847 24.594 234.756 25.0335 234.665 25.4882C234.574 25.9126 234.452 26.3218 234.3 26.7158C234.148 27.0796 233.966 27.4585 233.753 27.8525C233.54 28.2163 233.327 28.5952 233.114 28.9892C232.506 29.5045 231.883 30.0805 231.244 30.717C230.606 31.3536 230.028 31.9901 229.511 32.6267C229.237 32.9601 228.979 33.3239 228.736 33.7179C228.523 34.0817 228.295 34.4303 228.051 34.7637C227.261 35.764 226.41 36.7037 225.497 37.5827C224.585 38.4618 223.688 39.3711 222.806 40.3108L223.81 42.0841C224.448 42.2963 225.102 42.4933 225.771 42.6752C226.44 42.857 227.109 43.0238 227.778 43.1753C228.082 43.1147 228.432 43.0541 228.827 42.9934C229.222 42.9025 229.633 42.8116 230.058 42.7206C230.484 42.5994 230.895 42.4781 231.29 42.3569C231.716 42.2356 232.065 42.1144 232.339 41.9931C232.947 41.7506 233.646 41.4021 234.437 40.9474C235.228 40.4624 235.896 40.038 236.444 39.6743C237.417 39.068 238.405 38.4466 239.408 37.8101C240.412 37.1735 241.37 36.5066 242.282 35.8095C242.89 35.3548 243.529 34.7789 244.198 34.0817C244.866 33.3845 245.49 32.7328 246.068 32.1265C246.676 31.49 247.208 30.9747 247.664 30.5806C248.15 30.1866 248.485 30.035 248.667 30.1259ZM236.261 8.61947C235.623 9.6804 234.939 10.711 234.209 11.7113C233.51 12.6813 232.856 13.6968 232.248 14.7577C232.035 15.1214 231.852 15.5003 231.7 15.8944C231.548 16.2581 231.351 16.6219 231.107 16.9856C230.895 17.3191 230.666 17.6525 230.423 17.9859C230.18 18.3194 229.967 18.6831 229.785 19.0772C229.42 19.7743 229.085 20.517 228.781 21.3051C228.508 22.0629 228.204 22.8056 227.869 23.5331C227.504 24.2605 227.078 24.9426 226.592 25.5791C226.105 26.2157 225.665 26.8977 225.269 27.6252L224.54 29.0802C224.479 29.2317 224.418 29.353 224.357 29.4439C224.296 29.5045 224.235 29.6106 224.175 29.7622C224.053 30.0956 223.992 30.4594 223.992 30.8534C223.992 31.2475 223.947 31.6112 223.855 31.9447C223.764 32.3084 223.627 32.657 223.445 32.9904C223.262 33.3239 223.095 33.6573 222.943 33.9907C222.791 34.3242 222.669 34.6728 222.578 35.0365C222.487 35.3699 222.381 35.7034 222.259 36.0368C222.502 35.7943 222.761 35.5821 223.034 35.4003C223.338 35.1881 223.627 34.9607 223.901 34.7182C224.175 34.4454 224.433 34.1575 224.676 33.8543C224.92 33.5512 225.193 33.2784 225.497 33.0359C225.771 32.7934 226.06 32.5812 226.364 32.3994C226.698 32.1872 227.018 31.975 227.322 31.7628C227.808 31.0959 228.234 30.4139 228.599 29.7167C228.781 29.3833 228.933 29.0044 229.055 28.58C229.207 28.1557 229.389 27.7768 229.602 27.4433C229.785 27.1099 230.013 26.7916 230.286 26.4885C230.59 26.1854 230.849 25.8671 231.062 25.5337C231.305 25.2002 231.503 24.8516 231.655 24.4879C231.837 24.1241 232.035 23.7755 232.248 23.4421C232.673 22.7752 233.145 22.1387 233.662 21.5324L233.89 18.668L235.532 16.7583L235.76 15.0305L236.9 13.4391L237.037 10.8929L236.261 8.61947Z" fill="white"/>
<path d="M255.144 16.6673C254.597 16.8795 254.293 17.1978 254.232 17.6222C254.171 18.0466 254.141 18.4861 254.141 18.9408C254.171 19.3954 254.156 19.8198 254.095 20.2139C254.034 20.6079 253.73 20.8656 253.183 20.9868C252.97 20.6231 252.696 20.2896 252.362 19.9865C252.058 19.6531 251.754 19.3348 251.45 19.0317C251.146 18.6983 250.902 18.3497 250.72 17.9859C250.537 17.6222 250.477 17.1827 250.537 16.6673L252.818 14.0302C253.183 14.1514 253.472 14.303 253.684 14.4849C253.897 14.6667 254.08 14.8789 254.232 15.1214C254.384 15.3639 254.521 15.6216 254.642 15.8944C254.794 16.1369 254.962 16.3945 255.144 16.6673ZM263.992 37.0371C264.023 37.704 263.962 38.1738 263.81 38.4466C263.688 38.7194 263.536 38.9468 263.354 39.1286C263.171 39.2802 263.004 39.4621 262.852 39.6743C262.731 39.8561 262.67 40.1896 262.67 40.6746C261.97 41.4324 261.408 41.9931 260.982 42.3569C260.556 42.6903 260.146 42.9783 259.751 43.2208C259.355 43.433 258.914 43.6755 258.428 43.9483C257.941 44.2211 257.272 44.6455 256.421 45.2214L256.102 45.2669C256.011 45.7215 255.843 45.9792 255.6 46.0398C255.387 46.1308 255.129 46.1762 254.825 46.1762C254.551 46.1762 254.277 46.2065 254.004 46.2672C253.73 46.3278 253.502 46.5854 253.32 47.0401C252.803 47.1917 252.362 47.2523 251.997 47.222C251.632 47.1917 251.161 47.1765 250.583 47.1765C250.401 47.1765 250.157 47.1614 249.853 47.1311C249.58 47.1007 249.352 47.1159 249.169 47.1765C249.047 47.2068 248.911 47.2826 248.759 47.4039C248.637 47.5554 248.5 47.6767 248.348 47.7676C248.196 47.8585 248.044 47.8889 247.892 47.8585C247.74 47.8585 247.603 47.7373 247.481 47.4948C247.117 47.5857 246.782 47.5857 246.478 47.4948C246.174 47.4039 245.885 47.2523 245.611 47.0401C245.338 46.8279 245.079 46.5703 244.836 46.2672C244.623 45.9943 244.41 45.7367 244.198 45.4942C244.046 45.3123 243.878 45.1456 243.696 44.994C243.513 44.8425 243.346 44.6909 243.194 44.5394C242.86 44.2059 242.616 43.7816 242.464 43.2663C242.312 42.7509 242.221 42.2205 242.191 41.6749C242.16 41.1292 242.175 40.5836 242.236 40.038C242.297 39.4924 242.388 39.0074 242.51 38.583C242.784 38.3102 242.981 38.0071 243.103 37.6737C243.194 37.3099 243.27 36.9462 243.331 36.5824C243.422 36.2187 243.513 35.8701 243.605 35.5367C243.726 35.1729 243.924 34.8546 244.198 34.5818C244.198 34.1878 244.258 33.824 244.38 33.4906C244.532 33.1572 244.714 32.8389 244.927 32.5358C245.171 32.2326 245.429 31.9598 245.703 31.7173C246.007 31.4445 246.28 31.1869 246.524 30.9444C246.767 30.9444 247.01 30.9444 247.253 30.9444C247.497 30.9141 247.725 30.9292 247.938 30.9898C248.15 31.0201 248.333 31.1111 248.485 31.2626C248.637 31.3839 248.759 31.5961 248.85 31.8992C249.063 32.7176 249.002 33.3845 248.667 33.8998C248.363 34.3848 248.014 34.8546 247.618 35.3093C247.223 35.764 246.904 36.2338 246.66 36.7188C246.417 37.2038 246.478 37.8252 246.843 38.583C246.508 38.583 246.28 38.674 246.159 38.8558C246.068 39.0377 245.992 39.2499 245.931 39.4924C245.9 39.7046 245.84 39.9168 245.748 40.1289C245.657 40.3411 245.475 40.4927 245.201 40.5836C245.383 40.7655 245.475 41.0838 245.475 41.5385C245.505 41.9931 245.551 42.4327 245.611 42.857C245.703 43.2511 245.84 43.5694 246.022 43.8119C246.235 44.0544 246.615 44.0695 247.162 43.8573C247.557 44.1908 248.029 44.3272 248.576 44.2666C249.154 44.2059 249.686 44.1908 250.172 44.2211C250.598 43.9483 250.963 43.8119 251.267 43.8119C251.571 43.7816 251.86 43.8119 252.134 43.9028C252.407 43.9634 252.696 44.0241 253 44.0847C253.304 44.1453 253.669 44.0998 254.095 43.9483C254.217 43.433 254.429 43.1299 254.734 43.0389C255.038 42.948 255.342 42.9025 255.646 42.9025C255.95 42.8722 256.223 42.8116 256.467 42.7206C256.74 42.6297 256.923 42.3266 257.014 41.8113C257.257 41.5082 257.546 41.3414 257.881 41.3111C258.215 41.2505 258.55 41.1899 258.884 41.1292C259.249 41.0686 259.568 40.9474 259.842 40.7655C260.146 40.5533 260.359 40.1593 260.48 39.5833C260.997 39.1893 261.362 38.9013 261.575 38.7194C261.818 38.5072 262.016 38.3405 262.168 38.2193C262.32 38.098 262.518 37.9616 262.761 37.8101C263.004 37.6585 263.415 37.4009 263.992 37.0371Z" fill="white"/>
</svg>
