<svg width="159" height="128" viewBox="0 0 159 128" fill="none" xmlns="http://www.w3.org/2000/svg">
<path d="M0 128V93.2535C0 82.5229 1.86262 71.4518 5.58786 60.0399C9.48243 48.4577 14.8163 37.4717 21.5895 27.0818C28.5319 16.5216 36.4058 7.49434 45.2109 0L75.6901 19.1617C68.9169 29.8922 63.3291 41.2189 58.9265 53.1417C54.6933 64.8942 52.5767 78.1796 52.5767 92.998V128H0ZM83.3099 128V93.2535C83.3099 82.5229 85.1725 71.4518 88.8978 60.0399C92.7923 48.4577 98.1262 37.4717 104.899 27.0818C111.842 16.5216 119.716 7.49434 128.521 0L159 19.1617C152.227 29.8922 146.639 41.2189 142.236 53.1417C138.003 64.8942 135.887 78.1796 135.887 92.998V128H83.3099Z" fill="#0EA5E9"/>
</svg>
