<svg width="112" height="33" viewBox="0 0 112 33" fill="none" xmlns="http://www.w3.org/2000/svg">
<path d="M8.64 32.04C5.81333 32.04 3.66667 31.16 2.2 29.4C0.733333 27.64 0 25.2667 0 22.28V11.08C0 8.09333 0.733333 5.72 2.2 3.96C3.66667 2.2 5.81333 1.32 8.64 1.32C11.36 1.32 13.44 2.14667 14.88 3.8C16.3467 5.45333 17.08 7.65333 17.08 10.4C17.08 10.8 16.9333 11 16.64 11H12.6C12.2267 11 12.0267 10.8133 12 10.44C11.9467 9.53334 11.8267 8.78667 11.64 8.2C11.48 7.61333 11.1467 7.13333 10.64 6.76C10.1333 6.36 9.46667 6.16 8.64 6.16C6.37333 6.16 5.24 7.58667 5.24 10.44V22.92C5.24 25.7733 6.37333 27.2 8.64 27.2C9.84 27.2 10.68 26.84 11.16 26.12C11.64 25.3733 11.92 24.3067 12 22.92C12.0267 22.5467 12.2267 22.36 12.6 22.36H16.64C16.9333 22.36 17.08 22.56 17.08 22.96C17.08 25.7067 16.3467 27.9067 14.88 29.56C13.44 31.2133 11.36 32.04 8.64 32.04Z" fill="white"/>
<path d="M27.2009 32.04C26.2409 32.04 25.3343 31.8933 24.4809 31.6C23.6276 31.28 22.8276 30.7867 22.0809 30.12C21.3343 29.4267 20.7476 28.4533 20.3209 27.2C19.8943 25.9467 19.6809 24.48 19.6809 22.8V18.92C19.6809 17.2133 19.8943 15.7333 20.3209 14.48C20.7476 13.2267 21.3343 12.2667 22.0809 11.6C22.8276 10.9333 23.6276 10.44 24.4809 10.12C25.3343 9.8 26.2409 9.64 27.2009 9.64C28.1076 9.64 28.9609 9.78667 29.7609 10.08C30.5609 10.3467 31.3343 10.7867 32.0809 11.4C32.8276 11.9867 33.4143 12.8533 33.8409 14C34.2676 15.1467 34.4809 16.5067 34.4809 18.08C34.4809 18.9867 34.4409 19.9467 34.3609 20.96C34.3343 21.2 34.2676 21.3733 34.1609 21.48C34.0809 21.56 33.9209 21.6 33.6809 21.6H24.8809C24.6143 21.6 24.4809 21.7467 24.4809 22.04V24.48C24.4809 25.4933 24.7476 26.2933 25.2809 26.88C25.8143 27.44 26.4676 27.72 27.2409 27.72C27.6676 27.72 28.0676 27.6133 28.4409 27.4C28.8143 27.16 29.1209 26.84 29.3609 26.44C29.6009 26.04 29.7476 25.5867 29.8009 25.08C29.8543 24.7867 30.0409 24.64 30.3609 24.64H33.7609C34.1076 24.64 34.2543 24.84 34.2009 25.24C34.0943 26.4933 33.8143 27.5867 33.3609 28.52C32.9076 29.4533 32.3343 30.1733 31.6409 30.68C30.9476 31.16 30.2276 31.5067 29.4809 31.72C28.7609 31.9333 28.0009 32.04 27.2009 32.04ZM24.8809 18.36H29.8809C30.1476 18.36 30.2809 18.24 30.2809 18V16.96C30.2809 15.9467 29.9876 15.16 29.4009 14.6C28.8409 14.0133 28.1609 13.72 27.3609 13.72C26.5876 13.72 25.9076 14.0133 25.3209 14.6C24.7609 15.16 24.4809 15.9467 24.4809 16.96V18C24.4809 18.24 24.6143 18.36 24.8809 18.36Z" fill="white"/>
<path d="M38.26 31.68C37.8067 31.68 37.58 31.4533 37.58 31V10.72C37.58 10.2667 37.8067 10.04 38.26 10.04H40.94C41.1 10.04 41.22 10.0667 41.3 10.12C41.4067 10.1733 41.4867 10.2533 41.54 10.36C41.5933 10.4667 41.6333 10.6 41.66 10.76L41.82 11.76C41.8467 11.92 41.9133 12.0133 42.02 12.04C42.1267 12.04 42.22 11.9867 42.3 11.88C43.5533 10.3867 45.1933 9.64 47.22 9.64C47.6733 9.64 47.9 9.86667 47.9 10.32V13.6C47.9 14.0533 47.6733 14.28 47.22 14.28C46.2867 14.3067 45.46 14.52 44.74 14.92C44.0467 15.2933 43.5 15.8533 43.1 16.6C42.7 17.32 42.5 18.2 42.5 19.24V31C42.5 31.4533 42.2733 31.68 41.82 31.68H38.26Z" fill="white"/>
<path d="M56.5581 31.68C56.3181 31.68 56.1448 31.64 56.0381 31.56C55.9315 31.48 55.8248 31.3067 55.7181 31.04L48.9581 10.68C48.8248 10.2533 48.9715 10.04 49.3981 10.04H53.1981C53.5715 10.04 53.8248 10.2533 53.9581 10.68L57.6381 22.92C57.6648 23.0533 57.7315 23.12 57.8381 23.12C57.9715 23.12 58.0515 23.0533 58.0781 22.92L61.7581 10.68C61.8915 10.2533 62.1448 10.04 62.5181 10.04H66.3181C66.7448 10.04 66.8915 10.2533 66.7581 10.68L59.9981 31.04C59.8915 31.3067 59.7848 31.48 59.6781 31.56C59.5715 31.64 59.3981 31.68 59.1581 31.68H56.5581Z" fill="white"/>
<path d="M71.8262 5.92C71.2662 5.92 70.7596 5.78667 70.3063 5.52C69.8529 5.25333 69.4929 4.89333 69.2262 4.44C68.9596 3.98667 68.8262 3.49333 68.8262 2.96C68.8262 2.13333 69.1196 1.44 69.7063 0.880001C70.2929 0.293334 70.9996 0 71.8262 0C72.6262 0 73.3196 0.293334 73.9062 0.880001C74.4929 1.46667 74.7862 2.17333 74.7862 3C74.7862 3.8 74.4929 4.49333 73.9062 5.08C73.3196 5.64 72.6262 5.92 71.8262 5.92ZM70.0263 31.68C69.5729 31.68 69.3463 31.4533 69.3463 31V10.72C69.3463 10.2667 69.5729 10.04 70.0263 10.04H73.5863C74.0396 10.04 74.2663 10.2667 74.2663 10.72V31C74.2663 31.4533 74.0396 31.68 73.5863 31.68H70.0263Z" fill="white"/>
<path d="M78.7678 31.68C78.3145 31.68 78.0878 31.4533 78.0878 31V10.72C78.0878 10.2667 78.3145 10.04 78.7678 10.04H81.4478C81.8478 10.04 82.0878 10.28 82.1678 10.76L82.2878 11.56C82.3145 11.72 82.3678 11.8133 82.4478 11.84C82.5545 11.8667 82.6611 11.8267 82.7678 11.72C83.9678 10.3333 85.4745 9.64 87.2878 9.64C89.0745 9.64 90.5278 10.2533 91.6478 11.48C92.7678 12.68 93.3278 14.2933 93.3278 16.32V31C93.3278 31.4533 93.1145 31.68 92.6878 31.68H89.0878C88.6345 31.68 88.4078 31.4533 88.4078 31V17.24C88.4078 16.7067 88.3278 16.2267 88.1678 15.8C88.0345 15.3733 87.8345 15.04 87.5678 14.8C87.3278 14.5333 87.0478 14.3333 86.7278 14.2C86.4078 14.0667 86.0745 14 85.7278 14C84.9811 14 84.3411 14.28 83.8078 14.84C83.2745 15.4 83.0078 16.1467 83.0078 17.08V31C83.0078 31.4533 82.7811 31.68 82.3278 31.68H78.7678Z" fill="white"/>
<path d="M106.76 31.6C105.906 31.8933 105 32.04 104.04 32.04C103.106 32.04 102.2 31.8933 101.32 31.6C100.466 31.28 99.653 30.8 98.8797 30.16C98.133 29.52 97.533 28.64 97.0797 27.52C96.6264 26.4 96.3997 25.0933 96.3997 23.6V18.08C96.3997 16.6133 96.6264 15.32 97.0797 14.2C97.533 13.0533 98.133 12.1733 98.8797 11.56C99.653 10.92 100.466 10.44 101.32 10.12C102.2 9.8 103.106 9.64 104.04 9.64C105 9.64 105.906 9.8 106.76 10.12C107.64 10.44 108.453 10.92 109.2 11.56C109.973 12.1733 110.586 13.0533 111.04 14.2C111.493 15.32 111.72 16.6133 111.72 18.08V23.6C111.72 25.0933 111.493 26.4 111.04 27.52C110.586 28.64 109.973 29.52 109.2 30.16C108.453 30.8 107.64 31.28 106.76 31.6ZM104.08 27.72C104.853 27.72 105.493 27.44 106 26.88C106.533 26.2933 106.8 25.4933 106.8 24.48V17.24C106.8 16.2 106.533 15.4 106 14.84C105.493 14.28 104.84 14 104.04 14C103.266 14 102.613 14.28 102.08 14.84C101.573 15.4 101.32 16.2 101.32 17.24V24.48C101.32 25.1733 101.44 25.7733 101.68 26.28C101.946 26.76 102.28 27.12 102.68 27.36C103.106 27.6 103.573 27.72 104.08 27.72Z" fill="white"/>
</svg>
