<svg width="110" height="29" viewBox="0 0 110 29" fill="none" xmlns="http://www.w3.org/2000/svg">
<path d="M7.397 22.296C6.32233 22.296 5.36467 22.1487 4.524 21.854C3.68333 21.5507 2.95967 21.1824 2.353 20.749C1.74633 20.3157 1.248 19.891 0.858 19.475C0.468 19.0504 0.182 18.7167 0 18.474L1.443 16.42C1.64233 16.6627 1.911 16.9747 2.249 17.356C2.587 17.7374 3.003 18.1187 3.497 18.5C3.991 18.8814 4.56733 19.202 5.226 19.462C5.88467 19.722 6.63 19.852 7.462 19.852C8.25067 19.852 8.96567 19.7134 9.607 19.436C10.2483 19.1587 10.7597 18.747 11.141 18.201C11.531 17.655 11.726 16.979 11.726 16.173C11.726 15.4884 11.5873 14.9077 11.31 14.431C11.0327 13.9457 10.647 13.5297 10.153 13.183C9.659 12.8364 9.08267 12.52 8.424 12.234C7.76533 11.9394 7.05467 11.6447 6.292 11.35C5.75467 11.1334 5.20867 10.882 4.654 10.596C4.09933 10.3014 3.588 9.94604 3.12 9.53004C2.652 9.10537 2.275 8.60271 1.989 8.02204C1.703 7.44137 1.56 6.75671 1.56 5.96804C1.56 5.17071 1.71167 4.41671 2.015 3.70604C2.31833 2.99537 2.74733 2.36704 3.302 1.82104C3.85667 1.26637 4.51533 0.833038 5.278 0.521038C6.04933 0.200372 6.903 0.0400391 7.839 0.0400391C8.671 0.0400391 9.45533 0.170039 10.192 0.430039C10.9373 0.690038 11.6003 1.02371 12.181 1.43104C12.7617 1.82971 13.2253 2.25004 13.572 2.69204L12.337 4.62904C12.051 4.25637 11.687 3.90537 11.245 3.57604C10.803 3.23804 10.296 2.96504 9.724 2.75704C9.152 2.54904 8.53667 2.44504 7.878 2.44504C7.072 2.44504 6.38733 2.61404 5.824 2.95204C5.26933 3.28137 4.84467 3.71037 4.55 4.23904C4.25533 4.76771 4.108 5.33104 4.108 5.92904C4.108 6.46637 4.21633 6.92137 4.433 7.29404C4.65833 7.66671 4.95733 7.98304 5.33 8.24304C5.70267 8.50304 6.123 8.73271 6.591 8.93204C7.059 9.13137 7.54 9.32204 8.034 9.50404C8.918 9.85071 9.75433 10.2104 10.543 10.583C11.3317 10.947 12.025 11.376 12.623 11.87C13.221 12.3554 13.689 12.9404 14.027 13.625C14.3737 14.3097 14.547 15.1374 14.547 16.108C14.547 17.4167 14.235 18.5347 13.611 19.462C12.9957 20.3807 12.1507 21.0827 11.076 21.568C10.0013 22.0534 8.775 22.296 7.397 22.296Z" fill="white"/>
<path d="M19.061 28.64V8.56804H21.583V10.986C22.1204 10.0934 22.844 9.40004 23.754 8.90604C24.6727 8.40337 25.6824 8.15204 26.783 8.15204C28.0657 8.15204 29.2054 8.45971 30.202 9.07504C31.2074 9.69037 32.0004 10.531 32.581 11.597C33.1617 12.6544 33.452 13.8634 33.452 15.224C33.452 16.5674 33.1617 17.7764 32.581 18.851C32.009 19.917 31.2247 20.7577 30.228 21.373C29.2314 21.9884 28.1004 22.296 26.835 22.296C25.743 22.296 24.7377 22.0404 23.819 21.529C22.9004 21.0177 22.155 20.3027 21.583 19.384V28.64H19.061ZM26.172 20.125C27.0734 20.125 27.875 19.917 28.577 19.501C29.279 19.0764 29.8294 18.4957 30.228 17.759C30.6267 17.0224 30.826 16.1817 30.826 15.237C30.826 14.2837 30.6224 13.4387 30.215 12.702C29.8164 11.9567 29.266 11.376 28.564 10.96C27.8707 10.5354 27.0734 10.323 26.172 10.323C25.2707 10.323 24.4647 10.5354 23.754 10.96C23.052 11.376 22.4974 11.9524 22.09 12.689C21.6914 13.4257 21.492 14.2707 21.492 15.224C21.492 16.1774 21.6914 17.0224 22.09 17.759C22.4974 18.4957 23.052 19.0764 23.754 19.501C24.4647 19.917 25.2707 20.125 26.172 20.125Z" fill="white"/>
<path d="M43.4413 22.296C42.202 22.296 41.0797 21.9927 40.0743 21.386C39.0777 20.7707 38.2847 19.93 37.6953 18.864C37.1147 17.798 36.8243 16.5804 36.8243 15.211C36.8243 13.859 37.1103 12.6544 37.6823 11.597C38.2543 10.531 39.0387 9.69037 40.0353 9.07504C41.032 8.45971 42.1673 8.15204 43.4413 8.15204C44.568 8.15204 45.595 8.40337 46.5223 8.90604C47.4583 9.40871 48.182 10.1064 48.6933 10.999V8.56804H51.2153V21.88H48.6933V19.384C48.1127 20.3027 47.3673 21.0177 46.4573 21.529C45.5473 22.0404 44.542 22.296 43.4413 22.296ZM44.1173 20.125C45.0273 20.125 45.829 19.917 46.5223 19.501C47.2243 19.0764 47.7747 18.4957 48.1733 17.759C48.572 17.0224 48.7713 16.1774 48.7713 15.224C48.7713 14.2707 48.572 13.4257 48.1733 12.689C47.7747 11.9524 47.2243 11.376 46.5223 10.96C45.829 10.5354 45.0273 10.323 44.1173 10.323C43.216 10.323 42.4143 10.5354 41.7123 10.96C41.0103 11.376 40.4557 11.9524 40.0483 12.689C39.6497 13.4257 39.4503 14.2707 39.4503 15.224C39.4503 16.1687 39.6497 17.0137 40.0483 17.759C40.4557 18.4957 41.0103 19.0764 41.7123 19.501C42.4143 19.917 43.216 20.125 44.1173 20.125Z" fill="white"/>
<path d="M56.5376 21.88V8.56804H59.0596V10.518C59.5016 9.74671 60.0649 9.16171 60.7496 8.76304C61.4343 8.35571 62.2099 8.15204 63.0766 8.15204C63.4926 8.15204 63.9129 8.20404 64.3376 8.30804C64.7709 8.40337 65.1436 8.53337 65.4556 8.69804L64.4156 10.83C64.1469 10.6827 63.8349 10.5657 63.4796 10.479C63.1243 10.3924 62.7906 10.349 62.4786 10.349C61.8979 10.349 61.3433 10.5007 60.8146 10.804C60.2946 11.0987 59.8699 11.4844 59.5406 11.961C59.2199 12.4377 59.0596 12.949 59.0596 13.495V21.88H56.5376Z" fill="white"/>
<path d="M72.2648 22.296C71.1728 22.296 70.3234 21.9364 69.7168 21.217C69.1101 20.489 68.8068 19.4707 68.8068 18.162V10.479H67.3248V8.56804H68.8068V3.58904H71.3288V8.56804H74.5268V10.479H71.3288V18.006C71.3288 18.6647 71.4588 19.1717 71.7188 19.527C71.9788 19.8824 72.3514 20.06 72.8368 20.06C73.3221 20.06 73.7554 19.917 74.1368 19.631L74.7738 21.646C74.4358 21.8454 74.0414 22.0014 73.5908 22.114C73.1488 22.2354 72.7068 22.296 72.2648 22.296Z" fill="white"/>
<path d="M84.2948 22.296C83.0555 22.296 81.9332 21.9927 80.9278 21.386C79.9312 20.7707 79.1382 19.93 78.5488 18.864C77.9682 17.798 77.6778 16.5804 77.6778 15.211C77.6778 13.859 77.9638 12.6544 78.5358 11.597C79.1078 10.531 79.8922 9.69037 80.8888 9.07504C81.8855 8.45971 83.0208 8.15204 84.2948 8.15204C85.4215 8.15204 86.4485 8.40337 87.3758 8.90604C88.3118 9.40871 89.0355 10.1064 89.5468 10.999V8.56804H92.0688V21.88H89.5468V19.384C88.9662 20.3027 88.2208 21.0177 87.3108 21.529C86.4008 22.0404 85.3955 22.296 84.2948 22.296ZM84.9708 20.125C85.8808 20.125 86.6825 19.917 87.3758 19.501C88.0778 19.0764 88.6282 18.4957 89.0268 17.759C89.4255 17.0224 89.6248 16.1774 89.6248 15.224C89.6248 14.2707 89.4255 13.4257 89.0268 12.689C88.6282 11.9524 88.0778 11.376 87.3758 10.96C86.6825 10.5354 85.8808 10.323 84.9708 10.323C84.0695 10.323 83.2678 10.5354 82.5658 10.96C81.8638 11.376 81.3092 11.9524 80.9018 12.689C80.5032 13.4257 80.3038 14.2707 80.3038 15.224C80.3038 16.1687 80.5032 17.0137 80.9018 17.759C81.3092 18.4957 81.8638 19.0764 82.5658 19.501C83.2678 19.917 84.0695 20.125 84.9708 20.125Z" fill="white"/>
<path d="M97.3911 21.88V8.56804H99.9131V10.284C100.32 9.67737 100.905 9.17037 101.668 8.76304C102.431 8.35571 103.336 8.15204 104.385 8.15204C105.416 8.15204 106.309 8.36871 107.063 8.80204C107.817 9.22671 108.398 9.84204 108.805 10.648C109.221 11.454 109.429 12.416 109.429 13.534V21.88H106.907V14.041C106.907 12.793 106.608 11.8354 106.01 11.168C105.412 10.5007 104.571 10.167 103.488 10.167C102.743 10.167 102.101 10.3187 101.564 10.622C101.035 10.9167 100.628 11.3154 100.342 11.818C100.056 12.312 99.9131 12.8537 99.9131 13.443V21.88H97.3911Z" fill="white"/>
</svg>
