<svg width="166" height="101" viewBox="0 0 166 101" fill="none" xmlns="http://www.w3.org/2000/svg">
<path d="M39.2945 26.8446H70.558V29.3295H42.1603V48.0313H68.8646V50.5162H42.1603V71.049H70.8837V73.5339H39.2945V26.8446ZM73.3587 26.8446H76.6804L91.4003 47.3774L106.446 26.8446L126.91 0.763184L93.2892 49.5353L110.614 73.5339H107.162L91.4003 51.6932L75.5732 73.5339H72.1863L89.6418 49.5353L73.3587 26.8446ZM111.852 29.3295V26.8446H147.479V29.3295H131.066V73.5339H128.2V29.3295H111.852ZM0.182617 26.8446H3.76489L53.1624 100.763L32.7487 73.5339L3.1787 30.3757L3.04844 73.5339H0.182617V26.8446ZM147.19 70.2991C146.605 70.2991 146.166 69.8455 146.166 69.2592C146.166 68.6729 146.605 68.2193 147.19 68.2193C147.783 68.2193 148.215 68.6729 148.215 69.2592C148.215 69.8455 147.783 70.2991 147.19 70.2991ZM150.006 67.5632H151.54C151.561 68.3938 152.167 68.9521 153.059 68.9521C154.056 68.9521 154.621 68.3519 154.621 67.2282V60.1092H156.182V67.2352C156.182 69.2592 155.011 70.4248 153.073 70.4248C151.254 70.4248 150.006 69.2941 150.006 67.5632ZM158.224 67.4725H159.772C159.904 68.4287 160.838 69.0359 162.184 69.0359C163.438 69.0359 164.358 68.3868 164.358 67.4934C164.358 66.7257 163.773 66.265 162.442 65.951L161.145 65.6369C159.326 65.2112 158.496 64.3317 158.496 62.8521C158.496 61.0584 159.96 59.8649 162.156 59.8649C164.198 59.8649 165.69 61.0584 165.78 62.7544H164.261C164.114 61.8261 163.306 61.2468 162.135 61.2468C160.901 61.2468 160.079 61.8401 160.079 62.7474C160.079 63.4663 160.608 63.8781 161.919 64.1852L163.027 64.4574C165.09 64.939 165.941 65.7765 165.941 67.291C165.941 69.2173 164.449 70.4248 162.065 70.4248C159.835 70.4248 158.336 69.2732 158.224 67.4725Z" fill="white"/>
</svg>
