<svg width="286" height="101" viewBox="0 0 286 101" fill="none" xmlns="http://www.w3.org/2000/svg">
<path fill-rule="evenodd" clip-rule="evenodd" d="M22.8854 49.3028H18.0044V58.695C18.0044 61.2116 19.6766 61.1667 22.8854 61.0318V64.8516C16.3322 65.6156 13.7562 63.818 13.7562 58.74V49.3477H10.1406V45.2583H13.7562V40.0005L18.0044 38.7422V45.2583H22.8854V49.3028ZM41.5054 45.2134H45.7536V64.8067H41.5054V61.9756C40.014 64.0427 37.6639 65.301 34.5907 65.301C29.2126 65.301 24.7835 60.8071 24.7835 55.01C24.7835 49.168 29.2578 44.719 34.5907 44.719C37.6639 44.719 40.014 45.9773 41.5054 47.9996V45.2134ZM35.2686 61.3015C38.8389 61.3015 41.5054 58.695 41.5054 55.01C41.5054 51.37 38.8389 48.7186 35.2686 48.7186C31.7434 48.7186 29.0318 51.325 29.0318 55.01C29.0318 58.695 31.7434 61.3015 35.2686 61.3015ZM52.8491 42.2923C51.3577 42.2923 50.1375 41.0341 50.1375 39.596C50.1375 38.113 51.3577 36.8997 52.8491 36.8997C54.3405 36.8997 55.5608 38.113 55.5608 39.596C55.6059 41.0341 54.3405 42.2923 52.8491 42.2923ZM50.725 64.8067V45.2134H54.9732V64.8067H50.725ZM59.8994 64.8067V36.1807H64.1476V64.8067H59.8994ZM91.8065 45.2134H96.2807L90.0891 64.8067H85.9312L81.8186 51.5947L77.6607 64.8067H73.5028L67.3112 45.2134H71.7855L75.627 58.74L79.7848 45.2134H83.8523L87.965 58.74L91.8065 45.2134ZM101.614 42.2923C100.122 42.2923 98.902 41.0341 98.902 39.596C98.902 38.113 100.122 36.8997 101.614 36.8997C103.105 36.8997 104.325 38.113 104.325 39.596C104.325 41.0341 103.105 42.2923 101.614 42.2923ZM99.4443 64.8067V45.2134H103.693V64.8067H99.4443ZM119.013 44.719C123.442 44.719 126.606 47.685 126.606 52.808V64.8516H122.358V53.2125C122.358 50.2465 120.64 48.6737 117.929 48.6737C115.127 48.6737 112.912 50.3364 112.912 54.336V64.8516H108.664V45.2583H112.912V47.7749C114.223 45.7077 116.347 44.719 119.013 44.719ZM146.763 37.394H151.011V64.8516H146.763V62.0205C145.271 64.0877 142.921 65.346 139.848 65.346C134.47 65.346 130.041 60.8521 130.041 55.055C130.041 49.2129 134.515 44.764 139.848 44.764C142.921 44.764 145.271 46.0223 146.763 48.0445V37.394ZM140.571 61.3015C144.141 61.3015 146.808 58.695 146.808 55.01C146.808 51.37 144.141 48.7186 140.571 48.7186C137.046 48.7186 134.334 51.325 134.334 55.01C134.334 58.695 137.001 61.3015 140.571 61.3015ZM165.292 65.346C159.327 65.346 154.898 60.8521 154.898 55.055C154.898 49.2129 159.372 44.764 165.292 44.764C169.179 44.764 172.523 46.7413 174.105 49.8421L170.444 51.9542C169.586 50.1117 167.642 48.9433 165.292 48.9433C161.812 48.9433 159.191 51.5497 159.191 55.0999C159.191 58.6501 161.812 61.2565 165.292 61.2565C167.642 61.2565 169.586 60.0432 170.535 58.2456L174.195 60.3128C172.523 63.3237 169.179 65.346 165.292 65.346ZM181.201 50.651C181.201 54.2011 191.821 52.0441 191.821 59.3242C191.821 63.2338 188.386 65.346 184.138 65.346C180.206 65.346 177.359 63.5933 176.094 60.7622L179.754 58.6501C180.387 60.4027 181.969 61.4812 184.138 61.4812C186.036 61.4812 187.483 60.8521 187.483 59.2792C187.483 55.774 176.862 57.7513 176.862 50.7408C176.862 47.0559 180.071 44.764 184.093 44.764C187.347 44.764 190.013 46.247 191.369 48.8534L187.799 50.8307C187.076 49.3028 185.72 48.5838 184.093 48.5838C182.556 48.5388 181.201 49.2129 181.201 50.651ZM199.369 50.651C199.369 54.2011 209.989 52.0441 209.989 59.3242C209.989 63.2338 206.554 65.346 202.306 65.346C198.374 65.346 195.527 63.5933 194.262 60.7622L197.922 58.6501C198.555 60.4027 200.137 61.4812 202.306 61.4812C204.204 61.4812 205.651 60.8521 205.651 59.2792C205.651 55.774 195.03 57.7513 195.03 50.7408C195.03 47.0559 198.239 44.764 202.261 44.764C205.515 44.764 208.181 46.247 209.537 48.8534L205.967 50.8307C205.244 49.3028 203.888 48.5838 202.261 48.5838C200.724 48.5388 199.369 49.2129 199.369 50.651Z" fill="white"/>
<path fill-rule="evenodd" clip-rule="evenodd" d="M247.995 34.0264C240.542 34.0264 235.844 37.7657 233.992 45.1993C236.792 41.46 240.045 40.0634 243.794 41.0095C245.917 41.5501 247.453 43.0819 249.124 44.7939C251.879 47.5871 255.041 50.7858 261.997 50.7858C269.45 50.7858 274.148 47.0465 276 39.6128C273.199 43.3522 269.947 44.7488 266.198 43.8027C264.075 43.2621 262.539 41.7303 260.868 40.0183C258.113 37.2251 254.951 34.0264 247.995 34.0264ZM233.992 50.7408C226.539 50.7408 221.841 54.4801 219.989 61.9137C222.79 58.1744 226.042 56.7778 229.791 57.7239C231.914 58.2645 233.45 59.7963 235.121 61.5082C237.877 64.3015 241.038 67.5002 247.995 67.5002C255.448 67.5002 260.145 63.7608 261.997 56.3272C259.197 60.0666 255.944 61.4632 252.195 60.5171C250.072 59.9765 248.537 58.4447 246.865 56.7327C244.11 53.9845 240.948 50.7408 233.992 50.7408Z" fill="white"/>
</svg>
