<svg width="245" height="67" viewBox="0 0 245 67" fill="none" xmlns="http://www.w3.org/2000/svg">
<g clip-path="url(#clip0_279_1464)">
<path fill-rule="evenodd" clip-rule="evenodd" d="M124.123 0.763272C123.953 0.765342 123.782 0.805807 123.631 0.89456C123.328 1.07193 123.138 1.39767 123.138 1.74796V26.8573C123.138 27.1041 123.023 27.3245 122.81 27.4483C122.596 27.5723 122.335 27.5723 122.121 27.4483L118.017 25.085C117.406 24.7325 116.659 24.7327 116.048 25.085L99.6675 34.538C99.0551 34.8912 98.6827 35.5708 98.6827 36.2775V55.1835C98.6827 55.8897 99.0556 56.5364 99.6675 56.8903L116.048 66.3433C116.66 66.6966 117.405 66.6966 118.017 66.3433L134.397 56.8903C135.009 56.5364 135.382 55.8897 135.382 55.1835V8.04995C135.382 7.33296 134.991 6.66009 134.365 6.31033L124.615 0.861744C124.462 0.776353 124.293 0.76138 124.123 0.763272ZM18.7513 24.3628C18.4389 24.3754 18.1454 24.43 17.865 24.5926L1.48478 34.0456C0.874428 34.3984 0.5 35.041 0.5 35.7524L0.532756 61.1244C0.532756 61.4773 0.714838 61.805 1.02515 61.9779C1.3293 62.1599 1.70681 62.1599 2.00993 61.9779L11.7264 56.3979C12.3419 56.0323 12.7441 55.3963 12.7441 54.6911V42.8421C12.7441 42.1353 13.1159 41.4867 13.7288 41.1353L17.8649 38.7393C18.1736 38.5609 18.505 38.4767 18.8497 38.4767C19.1873 38.4767 19.5343 38.5608 19.8345 38.7393L23.9706 41.1353C24.5835 41.4867 24.9553 42.1353 24.9553 42.8421V54.6911C24.9553 55.3963 25.3615 56.0364 25.973 56.3979L35.6895 61.9779C35.9946 62.1599 36.3716 62.1599 36.6742 61.9779C36.9759 61.805 37.1666 61.4773 37.1666 61.1244L37.1994 35.7524C37.1994 35.041 36.8291 34.3984 36.2146 34.0456L19.8344 24.5926C19.5574 24.43 19.2626 24.3756 18.9481 24.3628H18.7513ZM165.943 24.5926C165.601 24.5922 165.266 24.6788 164.959 24.8552L148.578 34.3082C147.966 34.6615 147.594 35.3082 147.594 36.015V54.9209C147.594 55.6318 147.994 56.2764 148.611 56.6277L164.86 65.8837C165.46 66.2263 166.193 66.252 166.797 65.9163L176.645 60.4348C176.957 60.2615 177.169 59.9378 177.17 59.5814C177.172 59.225 176.986 58.9054 176.677 58.728L160.199 49.275C159.89 49.0991 159.674 48.7426 159.674 48.3888V42.4807C159.674 42.1275 159.893 41.8037 160.199 41.6274L165.32 38.6732C165.624 38.497 165.998 38.497 166.304 38.6732L171.425 41.6274C171.731 41.8037 171.918 42.1275 171.918 42.4807V47.1416C171.918 47.4954 172.104 47.8186 172.41 47.9949C172.717 48.1718 173.089 48.1725 173.395 47.9949L183.21 42.2839C183.819 41.93 184.195 41.2816 184.195 40.5771V36.0146C184.195 35.31 183.82 34.6617 183.21 34.3078L166.928 24.8549C166.622 24.6772 166.286 24.593 165.943 24.5926ZM116.967 38.7064C117.052 38.7064 117.153 38.7274 117.229 38.7716L122.843 42.0211C122.995 42.1093 123.105 42.2718 123.105 42.4477V48.9466C123.105 49.1231 122.996 49.2857 122.843 49.3734L117.229 52.6228C117.077 52.71 116.89 52.71 116.737 52.6228L111.124 49.3734C110.971 49.2852 110.861 49.1231 110.861 48.9466V42.4477C110.861 42.2718 110.971 42.1097 111.124 42.0211L116.737 38.7721C116.814 38.728 116.881 38.707 116.967 38.707V38.7064Z" fill="white"/>
<path fill-rule="evenodd" clip-rule="evenodd" d="M215.018 24.1333C214.45 24.1333 213.898 24.2507 213.409 24.5272L197.948 33.455C196.948 34.031 196.34 35.1198 196.34 36.2777V54.1006C196.34 55.258 196.948 56.3455 197.948 56.9232L201.986 59.2537C203.948 60.2204 204.671 60.2055 205.564 60.2055C208.468 60.2055 210.127 58.4434 210.127 55.3806V37.7876C210.127 37.5389 209.912 37.3608 209.667 37.3608H207.731C207.482 37.3608 207.271 37.5389 207.271 37.7876V55.3806C207.271 56.7382 205.857 58.1034 203.562 56.9561L199.36 54.4945C199.212 54.4136 199.097 54.2709 199.097 54.1006V36.2777C199.097 36.1085 199.21 35.9367 199.36 35.8511L214.788 26.9561C214.933 26.8731 215.105 26.8731 215.248 26.9561L230.676 35.8511C230.823 35.9393 230.939 36.1034 230.939 36.2777V54.1006C230.939 54.2709 230.853 54.4452 230.709 54.5272L215.248 63.4223C215.115 63.501 214.933 63.501 214.788 63.4223L210.816 61.059C210.698 60.9897 210.537 60.995 210.422 61.059C209.326 61.6805 209.12 61.7528 208.092 62.1094C207.838 62.1976 207.453 62.3349 208.223 62.7658L213.409 65.8183C213.903 66.104 214.453 66.2449 215.018 66.2449C215.59 66.2449 216.133 66.104 216.626 65.8183L232.087 56.9232C233.088 56.3414 233.696 55.258 233.696 54.1006V36.2777C233.696 35.1198 233.088 34.0334 232.087 33.455L216.626 24.5272C216.142 24.2507 215.586 24.1333 215.018 24.1333ZM67.9572 24.4943C67.6159 24.4943 67.2781 24.5804 66.9724 24.7569L50.5922 34.1771C49.9798 34.53 49.6074 35.2105 49.6074 35.9167V54.8226C49.6074 55.5296 49.9802 56.1757 50.5922 56.5294L66.9724 65.9823C67.5848 66.336 68.3296 66.336 68.942 65.9823L85.3222 56.5294C85.9335 56.1757 86.307 55.5296 86.307 54.8226V35.9167C86.307 35.2095 85.9346 34.53 85.3222 34.1771L68.942 24.7569C68.6363 24.5804 68.2985 24.4943 67.9572 24.4943ZM237.963 24.593V25.0526H239.244V28.4332H239.769V25.0526H241.082V24.593H237.963ZM241.541 24.593V28.4332H242.034V26.1685C242.034 26.0761 242.038 25.9332 242.034 25.7419C242.027 25.547 242.034 25.3772 242.034 25.2823V25.1835L243.117 28.4329H243.642L244.758 25.1835C244.758 25.3902 244.731 25.5898 244.726 25.7743C244.724 25.9539 244.726 26.0888 244.726 26.1682V28.4329H245.218V24.5927H244.496L243.38 27.8422L242.296 24.5927L241.541 24.593ZM219.154 36.8688C214.751 36.8688 212.129 38.7423 212.129 41.8578C212.129 45.2377 214.732 46.1663 218.957 46.5843C224.012 47.0791 224.406 47.8213 224.406 48.8163C224.406 50.5421 223.03 51.2779 219.778 51.2779C215.692 51.2779 214.793 50.258 214.493 48.2255C214.457 48.0075 214.289 47.8316 214.066 47.8316H212.064C211.817 47.8316 211.604 48.0439 211.604 48.2911C211.604 50.8928 213.019 53.9695 219.778 53.9695C224.67 53.9695 227.492 52.0493 227.492 48.685C227.492 45.3498 225.212 44.4546 220.467 43.8272C215.672 43.1928 215.215 42.8823 215.215 41.7594C215.215 40.8325 215.602 39.593 219.154 39.593C222.326 39.593 223.499 40.2771 223.979 42.4159C224.021 42.6169 224.199 42.7769 224.406 42.7769H226.409C226.532 42.7769 226.651 42.7013 226.737 42.6127C226.821 42.5182 226.88 42.4117 226.868 42.2846C226.558 38.6012 224.102 36.8688 219.154 36.8688ZM165.91 41.3655C165.845 41.3655 165.772 41.3656 165.713 41.3981L162.562 43.2362C162.444 43.3034 162.365 43.4285 162.365 43.5644V47.1749C162.365 47.3108 162.444 47.4354 162.562 47.5031L165.713 49.3083C165.831 49.3766 165.957 49.3766 166.074 49.3083L169.226 47.5031C169.342 47.4359 169.423 47.3108 169.423 47.1749V43.5644C169.423 43.4285 169.342 43.3038 169.226 43.2362L166.074 41.3981C166.016 41.3634 165.976 41.3655 165.91 41.3655Z" fill="white"/>
</g>
<defs>
<clipPath id="clip0_279_1464">
<rect width="244.718" height="65.8451" fill="white" transform="translate(0.0976562 0.664551)"/>
</clipPath>
</defs>
</svg>
