<svg width="304" height="101" viewBox="0 0 304 101" fill="none" xmlns="http://www.w3.org/2000/svg">
<path opacity="0.9" d="M152.828 35.3583C142.304 35.3583 134.733 42.2168 134.733 52.5046C134.733 62.7924 143.264 69.6509 153.788 69.6509C160.139 69.6509 165.752 67.1435 169.224 62.903L161.949 58.6994C160.029 60.8012 157.111 62.018 153.825 62.018C149.246 62.018 145.369 59.6212 143.928 55.8232H170.627C170.848 54.717 170.959 53.6108 170.959 52.5046C170.959 42.2168 163.389 35.3583 152.828 35.3583ZM143.818 49.1491C144.999 45.3511 148.286 42.9543 152.828 42.9543C157.37 42.9543 160.656 45.3511 161.838 49.1491H143.818ZM141.676 24.8861L115.273 70.5727L88.8695 24.8861H98.7661L115.273 53.4264L131.779 24.8861H141.676ZM52.4221 20.1294L87.6509 81.0449H17.1934L52.4221 20.1294ZM209.253 52.5046C209.253 58.22 212.983 62.018 218.78 62.018C222.695 62.018 225.649 60.2481 227.163 57.335L234.511 61.5387C231.483 66.5904 225.796 69.614 218.817 69.614C208.293 69.614 200.723 62.7555 200.723 52.4677C200.723 42.1799 208.293 35.3214 218.817 35.3214C225.796 35.3214 231.483 38.345 234.511 43.3968L227.2 47.6004C225.686 44.6873 222.731 42.9174 218.817 42.9174C213.02 42.9911 209.253 46.7891 209.253 52.5046ZM287.871 24.8861V68.6553H279.304V24.8861H287.871ZM255.486 35.3583C244.962 35.3583 237.392 42.2168 237.392 52.5046C237.392 62.7924 245.922 69.6509 256.446 69.6509C262.798 69.6509 268.411 67.1435 271.882 62.903L264.607 58.6994C262.687 60.8012 259.77 62.018 256.483 62.018C251.904 62.018 248.027 59.6212 246.587 55.8232H273.285C273.507 54.717 273.618 53.6108 273.618 52.5046C273.581 42.2168 266.01 35.3583 255.486 35.3583ZM246.476 49.1491C247.658 45.3511 250.907 42.9543 255.486 42.9543C260.065 42.9543 263.315 45.3511 264.496 49.1491H246.476ZM197.842 36.317V45.5354C196.845 45.2404 195.811 45.0929 194.777 45.0561C189.238 45.0561 185.25 48.8541 185.25 54.5695V68.6553H176.683V36.317H185.25V45.0561C185.25 40.2256 190.863 36.317 197.842 36.317Z" fill="white"/>
</svg>
