<svg width="305" height="101" viewBox="0 0 305 101" fill="none" xmlns="http://www.w3.org/2000/svg">
<path opacity="0.7" d="M219.735 42.7148V76.9083H208.505V48.5536L219.735 42.7148Z" fill="white"/>
<path opacity="0.7" d="M69.4531 77.7678L95.693 64.0351L92.4568 55.6494L75.1812 63.7112L69.4531 77.7678Z" fill="white"/>
<path opacity="0.5" d="M208.508 48.5243L236.978 33.9436L232.168 25.8022L208.508 37.3738V48.5243Z" fill="white"/>
<path opacity="0.7" d="M128.329 40.009V76.9084H117.62V24.3564L128.329 40.009Z" fill="white"/>
<path opacity="0.5" d="M85.6821 37.9685L69.4569 77.7681L61.1104 70.5779L80.4424 24.3564L85.6821 37.9685Z" fill="white"/>
<path d="M80.4424 24.3564H91.5044L111.963 76.9084H100.639L80.4424 24.3564Z" fill="white"/>
<path d="M129.985 24.3564L153.569 60.2606V76.9084L117.62 24.3564H129.985Z" fill="white"/>
<path d="M184.913 24.3564H173.769V76.9172H184.913V24.3564Z" fill="white"/>
<path d="M208.508 33.9435H191.351V24.3564H231.309L236.975 33.9435H219.735H208.508Z" fill="white"/>
<path opacity="0.5" d="M269.881 56.9658V76.9054H258.819V56.9658" fill="white"/>
<path d="M258.819 56.9658L277.536 24.3564H289.29L269.881 56.9658H258.819Z" fill="white"/>
<path opacity="0.7" d="M258.82 56.9658L239.579 24.3564H251.683L264.716 46.7045L258.82 56.9658Z" fill="white"/>
<path d="M19.5861 30.4219C19.5861 37.7387 24.1815 42.0935 33.3842 44.3902L43.134 46.6132C51.8424 48.5801 57.144 53.4649 57.144 61.4236C57.2116 64.8892 56.0642 68.2753 53.896 71.0106C53.896 63.0695 49.7183 58.7795 39.6419 56.2002L30.0685 54.0596C22.4016 52.3401 16.4852 48.3239 16.4852 39.6791C16.4499 36.3401 17.5385 33.0836 19.5861 30.4219Z" fill="white"/>
<path opacity="0.7" d="M153.568 57.5606V24.3564H164.277V76.9084H153.568V57.5606Z" fill="white"/>
<path opacity="0.7" d="M47.9091 59.4742C52.0661 62.0889 53.8902 65.7488 53.8902 70.9987C50.448 75.3328 44.3992 77.7679 37.2913 77.7679C25.3261 77.7679 16.9531 71.9762 15.0938 61.9151H26.5823C28.0622 66.5349 31.978 68.6755 37.206 68.6755C43.5872 68.6755 47.8296 65.3277 47.9149 59.4536" fill="white"/>
<path opacity="0.7" d="M25.5619 41.2691C23.6643 40.159 22.105 38.5661 21.0518 36.6552C20.0015 34.7442 19.4954 32.5919 19.5866 30.4218C22.9082 26.123 28.6863 23.4966 35.7295 23.4966C47.9183 23.4966 54.9703 29.8271 56.7091 38.7369H45.6559C44.4379 35.2242 41.3841 32.4888 35.8207 32.4888C29.8749 32.4888 25.8208 35.8926 25.5854 41.2691" fill="white"/>
</svg>
