<svg width="306" height="101" viewBox="0 0 306 101" fill="none" xmlns="http://www.w3.org/2000/svg">
<path d="M111.43 55.0548C109.144 53.79 107.941 52.7662 107.941 51.3207C107.941 49.4537 109.566 48.3094 112.152 48.3094C115.16 48.3094 117.806 49.5741 117.806 49.5741L119.912 43.1298C119.912 43.1298 117.987 41.6242 112.272 41.6242C104.332 41.6242 98.7985 46.2014 98.7985 52.5855C98.7985 56.1991 101.385 58.9696 104.814 60.9571C107.581 62.523 108.543 63.6673 108.543 65.2934C108.543 67.04 107.16 68.4252 104.573 68.4252C100.723 68.4252 97.1143 66.4377 97.1143 66.4377L94.8887 72.882C94.8887 72.882 98.2571 75.1104 103.851 75.1104C112.032 75.1104 117.866 71.0752 117.866 63.8479C117.987 59.873 114.979 57.1025 111.43 55.0548ZM144.032 41.5037C140.002 41.5037 136.874 43.431 134.408 46.3219L134.288 46.2617L137.776 27.9526H128.694L119.851 74.5081H128.934L131.942 58.6082C133.145 52.5855 136.213 48.9116 139.1 48.9116C141.145 48.9116 141.927 50.2969 141.927 52.2844C141.927 53.5491 141.807 55.0548 141.506 56.3196L138.077 74.5684H147.16L150.709 55.7775C151.13 53.79 151.371 51.4412 151.371 49.8151C151.431 44.5753 148.724 41.5037 144.032 41.5037ZM172.002 41.5037C161.055 41.5037 153.777 51.381 153.777 62.4025C153.777 69.4491 158.108 75.1706 166.288 75.1706C177.055 75.1706 184.273 65.5343 184.273 54.2719C184.333 47.7071 180.544 41.5037 172.002 41.5037ZM167.551 68.1241C164.423 68.1241 163.16 65.4741 163.16 62.1616C163.16 56.9218 165.867 48.4298 170.799 48.4298C174.048 48.4298 175.07 51.2003 175.07 53.9105C175.07 59.5718 172.363 68.1241 167.551 68.1241ZM207.612 41.5037C201.477 41.5037 197.988 46.9242 197.988 46.9242H197.867L198.409 42.0458H190.349C189.928 45.3582 189.206 50.3571 188.484 54.1514L182.168 87.5172H191.251L193.777 74.0263H193.958C193.958 74.0263 195.822 75.2309 199.311 75.2309C210.018 75.2309 216.996 64.2695 216.996 53.1878C216.996 46.9844 214.289 41.5037 207.612 41.5037ZM198.95 68.3048C196.604 68.3048 195.221 66.9798 195.221 66.9798L196.725 58.4877C197.807 52.8264 200.755 49.0321 203.883 49.0321C206.65 49.0321 207.492 51.6219 207.492 54.0309C207.492 59.873 204.003 68.3048 198.95 68.3048ZM229.988 28.3742C227.101 28.3742 224.755 30.6629 224.755 33.6742C224.755 36.3844 226.439 38.2515 229.026 38.2515H229.146C231.973 38.2515 234.439 36.3242 234.5 32.9515C234.56 30.3015 232.755 28.3742 229.988 28.3742Z" fill="white"/>
<path d="M217.236 74.5083H226.379L232.575 42.2266H223.372L217.236 74.5083Z" fill="white"/>
<path d="M255.673 42.1059H249.357L249.657 40.6002C250.199 37.4684 252.003 34.698 255.071 34.698C256.695 34.698 257.958 35.1798 257.958 35.1798L259.763 28.073C259.763 28.073 258.199 27.29 254.83 27.29C251.582 27.29 248.394 28.1934 245.928 30.3014C242.8 32.9514 241.357 36.7457 240.635 40.6002L240.394 42.1059H236.184L234.86 48.9718H239.071L234.259 74.4478H243.342L248.154 48.9718H254.409L255.673 42.1059ZM277.568 42.2263C277.568 42.2263 271.853 56.5604 269.327 64.3899H269.207C269.026 61.8604 266.981 42.2263 266.981 42.2263H257.417L262.891 71.858C263.011 72.5205 262.951 72.9421 262.71 73.3637C261.628 75.4114 259.883 77.3989 257.778 78.8444C256.094 80.1092 254.169 80.8921 252.665 81.4342L255.191 89.1432C257.056 88.7216 260.846 87.2159 264.094 84.2046C268.244 80.2898 272.094 74.3274 276.004 66.1365L287.132 42.2263H277.568Z" fill="white"/>
<path d="M61.8976 87.3225L84.3793 82.4391C84.3793 82.4391 76.2642 27.3949 76.2041 27.0331C76.144 26.6714 75.8435 26.4302 75.5429 26.4302C75.2423 26.4302 69.5317 26.0082 69.5317 26.0082C69.5317 26.0082 65.5644 22.0291 65.0835 21.6071C64.9633 21.4865 64.843 21.4262 64.7228 21.3659L61.8976 87.3225ZM63.761 21.2454C63.7009 21.2454 63.5807 21.3056 63.5206 21.3056C63.4605 21.3056 62.6189 21.5468 61.2964 21.9688C59.974 18.1103 57.6296 14.5532 53.4819 14.5532C53.3617 14.5532 53.2415 14.5532 53.1213 14.5532C51.919 13.046 50.4763 12.3828 49.214 12.3828C39.536 12.3828 34.9074 24.501 33.4648 30.6505C29.7378 31.796 27.0328 32.6401 26.7323 32.7606C24.6283 33.4238 24.5682 33.4841 24.3278 35.4737C24.0873 36.9206 18.6172 79.4246 18.6172 79.4246L60.8757 87.3828L63.761 21.2454ZM52.7606 24.1995C52.7606 24.3201 52.7606 24.501 52.7606 24.6216C50.4162 25.345 47.8314 26.1288 45.3067 26.9126C46.7494 21.3659 49.4544 18.6529 51.7988 17.628C52.3999 19.1955 52.7606 21.3056 52.7606 24.1995ZM48.9134 14.9753C49.3342 14.9753 49.755 15.0958 50.1758 15.3973C47.1101 16.8442 43.7438 20.5219 42.3613 27.8772C40.3175 28.5404 38.3338 29.1433 36.4703 29.6859C38.0934 24.079 42.0006 14.9753 48.9134 14.9753ZM50.5966 47.7124C50.5966 47.7124 48.0719 46.386 45.0663 46.386C40.5579 46.386 40.3776 49.2196 40.3776 49.9431C40.3776 53.8016 50.4763 55.3089 50.4763 64.4126C50.4763 71.587 45.968 76.169 39.8366 76.169C32.503 76.169 28.7761 71.587 28.7761 71.587L30.7597 65.0757C30.7597 65.0757 34.6069 68.3917 37.8529 68.3917C39.9568 68.3917 40.8585 66.7036 40.8585 65.4978C40.8585 60.4335 32.5631 60.1923 32.5631 51.8724C32.5631 44.8788 37.5524 38.0661 47.7112 38.0661C51.6185 38.0661 53.542 39.2116 53.542 39.2116L50.5966 47.7124ZM54.4437 17.206C56.6077 17.4471 57.9903 19.919 58.892 22.6923C57.81 23.054 56.6077 23.4158 55.2853 23.8378C55.2853 23.5966 55.2853 23.3555 55.2853 23.054C55.2853 20.7028 54.9847 18.7735 54.4437 17.206Z" fill="white"/>
</svg>
