<svg width="264" height="49" viewBox="0 0 264 49" fill="none" xmlns="http://www.w3.org/2000/svg">
<path d="M59.7951 31.6717C59.8255 32.0355 59.7343 32.3992 59.5214 32.7629C59.3086 33.1267 59.1109 33.445 58.9285 33.7178C58.8373 33.8087 58.6548 33.9451 58.3812 34.127C58.1379 34.2786 57.8643 34.4301 57.5602 34.5817C57.2865 34.7332 57.0129 34.9 56.7392 35.0818C56.496 35.2334 56.3439 35.3546 56.2831 35.4456C56.1311 35.6881 55.9486 36.0063 55.7358 36.4004C55.5533 36.7945 55.3861 37.1127 55.2341 37.3552C54.8084 37.9009 54.3827 38.3252 53.957 38.6283C53.5617 38.9315 53.136 39.2043 52.6799 39.4468C52.2542 39.659 51.7981 39.8711 51.3116 40.0833C50.8251 40.2955 50.293 40.5986 49.7152 40.9927L49.3503 42.1294C48.7118 42.0688 48.2557 42.0991 47.982 42.2203C47.7388 42.3113 47.5563 42.4628 47.4347 42.675C47.3435 42.8872 47.2523 43.1297 47.161 43.4025C47.1002 43.6753 46.9482 43.9481 46.7049 44.2209C46.5833 44.3725 46.3705 44.5241 46.0664 44.6756C45.7927 44.8272 45.5799 44.9181 45.4279 44.9484C45.1846 44.9484 44.9718 44.9333 44.7893 44.903C44.6373 44.8727 44.5005 44.8575 44.3788 44.8575C44.2876 44.8575 44.2116 44.903 44.1508 44.9939C44.09 45.0545 44.0595 45.2061 44.0595 45.4486H43.9683C43.6339 45.4486 43.3298 45.5244 43.0561 45.6759C42.7825 45.8578 42.5088 46.0245 42.2351 46.1761C41.9615 46.3276 41.6878 46.4186 41.4142 46.4489C41.1405 46.5095 40.8364 46.4337 40.5019 46.2215H40.4563C40.4563 45.494 40.3195 44.9636 40.0458 44.6301C39.8026 44.2664 39.5137 43.9481 39.1792 43.6753C38.8448 43.3722 38.5255 43.0388 38.2214 42.675C37.9478 42.3113 37.7805 41.7657 37.7197 41.0382C37.6589 40.341 37.7349 39.6286 37.9478 38.9012C38.191 38.1737 38.3127 37.4613 38.3127 36.7641C38.3127 36.3398 38.2366 35.976 38.0846 35.6729C37.9326 35.3698 37.8565 35.0515 37.8565 34.7181C37.8565 34.415 37.9326 34.1573 38.0846 33.9451C38.267 33.7329 38.4343 33.5359 38.5863 33.354C38.7688 33.1722 38.8752 32.96 38.9056 32.7175C38.9664 32.475 38.8752 32.1719 38.6319 31.8081V31.7626C38.6319 31.4898 38.6927 31.1564 38.8144 30.7623C38.936 30.338 39.0272 29.9894 39.088 29.7166C39.2705 28.9588 39.4377 28.2161 39.5897 27.4886C39.7722 26.7308 39.9242 25.9882 40.0458 25.2607C40.2283 24.1391 40.4107 23.0479 40.5932 21.987C40.7756 20.8957 41.0493 19.8197 41.4142 18.7587L41.4598 18.7133L41.1405 18.2586H41.2773C41.703 18.1373 41.9767 17.8797 42.0983 17.4856C42.2503 17.0916 42.3416 16.6672 42.372 16.2125C42.4024 15.7578 42.4176 15.3335 42.4176 14.9394C42.448 14.515 42.5848 14.2119 42.8281 14.03C42.676 13.8785 42.524 13.7269 42.372 13.5754C42.2503 13.3935 42.1135 13.2268 41.9615 13.0752C41.9311 13.1055 41.9159 13.151 41.9159 13.2116C41.6422 14.0907 41.2165 14.8485 40.6388 15.485C40.0915 16.0913 39.5137 16.6975 38.9056 17.3038C38.3279 17.8797 37.7957 18.5162 37.3092 19.2134C36.8227 19.8803 36.5034 20.729 36.3514 21.7596C35.8345 22.6387 35.3632 23.5481 34.9375 24.4877C34.5422 25.4274 34.1165 26.3671 33.6604 27.3068C33.2043 28.2464 32.7026 29.1558 32.1553 30.0349C31.6383 30.8836 31.015 31.6566 30.2852 32.3537C30.2852 32.4144 30.2852 32.4901 30.2852 32.5811C30.3156 32.672 30.3308 32.7478 30.3308 32.8084C30.3308 33.0812 30.27 33.3086 30.1484 33.4904C30.0268 33.6723 29.8899 33.8542 29.7379 34.0361C29.5859 34.1876 29.4186 34.3543 29.2362 34.5362C29.0538 34.6878 28.9017 34.8545 28.7801 35.0364C28.7801 35.5214 28.6585 35.976 28.4152 36.4004C28.172 36.7945 27.8983 37.1734 27.5942 37.5371C27.3206 37.9009 27.0621 38.2646 26.8189 38.6283C26.5756 38.9921 26.454 39.3558 26.454 39.7196C26.454 40.4774 26.3171 41.0533 26.0435 41.4474C25.7698 41.8111 25.4353 42.1142 25.0401 42.3567C24.6752 42.5689 24.2799 42.7963 23.8542 43.0388C23.4589 43.2509 23.1244 43.5692 22.8508 43.9936V44.0391C22.7595 44.0088 22.6531 44.0239 22.5315 44.0845C22.4099 44.1452 22.273 44.13 22.121 44.0391C21.969 43.9784 21.8625 43.8269 21.8017 43.5844C21.7713 43.3116 21.7409 43.0236 21.7105 42.7205C21.6801 42.4174 21.6497 42.1446 21.6193 41.9021C21.5889 41.6596 21.5281 41.508 21.4368 41.4474C21.5585 41.3564 21.7257 41.0533 21.9386 40.538C22.1514 40.0227 22.349 39.4468 22.5315 38.8102C22.7443 38.1737 22.9268 37.5674 23.0788 36.9915C23.2613 36.4156 23.3829 36.0367 23.4437 35.8548C23.5653 35.4607 23.6717 35.0667 23.763 34.6726C23.8846 34.2786 24.0214 33.8845 24.1735 33.4904C24.2343 33.3389 24.2951 33.1722 24.3559 32.9903C24.4471 32.7781 24.5079 32.5962 24.5383 32.4447C24.5687 32.2022 24.584 31.9445 24.584 31.6717C24.6144 31.3989 24.6448 31.1261 24.6752 30.8533L24.7664 30.8078C25.0096 30.8078 25.1769 30.7017 25.2681 30.4895C25.3897 30.247 25.4657 29.9894 25.4962 29.7166C25.5266 29.4135 25.5266 29.1103 25.4962 28.8072C25.4962 28.5041 25.5114 28.2768 25.5418 28.1252C25.785 26.6702 26.1043 25.1698 26.4996 23.6238C26.8949 22.0476 27.0925 20.532 27.0925 19.077V18.395C27.1229 17.91 27.1685 17.4098 27.2293 16.8945C27.2902 16.3792 27.3054 15.8639 27.275 15.3486C27.275 14.803 27.1989 14.2877 27.0469 13.8027C26.9253 13.3177 26.7124 12.863 26.4084 12.4387V12.3932C25.4353 12.3932 24.5383 12.6963 23.7174 13.3026C22.8964 13.8785 22.1362 14.606 21.4368 15.485C20.7679 16.3338 20.175 17.2431 19.658 18.2131C19.1411 19.1528 18.7154 19.9864 18.381 20.7139L18.2897 20.8048L18.0161 20.3956L17.9705 20.4411C17.4535 20.8048 17.0887 21.1989 16.8758 21.6232C16.6934 22.0173 16.5109 22.5023 16.3285 23.0782C16.146 23.6845 15.918 24.2604 15.6443 24.806C15.4011 25.3516 14.9754 25.7457 14.3672 25.9882L14.3216 26.0337C14.3216 26.7308 14.2152 27.2613 14.0024 27.625C13.7895 27.9585 13.5463 28.2616 13.2726 28.5344C13.0293 28.8072 12.8013 29.1255 12.5884 29.4892C12.3756 29.8227 12.2692 30.3531 12.2692 31.0806L12.2236 31.1261C11.6154 31.5808 11.1897 32.0658 10.9465 32.5811C10.7032 33.0964 10.46 33.6875 10.2167 34.3543C10.0039 34.8696 9.80621 35.3698 9.62377 35.8548C9.44133 36.3095 9.16767 36.7338 8.80279 37.1279L8.8484 37.2188C9.03084 37.3098 9.09165 37.4916 9.03084 37.7645C9.00043 38.0069 9.00043 38.204 9.03084 38.3555C8.72677 38.8708 8.4227 39.3558 8.11863 39.8105C7.81456 40.2349 7.5409 40.6744 7.29765 41.1291C7.0848 41.5535 6.90236 42.0082 6.75032 42.4931C6.59829 42.9781 6.52227 43.5389 6.52227 44.1755V44.2209H6.43105C5.91414 44.2816 5.54925 44.4786 5.3364 44.812C5.12356 45.1151 4.95632 45.4789 4.83469 45.9033C4.74347 46.3276 4.68266 46.752 4.65225 47.1764C4.62184 47.6007 4.53062 47.9342 4.37859 48.1767C4.25696 48.4192 4.04411 48.5253 3.74004 48.4949C3.43598 48.4949 2.97987 48.2525 2.37174 47.7675L1.14026 46.8581C1.47473 46.1306 1.79401 45.4031 2.09807 44.6756C2.37174 43.9178 2.61499 43.1449 2.82784 42.3567C3.04069 41.5686 3.26874 40.7957 3.51199 40.0379C3.75525 39.2801 4.12013 38.5526 4.60664 37.8554V37.8099C4.60664 37.6887 4.63705 37.4916 4.69786 37.2188C4.78908 36.9157 4.8803 36.5974 4.97152 36.264C5.06274 35.9306 5.15396 35.6274 5.24518 35.3546C5.36681 35.0515 5.45803 34.8242 5.51885 34.6726C5.7621 34.1573 5.97495 33.6572 6.15739 33.1722C6.37024 32.6872 6.47666 32.1415 6.47666 31.5353C6.75032 31.1109 6.96317 30.6563 7.11521 30.1713C7.26724 29.656 7.40407 29.1406 7.5257 28.6253C7.67773 28.11 7.84497 27.6099 8.02741 27.1249C8.24026 26.6399 8.52913 26.2004 8.89401 25.8063C8.89401 25.776 8.93962 25.579 9.03084 25.2152C9.15247 24.8515 9.27409 24.4574 9.39572 24.0331C9.51735 23.6087 9.62377 23.1995 9.71499 22.8054C9.83662 22.4114 9.91264 22.1689 9.94305 22.0779C10.2775 20.9867 10.5512 19.9561 10.764 18.9861C11.0073 17.9858 11.1289 16.9097 11.1289 15.7578C11.1289 15.5153 11.1137 15.2728 11.0833 15.0303C11.0529 14.7575 11.0529 14.4999 11.0833 14.2574C11.6002 13.4693 12.0411 12.6054 12.406 11.6657C12.7709 10.726 13.0293 9.8015 13.1814 8.89213V8.84666C13.0902 8.66479 12.9533 8.4223 12.7709 8.11917C12.5884 7.81605 12.4212 7.61902 12.2692 7.52809C11.9347 7.37653 11.585 7.37653 11.2201 7.52809C10.8553 7.64934 10.4752 7.77058 10.0799 7.89183C9.68459 8.01308 9.3045 8.04339 8.93962 7.98277C8.57474 7.92214 8.24026 7.61902 7.93619 7.0734V6.98247C7.5409 7.13403 7.19122 7.3159 6.88716 7.52809C6.61349 7.70996 6.2182 7.70996 5.70129 7.52809L5.65568 7.48262C5.65568 7.14919 5.56446 6.86122 5.38202 6.61872C5.19957 6.34591 5.03234 6.0731 4.8803 5.80029C4.72827 5.98217 4.54583 6.0731 4.33298 6.0731C4.12013 6.0731 3.89208 6.04279 3.64882 5.98217C3.40557 5.92154 3.17752 5.84576 2.96467 5.75483C2.72141 5.63358 2.52377 5.54264 2.37174 5.48202L2.28051 5.43655C2.18929 5.04249 2.02206 4.75453 1.7788 4.57265C1.53555 4.36047 1.27709 4.1786 1.00343 4.02703C0.729765 3.87547 0.501713 3.70876 0.319272 3.52688C0.106424 3.3147 0 3.01158 0 2.61752C0 2.16284 0.121627 1.76878 0.364882 1.43535C0.57773 1.0716 0.851392 0.813947 1.18587 0.662386C1.52034 0.510826 1.88523 0.465358 2.28051 0.525982C2.6758 0.586606 3.04069 0.783635 3.37516 1.11707V1.16254C3.5272 1.3141 3.75525 1.49597 4.05932 1.70816C4.36339 1.92034 4.66745 2.14768 4.97152 2.39018C5.306 2.60236 5.62527 2.78424 5.92934 2.9358C6.26381 3.08736 6.53748 3.16314 6.75032 3.16314C6.87195 3.0722 6.97838 3.05705 7.0696 3.11767C7.19122 3.14798 7.28244 3.20861 7.34326 3.29954C7.43448 3.39048 7.5257 3.49657 7.61692 3.61782C7.70814 3.70876 7.79936 3.75423 7.89058 3.75423C8.10343 3.6936 8.24026 3.5572 8.30107 3.34501L8.34668 3.39048C8.62035 3.48142 8.90921 3.4511 9.21328 3.29954C9.54776 3.11767 9.88223 2.95095 10.2167 2.79939C10.5816 2.61752 10.9465 2.52658 11.3114 2.52658C11.7066 2.49627 12.0867 2.67814 12.4516 3.0722C12.5124 2.98127 12.6341 2.90549 12.8165 2.84486C12.9989 2.78424 13.151 2.75392 13.2726 2.75392C13.6679 2.75392 14.0176 2.9358 14.3216 3.29954C15.021 4.1786 15.4467 5.16374 15.5987 6.25498C15.7508 7.34621 15.8268 8.42229 15.8268 9.48322V10.8473C15.5835 11.3019 15.3707 11.7566 15.1882 12.2113C15.0362 12.666 14.9602 13.151 14.9602 13.6663C14.9602 13.7572 14.9602 13.8785 14.9602 14.03C14.9906 14.1816 15.021 14.3483 15.0514 14.5302C15.0818 14.6818 15.097 14.8333 15.097 14.9849C15.1274 15.1061 15.1426 15.1819 15.1426 15.2122C15.0514 15.7578 14.9146 16.3035 14.7321 16.8491C14.5497 17.3947 14.3672 17.9252 14.1848 18.4405C13.8503 19.3801 13.5615 20.335 13.3182 21.305C13.075 22.2446 12.9229 23.2146 12.8621 24.2149C13.4702 23.3056 13.7743 22.2598 13.7743 21.0776L13.8199 21.0321C14.5801 20.4259 15.2034 19.7742 15.6899 19.077C16.1765 18.3495 16.6478 17.5766 17.1039 16.7581C17.6208 15.8488 18.1833 14.9546 18.7914 14.0755C19.43 13.1965 20.2662 12.5599 21.3 12.1658C21.6345 11.8324 21.9386 11.499 22.2122 11.1655C22.5163 10.8321 22.8812 10.5896 23.3069 10.4381L23.3525 10.3926L23.6261 10.8473C23.7478 10.7563 23.839 10.6654 23.8998 10.5745C23.991 10.4835 24.0822 10.3926 24.1735 10.3016C24.4775 9.99853 24.66 9.8015 24.7208 9.71056C24.7816 9.58931 24.812 9.3165 24.812 8.89213C25.2681 8.52839 25.6786 8.33136 26.0435 8.30105C26.4388 8.27073 26.7884 8.34651 27.0925 8.52839C27.427 8.67995 27.7615 8.89213 28.0959 9.16494C28.4304 9.43775 28.7801 9.68025 29.145 9.89243V9.9379C29.3882 11.4838 29.6011 13.0146 29.7835 14.5302C29.9964 16.0458 30.1028 17.5917 30.1028 19.168C30.1028 19.9864 30.0724 20.729 30.0116 21.3959C29.9812 22.0324 29.9052 22.669 29.7835 23.3056C29.6923 23.9118 29.5555 24.5332 29.373 25.1698C29.221 25.8063 29.0386 26.5035 28.8257 27.2613V27.3068C29.2514 27.7614 29.6315 27.913 29.966 27.7614C30.3308 27.6099 30.6653 27.3371 30.9694 26.943C31.2735 26.5186 31.5471 26.0791 31.7904 25.6244C32.064 25.1394 32.3225 24.7757 32.5658 24.5332H32.6114C32.581 24.2301 32.6722 23.8663 32.885 23.442C33.0979 22.9873 33.3411 22.5326 33.6148 22.0779C33.8885 21.6232 34.1317 21.1989 34.3446 20.8048C34.5574 20.3804 34.6486 20.0773 34.6182 19.8954C35.2264 19.0164 35.7737 18.1525 36.2602 17.3038C36.7771 16.4247 37.2484 15.5153 37.6741 14.5757C37.8261 14.6969 37.9478 14.6969 38.039 14.5757C38.1302 14.4544 38.2214 14.3483 38.3127 14.2574H38.3583C38.4799 13.5299 38.7231 12.9388 39.088 12.4841C39.4833 11.9991 39.909 11.5748 40.3651 11.211C40.8516 10.817 41.3533 10.4381 41.8703 10.0743C42.3872 9.71056 42.8585 9.28619 43.2842 8.8012C43.9531 8.8012 44.5461 8.9376 45.063 9.21041C45.6103 9.45291 45.9144 9.96821 45.9752 10.7563C45.8231 11.2413 45.7319 11.7415 45.7015 12.2568C45.7015 12.7418 45.6863 13.2419 45.6559 13.7572C45.6559 14.2725 45.6255 14.7878 45.5647 15.3032C45.5039 15.7881 45.367 16.258 45.1542 16.7127C45.1542 16.7733 45.1086 16.9703 45.0174 17.3038C44.9261 17.6372 44.8197 18.0161 44.6981 18.4405C44.6069 18.8345 44.5005 19.2134 44.3788 19.5772C44.2572 19.9409 44.1812 20.1683 44.1508 20.2592C43.7251 21.5626 43.3906 22.8054 43.1473 23.9876C42.9041 25.1394 42.7825 26.4277 42.7825 27.8524C42.6608 27.9736 42.5392 28.0949 42.4176 28.2161C42.3264 28.3374 42.2199 28.4435 42.0983 28.5344L42.1439 28.5799C42.2655 28.883 42.3264 29.1558 42.3264 29.3983C42.3264 29.7317 42.2351 30.0955 42.0527 30.4895C41.9007 30.8836 41.7486 31.2777 41.5966 31.6717C41.475 32.0355 41.4142 32.4144 41.4142 32.8084C41.4142 33.1722 41.5966 33.5056 41.9615 33.8087C41.9615 34.2937 41.8855 34.8242 41.7334 35.4001C41.5814 35.9457 41.4446 36.5065 41.3229 37.0824C41.2317 37.628 41.1861 38.1737 41.1861 38.7193C41.1861 39.2649 41.3381 39.7651 41.6422 40.2197L41.6878 40.2652C42.1743 40.2652 42.5392 40.2197 42.7825 40.1288C43.0257 40.0379 43.2234 39.9772 43.3754 39.9469C43.5578 39.9166 43.7555 39.9469 43.9683 40.0379C44.1812 40.0985 44.5157 40.2955 44.9718 40.6289L47.5715 38.8557C47.9364 38.5829 48.2557 38.2949 48.5294 37.9918C48.8334 37.6887 49.1375 37.4159 49.4416 37.1734C49.7456 36.9309 50.0801 36.749 50.445 36.6277C50.8099 36.5065 51.2508 36.4913 51.7677 36.5823L51.8133 36.4913C52.239 35.8851 52.7711 35.3698 53.4097 34.9454C54.0786 34.521 54.778 34.1422 55.5077 33.8087C56.2375 33.445 56.9825 33.1115 57.7426 32.8084C58.5028 32.475 59.187 32.0961 59.7951 31.6717Z" fill="white"/>
<path d="M84.4247 31.2625C84.5463 31.7172 84.5007 32.1112 84.2878 32.4447C84.075 32.7478 83.7861 33.0206 83.4212 33.2631C83.0868 33.5056 82.7067 33.7329 82.281 33.9451C81.8857 34.127 81.5512 34.3392 81.2775 34.5817C79.9092 34.8848 78.6626 35.1121 77.5375 35.2637C76.4429 35.3849 75.2266 35.5517 73.8887 35.7638C73.4934 35.8245 73.1133 35.8245 72.7484 35.7638C72.4139 35.6729 72.0643 35.6426 71.6994 35.6729C71.4865 35.6729 71.2889 35.6729 71.1065 35.6729C70.924 35.6426 70.7416 35.6426 70.5591 35.6729C69.8598 35.7335 69.4037 35.976 69.1908 36.4004C68.978 36.7945 68.7955 37.2643 68.6435 37.8099C68.5219 38.3252 68.3546 38.8254 68.1418 39.3104C67.9593 39.7651 67.5489 40.0833 66.9103 40.2652C66.8495 40.4168 66.8647 40.5532 66.9559 40.6744C67.0775 40.7957 67.1688 40.9018 67.2296 40.9927C66.7127 41.1443 66.363 41.4171 66.1805 41.8111C66.0285 42.2052 65.8917 42.5992 65.7701 42.9933C65.6484 43.3874 65.466 43.7208 65.2227 43.9936C65.0099 44.2664 64.5842 44.3573 63.9456 44.2664C63.003 45.2667 61.8932 46.07 60.6161 46.6762C59.339 47.3128 58.0163 47.722 56.648 47.9039C56.4047 47.7826 56.1615 47.6311 55.9182 47.4492C55.7054 47.2673 55.4773 47.1006 55.2341 46.949C55.0212 46.7975 54.778 46.6762 54.5043 46.5853C54.2611 46.5247 53.9722 46.5247 53.6377 46.5853C53.6073 45.9487 53.4857 45.3576 53.2728 44.812C53.0296 44.2664 52.7255 43.7511 52.3606 43.2661C52.2998 42.7205 52.3758 42.2203 52.5887 41.7657C52.7711 41.2807 52.9688 40.8108 53.1816 40.3561C53.3945 39.9015 53.5769 39.4468 53.7289 38.9921C53.8506 38.5071 53.8202 37.9615 53.6377 37.3552C53.9418 37.1734 54.1394 36.9612 54.2306 36.7187C54.3523 36.4762 54.4283 36.2337 54.4587 35.9912C54.5195 35.7184 54.5955 35.4759 54.6867 35.2637C54.778 35.0212 54.9908 34.8242 55.3253 34.6726C55.082 33.9451 55.1124 33.4147 55.4165 33.0812C55.751 32.7175 56.1463 32.3992 56.6024 32.1264C57.0585 31.8536 57.4842 31.5505 57.8795 31.217C58.2748 30.8836 58.4268 30.3834 58.3356 29.7166C58.518 29.5347 58.7309 29.3831 58.9741 29.2619C59.2174 29.1406 59.4454 29.0346 59.6583 28.9436C59.9015 28.8224 60.1296 28.7011 60.3424 28.5799C60.5553 28.4586 60.7529 28.2919 60.9354 28.0797C60.7225 27.9282 60.6161 27.7766 60.6161 27.625C60.6465 27.4735 60.6921 27.3219 60.7529 27.1704C60.8137 26.9885 60.8745 26.8066 60.9354 26.6247C61.0266 26.4429 61.0266 26.261 60.9354 26.0791C61.7563 26.2004 62.4709 26.0943 63.079 25.7608C63.7176 25.3971 64.3105 25.0333 64.8578 24.6696C65.4356 24.3059 66.0133 24.0482 66.591 23.8966C67.1688 23.7451 67.8377 23.927 68.5979 24.4423C68.6587 24.6544 68.7499 24.9727 68.8716 25.3971C69.0236 25.7912 69.1604 26.2004 69.282 26.6247C69.4341 27.0491 69.5709 27.4583 69.6925 27.8524C69.8142 28.2464 69.8902 28.5344 69.9206 28.7163C69.9206 28.8678 69.9206 29.1103 69.9206 29.4438C69.9206 29.7772 69.9206 30.1409 69.9206 30.535C69.9206 30.8988 69.9206 31.2473 69.9206 31.5808C69.9206 31.9142 69.9206 32.1719 69.9206 32.3537C70.8024 32.869 71.6842 33.1873 72.566 33.3086C73.4478 33.3995 74.3296 33.1873 75.2114 32.672C75.5459 32.9751 75.8651 33.0661 76.1692 32.9448C76.4733 32.7933 76.7621 32.6265 77.0358 32.4447C77.3399 32.2628 77.6439 32.1719 77.948 32.1719C78.2521 32.1415 78.5561 32.384 78.8602 32.8994C79.2859 32.5053 79.7268 32.2628 80.1829 32.1719C80.639 32.0506 81.1103 31.99 81.5968 31.99C82.0833 31.9597 82.5546 31.9142 83.0107 31.8536C83.4973 31.793 83.9686 31.5959 84.4247 31.2625ZM66.9103 32.0355C66.9103 31.5808 66.9863 31.0958 67.1384 30.5805C67.2904 30.0652 67.412 29.565 67.5032 29.08C67.5945 28.5647 67.5793 28.0797 67.4576 27.625C67.3664 27.1704 67.0775 26.7611 66.591 26.3974C66.2566 26.5793 65.9829 26.8369 65.7701 27.1704C65.5572 27.4735 65.3444 27.7918 65.1315 28.1252C64.9187 28.4283 64.6602 28.686 64.3561 28.8981C64.0825 29.1103 63.7176 29.171 63.2615 29.08C63.1095 29.4438 63.1095 29.7469 63.2615 29.9894C63.4135 30.2016 63.596 30.4138 63.8088 30.6259C64.0217 30.8078 64.2193 31.0048 64.4017 31.217C64.6146 31.4292 64.6906 31.702 64.6298 32.0355C64.7514 32.1264 64.9187 32.2173 65.1315 32.3083C65.3444 32.3689 65.5572 32.4144 65.7701 32.4447C66.0133 32.4447 66.2414 32.4144 66.4542 32.3537C66.6671 32.2931 66.8191 32.187 66.9103 32.0355ZM66.591 35.6729C65.9829 35.6729 65.4508 35.5365 64.9947 35.2637C64.569 34.9606 64.1281 34.6271 63.672 34.2634C63.2463 33.8997 62.7902 33.5662 62.3037 33.2631C61.8476 32.9297 61.285 32.7326 60.6161 32.672C60.3424 33.0358 60.0232 33.3843 59.6583 33.7178C59.2934 34.0209 58.9741 34.3543 58.7005 34.7181C58.4268 35.0818 58.2291 35.4759 58.1075 35.9003C58.0163 36.3246 58.0923 36.8096 58.3356 37.3552C57.6362 37.6887 57.1649 38.1737 56.9217 38.8102C56.6784 39.4165 56.5112 40.0833 56.4199 40.8108C56.3591 41.5383 56.2983 42.2658 56.2375 42.9933C56.1767 43.7208 55.979 44.3725 55.6446 44.9484L56.648 44.2664C56.7696 44.327 56.8608 44.418 56.9217 44.5392C57.0129 44.6605 57.0281 44.7969 56.9673 44.9484C57.2105 44.7059 57.4842 44.5241 57.7882 44.4028C58.0923 44.2513 58.3964 44.1452 58.7005 44.0845C59.0349 43.9936 59.3542 43.9178 59.6583 43.8572C59.9927 43.7966 60.312 43.7056 60.6161 43.5844C61.3763 44.0088 61.9236 44.0997 62.2581 43.8572C62.5925 43.6147 62.8662 43.2509 63.079 42.766C63.2919 42.281 63.5199 41.7808 63.7632 41.2655C64.0065 40.7199 64.4017 40.3865 64.9491 40.2652L64.6298 39.9469C65.1467 39.3104 65.6028 38.6587 65.9981 37.9918C66.4238 37.2946 66.6214 36.5217 66.591 35.6729Z" fill="white"/>
<path d="M111.335 36.5368C110.635 36.8702 110.164 37.2795 109.921 37.7645C109.678 38.2494 109.48 38.7496 109.328 39.2649C109.206 39.7802 109.039 40.2804 108.826 40.7654C108.644 41.22 108.233 41.5989 107.595 41.9021C107.443 42.4477 107.139 42.8266 106.682 43.0388C106.257 43.2509 105.801 43.448 105.314 43.6299C104.828 43.7814 104.387 43.9936 103.991 44.2664C103.627 44.5392 103.444 45.0091 103.444 45.6759C102.836 46.0094 102.167 46.3125 101.437 46.5853C100.738 46.8581 99.993 47.0551 99.2024 47.1764C98.4422 47.3279 97.6821 47.3886 96.9219 47.3582C96.1617 47.3279 95.4472 47.1764 94.7782 46.9036C94.3221 46.6914 93.8812 46.4186 93.4555 46.0851C93.3035 45.9639 93.1514 45.8578 92.9994 45.7669C92.8778 45.7062 92.7409 45.6001 92.5889 45.4486C92.224 45.0848 91.92 44.6605 91.6767 44.1755C91.4334 43.6905 91.2358 43.1752 91.0838 42.6296C90.9317 42.0839 90.8101 41.5383 90.7189 40.9927C90.6277 40.4471 90.5516 39.9318 90.4908 39.4468L92.1784 34.9C91.2966 34.2028 90.5821 33.3995 90.0347 32.4901C89.4874 31.5505 88.8185 30.6866 88.0279 29.8984C87.8758 30.1106 87.6782 30.2925 87.4349 30.4441C87.1917 30.5956 87.1005 30.8381 87.1613 31.1716L87.6174 31.5808C86.614 32.672 85.5953 33.9148 84.5615 35.3092C83.5581 36.6732 82.7675 38.0524 82.1898 39.4468C81.5208 39.4165 81.0495 39.5832 80.7758 39.9469C80.5022 40.2804 80.2741 40.6744 80.0917 41.1291C79.9092 41.5535 79.6812 41.9475 79.4075 42.3113C79.1339 42.675 78.6778 42.8266 78.0392 42.766C77.8872 43.0994 77.7352 43.4631 77.5831 43.8572C77.4311 44.2209 77.2486 44.5695 77.0358 44.903C76.8229 45.2364 76.5645 45.5092 76.2604 45.7214C75.9564 45.9639 75.5763 46.0851 75.1202 46.0851C74.8769 45.8426 74.7401 45.585 74.7097 45.3122C74.6793 45.0394 74.7097 44.7666 74.8009 44.4937C74.8921 44.1906 75.0137 43.9027 75.1658 43.6299C75.3178 43.3267 75.4242 43.0388 75.485 42.766C75.7283 41.8869 76.1692 41.0988 76.8077 40.4016C77.4463 39.6741 78.0848 38.9618 78.7234 38.2646C79.3619 37.5371 79.9092 36.7793 80.3653 35.9912C80.8214 35.2031 81.0039 34.2786 80.9127 33.2176C81.308 33.1873 81.7032 33.1115 82.0985 32.9903C82.5242 32.8387 82.9043 32.6569 83.2388 32.4447C83.6037 32.2022 83.8773 31.9142 84.0598 31.5808C84.2726 31.217 84.3486 30.7927 84.2878 30.3077C84.0446 30.1864 83.9077 30.0197 83.8773 29.8075C83.8469 29.565 83.8469 29.3225 83.8773 29.08C84.5463 28.8678 85.0784 28.5041 85.4737 27.9888C85.8994 27.4432 86.2795 26.8672 86.614 26.261C86.9484 25.6547 87.2677 25.0485 87.5718 24.4423C87.9062 23.8057 88.3319 23.2601 88.8489 22.8054C89.2746 23.0479 89.7003 23.2601 90.126 23.442C90.5516 23.5935 90.9621 23.8057 91.3574 24.0785C91.0838 24.4423 90.9165 24.7909 90.8557 25.1243C90.7949 25.4577 90.7645 25.8063 90.7645 26.1701C90.7645 26.5035 90.7645 26.8369 90.7645 27.1704C90.7645 27.5038 90.6733 27.8524 90.4908 28.2161C90.9773 28.6405 91.3878 29.1406 91.7223 29.7166C92.0568 30.2925 92.4825 30.7775 92.9994 31.1716C93.3643 30.8988 93.7748 30.7623 94.2309 30.7623C94.687 30.732 95.1431 30.732 95.5992 30.7623C96.0857 30.7623 96.5418 30.732 96.9675 30.6714C97.3932 30.5805 97.7429 30.3228 98.0165 29.8984C98.1382 30.0197 98.3206 30.0803 98.5639 30.0803C98.8071 30.0803 99.0504 30.0803 99.2936 30.0803C99.5369 30.0803 99.7497 30.1258 99.9322 30.2167C100.115 30.2774 100.221 30.4138 100.251 30.6259C100.282 30.8684 100.267 31.0352 100.206 31.1261C100.175 31.217 100.13 31.3686 100.069 31.5808C100.008 31.8233 99.993 31.9445 100.023 31.9445C100.054 31.9445 100.023 32.0506 99.9322 32.2628C99.7801 32.6569 99.5217 32.9903 99.1568 33.2631C98.8223 33.5359 98.4726 33.8087 98.1077 34.0815C97.7733 34.324 97.454 34.612 97.1499 34.9454C96.8763 35.2485 96.7394 35.6426 96.7394 36.1276C96.0705 36.3701 95.5992 36.7338 95.3255 37.2188C95.0519 37.6735 94.8694 38.204 94.7782 38.8102C94.687 39.3862 94.6262 39.9924 94.5958 40.6289C94.5654 41.2352 94.4589 41.796 94.2765 42.3113L94.687 42.766L95.0519 42.3113C95.4776 42.9175 95.9793 43.2964 96.557 43.448C97.1651 43.5995 97.7885 43.645 98.427 43.5844C98.7311 43.1297 99.0808 42.766 99.4761 42.4931C99.9018 42.2203 100.343 41.993 100.799 41.8111C101.285 41.6292 101.772 41.4625 102.258 41.311C102.775 41.1594 103.262 40.9775 103.718 40.7654C104.083 40.5835 104.387 40.3865 104.63 40.1743C104.904 39.9621 105.193 39.7196 105.497 39.4468C106.409 38.598 107.306 37.7645 108.188 36.946C109.1 36.1276 110.012 35.294 110.924 34.4453C111.107 34.4453 111.228 34.5362 111.289 34.7181C111.35 34.9 111.38 35.1121 111.38 35.3546C111.38 35.5668 111.365 35.7942 111.335 36.0367C111.335 36.2488 111.335 36.4156 111.335 36.5368Z" fill="white"/>
<path d="M140.708 40.7654C140.282 41.4928 139.948 42.0839 139.704 42.5386C139.492 42.963 139.263 43.3267 139.02 43.6299C138.807 43.9027 138.549 44.1603 138.245 44.4028C137.971 44.615 137.576 44.8878 137.059 45.2212C136.724 45.5244 136.39 45.782 136.056 45.9942C135.782 46.2064 135.508 46.3883 135.235 46.5398C134.991 46.6914 134.794 46.7672 134.642 46.7672C134.581 46.7672 134.52 46.752 134.459 46.7217C134.398 46.7217 134.338 46.7217 134.277 46.7217C134.094 46.7217 133.912 46.7217 133.729 46.7217C133.577 46.752 133.441 46.6459 133.319 46.4034C133.228 46.4943 133.152 46.6004 133.091 46.7217C133.03 46.8429 132.969 46.949 132.908 47.04C132.848 47.1612 132.756 47.2522 132.635 47.3128C132.544 47.3734 132.407 47.3734 132.224 47.3128L131.996 47.04L131.312 47.6311C130.461 47.2067 129.64 46.8429 128.849 46.5398C128.089 46.267 127.405 45.9336 126.797 45.5395C126.188 45.1455 125.672 44.6453 125.246 44.0391C124.82 43.4025 124.516 42.5386 124.334 41.4474C124.182 41.2655 124.014 41.1139 123.832 40.9927C123.65 40.8411 123.437 40.7957 123.193 40.8563C122.889 41.3716 122.524 41.8111 122.099 42.1749C121.673 42.5386 121.247 42.9327 120.822 43.357C120.67 43.5086 120.548 43.6753 120.457 43.8572C120.366 44.0391 120.244 44.2058 120.092 44.3573C119.849 44.6301 119.56 44.8272 119.225 44.9484C118.891 45.0394 118.556 45.1303 118.222 45.2212C117.887 45.3122 117.568 45.4637 117.264 45.6759C116.99 45.8881 116.793 46.2519 116.671 46.7672C116.306 46.555 115.941 46.4943 115.576 46.5853C115.303 46.6459 115.014 46.7065 114.71 46.7672C114.406 46.8581 114.102 46.9036 113.798 46.9036C113.524 46.9339 113.25 46.9036 112.977 46.8126C112.703 46.7217 112.46 46.5247 112.247 46.2215C111.821 46.4034 111.426 46.3883 111.061 46.1761C110.696 45.9942 110.347 45.7365 110.012 45.4031C109.708 45.0394 109.404 44.6605 109.1 44.2664C108.796 43.8723 108.507 43.5844 108.233 43.4025C108.051 42.9175 108.066 42.5083 108.279 42.1749C108.461 41.8111 108.674 41.4777 108.917 41.1746C109.13 40.8411 109.282 40.5229 109.373 40.2197C109.465 39.8863 109.328 39.4922 108.963 39.0376C109.267 38.5829 109.541 38.113 109.784 37.628C110.027 37.1127 110.271 36.6126 110.514 36.1276C110.787 35.6123 111.061 35.1273 111.335 34.6726C111.639 34.1876 112.004 33.7784 112.429 33.445C112.247 33.2328 112.156 33.0358 112.156 32.8539C112.156 32.6417 112.201 32.4447 112.293 32.2628C112.384 32.0506 112.49 31.8536 112.612 31.6717C112.733 31.4595 112.825 31.2625 112.885 31.0806L114.208 30.4441L113.889 29.3528C114.223 29.4135 114.467 29.3983 114.619 29.3074C114.801 29.2164 114.923 29.08 114.984 28.8981C115.075 28.7163 115.136 28.5192 115.166 28.3071C115.227 28.0646 115.303 27.8524 115.394 27.6705C115.546 27.3977 115.774 27.2007 116.078 27.0794C116.717 26.5944 117.34 26.0791 117.948 25.5335C118.587 24.9879 119.21 24.4574 119.818 23.9421C120.457 23.4268 121.111 22.9418 121.779 22.4871C122.448 22.0021 123.178 21.5929 123.969 21.2595C124.516 21.3504 124.942 21.5171 125.246 21.7596C125.58 22.0021 125.824 22.2901 125.976 22.6235C126.158 22.957 126.295 23.3359 126.386 23.7602C126.477 24.1543 126.569 24.5484 126.66 24.9424C126.812 25.4577 126.994 25.8972 127.207 26.261C127.42 26.6247 127.785 26.9279 128.302 27.1704C127.876 27.8978 127.709 28.6253 127.8 29.3528C127.891 30.05 127.982 30.7927 128.074 31.5808C128.165 32.3083 128.15 33.0206 128.028 33.7178C127.937 34.415 127.496 35.0364 126.705 35.582C126.645 35.7942 126.629 36.0215 126.66 36.264C126.69 36.5065 126.705 36.749 126.705 36.9915C126.705 37.234 126.66 37.4613 126.569 37.6735C126.477 37.8857 126.31 38.0524 126.067 38.1737C126.341 38.5071 126.477 38.8405 126.477 39.174C126.508 39.5074 126.523 39.8257 126.523 40.1288C126.553 40.4319 126.629 40.7047 126.751 40.9472C126.903 41.1897 127.238 41.3716 127.754 41.4928C127.846 41.8869 127.922 42.19 127.982 42.4022C128.074 42.5841 128.165 42.7356 128.256 42.8569C128.378 42.9781 128.53 43.0994 128.712 43.2206C128.895 43.3116 129.138 43.4631 129.442 43.6753C129.685 43.7359 129.959 43.7359 130.263 43.6753C130.567 43.6147 130.81 43.7056 130.993 43.9481C131.145 43.7966 131.327 43.7208 131.54 43.7208C131.753 43.6905 131.951 43.6905 132.133 43.7208L132.726 44.7211C133.06 44.4786 133.441 44.2664 133.866 44.0845C134.292 43.9027 134.702 43.7511 135.098 43.6299C135.554 43.5086 136.01 43.4025 136.466 43.3116L140.708 40.7654ZM123.193 25.2152C122.92 25.4577 122.585 25.7002 122.19 25.9427C121.795 26.1852 121.399 26.4429 121.004 26.7157C120.639 26.9885 120.32 27.2916 120.046 27.625C119.773 27.9282 119.605 28.2919 119.545 28.7163C118.845 28.8375 118.359 29.1255 118.085 29.5802C117.811 30.0349 117.583 30.535 117.401 31.0806C117.218 31.6262 117.021 32.1719 116.808 32.7175C116.595 33.2328 116.215 33.642 115.668 33.9451C115.485 34.0664 115.318 34.127 115.166 34.127C115.196 34.127 115.105 34.1876 114.892 34.3089C114.558 34.5514 114.269 34.8545 114.026 35.2182C113.782 35.582 113.57 35.976 113.387 36.4004C113.235 36.8248 113.083 37.2643 112.931 37.719C112.809 38.1434 112.688 38.5374 112.566 38.9012C112.141 38.9618 111.821 39.0527 111.608 39.174C111.396 39.2952 111.259 39.4316 111.198 39.5832C111.168 39.7044 111.183 39.856 111.244 40.0379C111.304 40.2197 111.396 40.4168 111.517 40.6289C111.639 40.8108 111.76 41.023 111.882 41.2655C112.034 41.508 112.156 41.7505 112.247 41.993C112.338 42.2355 112.384 42.478 112.384 42.7205C112.414 42.963 112.353 43.1903 112.201 43.4025C112.627 43.7359 113.038 43.8117 113.433 43.6299C113.828 43.4177 114.193 43.1903 114.527 42.9478C114.649 42.8569 114.771 42.766 114.892 42.675C115.044 42.5538 115.196 42.4628 115.348 42.4022C116.048 42.5538 116.686 42.5083 117.264 42.2658C117.842 42.0233 118.374 41.6899 118.86 41.2655C119.347 40.8411 119.818 40.3865 120.274 39.9015C120.73 39.4165 121.187 38.9921 121.643 38.6283L121.278 38.2646C121.825 38.113 122.205 37.916 122.418 37.6735C122.661 37.4007 122.813 37.0976 122.874 36.7641C122.935 36.4307 122.935 36.0821 122.874 35.7184C122.813 35.3243 122.768 34.9151 122.737 34.4907C122.707 34.2482 122.692 34.0209 122.692 33.8087C122.722 33.5662 122.783 33.3237 122.874 33.0812C122.631 32.384 122.585 31.7172 122.737 31.0806C122.92 30.4441 123.148 29.8378 123.421 29.2619C123.726 28.6557 124.014 28.0494 124.288 27.4432C124.562 26.8369 124.699 26.2004 124.699 25.5335L123.193 25.2152Z" fill="white"/>
<path d="M173.456 28.0797C173.334 28.7163 173.076 29.3074 172.681 29.853C172.316 30.3986 171.86 30.8836 171.312 31.308C170.795 31.7323 170.233 32.0961 169.625 32.3992C169.017 32.672 168.408 32.869 167.8 32.9903C166.888 33.3843 166.037 33.6875 165.246 33.8997C164.486 34.0815 163.711 34.2028 162.92 34.2634C162.129 34.324 161.308 34.3392 160.457 34.3089C159.606 34.2786 158.648 34.2331 157.584 34.1725C157.31 34.2634 157.112 34.415 156.991 34.6271C156.899 34.8393 156.839 35.0667 156.808 35.3092C156.808 35.5517 156.823 35.8093 156.854 36.0821C156.884 36.3246 156.884 36.552 156.854 36.7641C156.58 36.7338 156.352 36.8248 156.17 37.037C156.018 37.2491 155.866 37.431 155.714 37.5826C155.744 38.2191 155.653 38.7041 155.44 39.0376C155.227 39.3407 154.969 39.6135 154.665 39.856C154.391 40.0682 154.072 40.3107 153.707 40.5835C153.372 40.826 153.083 41.1897 152.84 41.6747C152.718 41.8566 152.642 42.0385 152.612 42.2203C152.582 42.3719 152.536 42.5689 152.475 42.8114C152.384 43.2358 152.171 43.4934 151.837 43.5844C151.533 43.6753 151.213 43.7511 150.879 43.8117C150.544 43.842 150.24 43.933 149.967 44.0845C149.693 44.2058 149.541 44.5241 149.511 45.0394C148.842 45.2212 148.188 45.5092 147.549 45.9033C146.911 46.3276 146.272 46.7368 145.634 47.1309C144.995 47.525 144.341 47.8129 143.672 47.9948C143.034 48.207 142.35 48.1918 141.62 47.9493C141.468 47.8887 141.255 47.7978 140.981 47.6765C140.738 47.5553 140.556 47.434 140.434 47.3128C140.373 47.2522 140.282 47.1309 140.16 46.949C140.069 46.7975 139.993 46.6914 139.932 46.6308C139.628 46.1458 139.4 45.6153 139.248 45.0394C139.096 44.4634 138.99 43.8875 138.929 43.3116C138.868 42.7053 138.853 42.0991 138.883 41.4928C138.883 40.8866 138.883 40.3107 138.883 39.7651C139.035 39.8257 139.187 39.8105 139.339 39.7196C139.461 39.5983 139.568 39.4922 139.659 39.4013L139.248 38.2646C139.431 38.3252 139.583 38.3101 139.704 38.2191C139.826 38.1282 139.932 38.0221 140.024 37.9009C139.568 37.6584 139.339 37.4159 139.339 37.1734C139.309 36.9006 139.37 36.6277 139.522 36.3549C139.674 36.0518 139.856 35.7487 140.069 35.4456C140.312 35.1424 140.434 34.8242 140.434 34.4907C140.465 33.7632 140.541 33.0812 140.662 32.4447C140.814 31.7778 140.981 31.1261 141.164 30.4895C141.346 29.853 141.544 29.2164 141.757 28.5799C141.97 27.9433 142.152 27.2764 142.304 26.5793C142.821 26.5186 143.292 26.2913 143.718 25.8972C144.144 25.4729 144.569 25.0788 144.995 24.7151C145.421 24.3513 145.862 24.124 146.318 24.0331C146.804 23.9421 147.352 24.1695 147.96 24.7151C148.081 25.4426 148.021 26.1094 147.777 26.7157C147.565 27.3219 147.306 27.913 147.002 28.4889C146.698 29.0649 146.424 29.656 146.181 30.2622C145.968 30.8684 145.938 31.5353 146.09 32.2628C144.934 32.7781 144.174 33.5208 143.809 34.4907C143.475 35.4607 143.247 36.5065 143.125 37.628C143.095 37.9615 143.049 38.3252 142.988 38.7193C142.927 39.083 142.821 39.4316 142.669 39.7651C142.851 40.1894 142.882 40.6138 142.76 41.0382C142.639 41.4322 142.517 41.8263 142.395 42.2203C142.304 42.6144 142.274 42.9781 142.304 43.3116C142.335 43.645 142.578 43.9633 143.034 44.2664C145.041 43.6905 146.759 42.8417 148.188 41.7202C149.617 40.5986 150.924 39.2043 152.11 37.5371C152.779 36.5974 153.387 35.6729 153.935 34.7635C154.512 33.8239 154.984 32.869 155.349 31.8991C155.714 30.9291 155.957 29.9136 156.078 28.8527C156.2 27.7918 156.139 26.6702 155.896 25.488C156.2 25.4577 156.474 25.3062 156.717 25.0333C156.96 24.7605 157.203 24.5332 157.447 24.3513C157.69 24.1391 157.933 24.0331 158.177 24.0331C158.42 24.0331 158.678 24.2604 158.952 24.7151C159.408 24.9273 159.636 25.1849 159.636 25.488C159.666 25.7608 159.621 26.0488 159.499 26.3519C159.408 26.6551 159.332 26.9582 159.271 27.2613C159.21 27.5644 159.347 27.8524 159.682 28.1252C159.59 28.1858 159.484 28.3222 159.362 28.5344C159.241 28.7163 159.134 28.9436 159.043 29.2164C158.952 29.4589 158.876 29.7014 158.815 29.9439C158.754 30.1561 158.739 30.3077 158.769 30.3986C159.043 30.8836 159.347 31.1412 159.682 31.1716C160.016 31.1716 160.366 31.1109 160.731 30.9897C161.096 30.8684 161.46 30.7927 161.825 30.7623C162.221 30.7017 162.586 30.8381 162.92 31.1716C163.68 31.0806 164.364 30.9897 164.972 30.8988C165.581 30.7775 166.158 30.6563 166.706 30.535C167.283 30.4138 167.861 30.2774 168.439 30.1258C169.047 29.9439 169.731 29.762 170.491 29.5802C170.887 29.0952 171.327 28.7617 171.814 28.5799C172.331 28.398 172.878 28.2313 173.456 28.0797Z" fill="white"/>
<path d="M200.275 31.6262C200.001 31.8991 199.788 32.1112 199.636 32.2628C199.515 32.4144 199.393 32.5659 199.271 32.7175C199.18 32.8387 199.059 32.9751 198.907 33.1267C198.785 33.2783 198.587 33.5056 198.314 33.8087C198.07 34.0512 197.842 34.3089 197.629 34.5817C197.417 34.8545 197.173 35.097 196.9 35.3092C196.535 35.2182 196.246 35.2637 196.033 35.4456C195.851 35.6274 195.668 35.8396 195.486 36.0821C195.334 36.2943 195.182 36.5065 195.03 36.7187C194.908 36.9006 194.741 36.9763 194.528 36.946C193.798 37.3401 193.068 37.6887 192.339 37.9918C191.609 38.2646 190.91 38.6738 190.241 39.2194L189.876 38.8557L185.132 41.1291C184.98 41.1897 184.828 41.2807 184.676 41.4019C184.524 41.5232 184.372 41.6292 184.22 41.7202C183.551 42.0839 182.852 42.4174 182.122 42.7205C181.423 42.9933 180.723 43.2509 180.024 43.4934L179.431 43.6753C179.674 44.2816 179.674 44.7059 179.431 44.9484C179.188 45.1909 178.838 45.3728 178.382 45.494C177.926 45.585 177.424 45.6456 176.877 45.6759C176.329 45.7062 175.904 45.8123 175.6 45.9942C175.235 45.9336 174.855 45.9033 174.459 45.9033C174.095 45.9336 173.714 45.979 173.319 46.0397C172.893 46.1003 172.498 46.1306 172.133 46.1306C171.768 46.1306 171.373 46.0851 170.947 45.9942H170.856C170.339 46.2367 169.883 46.2822 169.488 46.1306C169.123 46.0094 168.789 45.7972 168.484 45.494C168.18 45.1606 167.892 44.7817 167.618 44.3573C167.375 43.9027 167.116 43.4934 166.842 43.1297C166.66 42.8872 166.432 42.5386 166.158 42.0839C165.885 41.6292 165.657 41.1443 165.474 40.6289C165.261 40.1136 165.14 39.5983 165.109 39.083C165.048 38.5374 165.155 38.0676 165.429 37.6735C165.702 37.2795 165.93 36.8551 166.113 36.4004C166.265 35.9457 166.341 35.4153 166.341 34.809C166.341 34.5968 166.341 34.3998 166.341 34.2179C166.31 34.0361 166.295 33.839 166.295 33.6268C166.447 33.6268 166.614 33.642 166.797 33.6723C166.979 33.6723 167.147 33.6723 167.299 33.6723C167.481 33.642 167.618 33.5814 167.709 33.4904C167.831 33.3692 167.892 33.1722 167.892 32.8994C167.892 32.7478 167.831 32.6265 167.709 32.5356C167.618 32.4447 167.557 32.3537 167.527 32.2628C167.709 31.99 167.876 31.7778 168.028 31.6262C168.211 31.4444 168.363 31.2777 168.484 31.1261C168.606 30.9442 168.697 30.7472 168.758 30.535C168.819 30.2925 168.804 29.9742 168.712 29.5802C169.077 28.9436 169.503 28.3828 169.99 27.8978C170.507 27.3825 171.039 26.9127 171.586 26.4883C172.133 26.0337 172.696 25.5941 173.274 25.1698C173.851 24.7454 174.399 24.2907 174.915 23.8057C175.493 24.0482 175.949 24.0482 176.284 23.8057C176.649 23.5632 176.968 23.3056 177.242 23.0327C177.515 22.7296 177.789 22.4871 178.063 22.3053C178.336 22.1234 178.701 22.1992 179.157 22.5326L179.248 22.6235C180.069 21.8051 180.89 21.4414 181.711 21.5323C182.563 21.6232 183.277 21.896 183.855 22.3507C184.463 22.8054 184.859 23.3359 185.041 23.9421C185.223 24.518 185.056 24.9121 184.539 25.1243C184.874 25.4577 185.041 25.8518 185.041 26.3065C185.041 26.7611 184.919 27.1552 184.676 27.4886C184.402 27.8524 184.159 28.2313 183.946 28.6253C183.764 28.9891 183.566 29.3831 183.353 29.8075C183.049 30.5047 182.715 31.1716 182.35 31.8081C181.985 32.4144 181.468 32.9297 180.799 33.354C180.252 33.2025 179.872 33.2631 179.659 33.5359C179.477 33.8087 179.34 34.1118 179.248 34.4453C179.157 34.7484 179.051 34.9909 178.929 35.1728C178.808 35.3546 178.549 35.294 178.154 34.9909L178.063 34.9L177.971 34.9909C177.728 35.2334 177.53 35.5062 177.378 35.8093C177.257 36.1124 177.074 36.3398 176.831 36.4913C176.557 36.4004 176.269 36.3246 175.965 36.264C175.66 36.2034 175.372 36.1427 175.098 36.0821C175.098 36.7187 174.976 37.2188 174.733 37.5826C174.49 37.9463 174.171 38.2494 173.775 38.4919C173.41 38.7041 172.985 38.886 172.498 39.0376C172.012 39.1588 171.525 39.3255 171.039 39.5377C170.583 39.7196 170.142 39.9621 169.716 40.2652C169.321 40.538 169.001 40.9321 168.758 41.4474C169.062 41.7808 169.442 41.9778 169.898 42.0385C170.354 42.0688 170.826 42.0688 171.312 42.0385C171.799 41.9778 172.27 41.9475 172.726 41.9475C173.213 41.9475 173.638 42.0688 174.003 42.3113L174.049 42.3567L174.095 42.3113C174.824 42.2203 175.524 42.0536 176.193 41.8111C176.892 41.5383 177.561 41.2655 178.199 40.9927C178.868 40.6896 179.537 40.4168 180.206 40.1743C180.906 39.9015 181.62 39.7044 182.35 39.5832C182.502 39.8257 182.7 39.9621 182.943 39.9924C183.217 40.0227 183.475 40.0075 183.718 39.9469L183.764 39.856C183.825 39.6438 183.886 39.4619 183.946 39.3104C184.007 39.1285 184.098 38.9315 184.22 38.7193C184.433 38.3858 184.691 38.1282 184.995 37.9463C185.299 37.7645 185.619 37.628 185.953 37.5371C186.318 37.4462 186.698 37.3855 187.093 37.3552C187.489 37.3249 187.884 37.2795 188.279 37.2188H188.371L188.416 37.0824C188.538 36.7187 188.69 36.4762 188.872 36.3549C189.085 36.2034 189.298 36.0973 189.511 36.0367C189.754 35.976 189.997 35.9306 190.241 35.9003C190.514 35.8699 190.773 35.779 191.016 35.6274C191.563 35.8093 192.019 35.7487 192.384 35.4456C192.749 35.1424 193.099 34.8242 193.433 34.4907L193.798 34.9454L193.935 34.7635C194.391 34.3392 194.726 34.0209 194.938 33.8087C195.182 33.5965 195.41 33.4147 195.623 33.2631C195.835 33.0812 196.079 32.9145 196.352 32.7629C196.656 32.5811 197.067 32.3234 197.584 31.99C198.01 31.7172 198.42 31.4444 198.815 31.1716C199.241 30.8988 199.651 30.5956 200.047 30.2622C200.199 30.3228 200.275 30.4441 200.275 30.6259C200.275 30.7775 200.275 30.9291 200.275 31.0806C200.244 31.1412 200.214 31.2322 200.184 31.3534C200.184 31.4747 200.214 31.5656 200.275 31.6262ZM181.392 25.9427C181.362 25.9124 181.331 25.8972 181.301 25.8972C181.301 25.8972 181.286 25.8821 181.255 25.8518C180.617 25.5183 180.085 25.3668 179.659 25.3971C179.233 25.3971 178.838 25.5183 178.473 25.7608C178.139 25.973 177.819 26.261 177.515 26.6247C177.242 26.9582 176.938 27.2764 176.603 27.5796C176.299 27.8524 175.934 28.0646 175.508 28.2161C175.083 28.3677 174.566 28.3525 173.958 28.1707C173.866 28.6557 173.775 29.1406 173.684 29.6256C173.623 30.0803 173.578 30.5502 173.547 31.0352C173.03 31.217 172.62 31.4747 172.316 31.8081C172.042 32.1415 171.799 32.5053 171.586 32.8994C171.404 33.2934 171.221 33.7178 171.039 34.1725C170.887 34.5968 170.674 35.006 170.4 35.4001L170.583 35.6274C170.704 35.5668 170.841 35.6123 170.993 35.7638C171.145 35.9154 171.251 36.0215 171.312 36.0821C171.647 35.5971 172.088 35.1879 172.635 34.8545C173.213 34.521 173.79 34.2179 174.368 33.9451C174.976 33.642 175.554 33.3237 176.101 32.9903C176.649 32.6569 177.059 32.2173 177.333 31.6717C178.306 31.3989 179.036 30.8533 179.522 30.0349C180.009 29.2164 180.419 28.3677 180.754 27.4886C180.814 27.3068 180.921 27.0491 181.073 26.7157C181.255 26.3519 181.362 26.0943 181.392 25.9427Z" fill="white"/>
<path d="M224.22 30.6259C224.251 31.0806 224.159 31.5201 223.947 31.9445C223.764 32.3689 223.597 32.7478 223.445 33.0812L221.985 34.6271L221.119 37.2188C220.784 37.4613 220.419 37.7038 220.024 37.9463C219.659 38.1585 219.325 38.3858 219.021 38.6283C218.686 38.9012 218.382 39.2043 218.108 39.5377C217.865 39.8711 217.592 40.1591 217.287 40.4016C216.983 40.6441 216.619 40.8563 216.193 41.0382C215.798 41.1897 215.433 41.3716 215.098 41.5838C214.49 41.9475 213.912 42.3264 213.365 42.7205C212.848 43.1145 212.301 43.4934 211.723 43.8572C211.571 43.9178 211.449 43.9936 211.358 44.0845C211.297 44.1452 211.191 44.2058 211.039 44.2664C210.948 44.327 210.552 44.4483 209.853 44.6301C209.154 44.812 208.378 45.0242 207.527 45.2667C206.706 45.4789 205.93 45.6759 205.201 45.8578C204.471 46.0397 204.06 46.1306 203.969 46.1306C203.422 46.1912 202.859 46.2215 202.282 46.2215C201.704 46.2215 201.126 46.2367 200.548 46.267L199.864 46.6762C199.53 46.4337 199.165 46.2064 198.77 45.9942C198.374 45.782 198.04 45.5547 197.766 45.3122C197.462 45.0394 197.158 44.7362 196.854 44.4028C196.55 44.0391 196.276 43.7056 196.033 43.4025C195.881 42.9781 195.729 42.5689 195.577 42.1749C195.425 41.7505 195.303 41.3413 195.212 40.9472L194.984 39.2194C194.923 38.6435 194.862 38.0827 194.802 37.5371C194.771 36.9915 194.726 36.4307 194.665 35.8548C195.182 34.4301 195.638 33.0054 196.033 31.5808C196.459 30.1258 196.976 28.7011 197.584 27.3068C197.736 26.9733 197.873 26.6399 197.994 26.3065C198.146 25.9427 198.298 25.5941 198.45 25.2607C198.633 24.8969 198.83 24.5635 199.043 24.2604C199.256 23.927 199.439 23.5935 199.591 23.2601C199.743 22.8963 199.864 22.5326 199.956 22.1689C200.047 21.7748 200.168 21.411 200.32 21.0776C200.412 20.8957 200.564 20.6381 200.777 20.3047C200.989 19.9409 201.217 19.5772 201.461 19.2134C201.704 18.8194 201.932 18.4405 202.145 18.0767C202.388 17.713 202.586 17.425 202.738 17.2128C202.981 16.9097 203.224 16.6217 203.468 16.3489C203.711 16.0761 203.908 15.773 204.06 15.4396C204.365 14.9242 204.653 14.2725 204.927 13.4844C205.201 12.6963 205.505 11.9991 205.839 11.3929C206.204 10.726 206.63 10.1046 207.116 9.52869C207.633 8.92245 208.105 8.30105 208.53 7.66449C208.986 7.02794 209.427 6.33076 209.853 5.57295L211.86 4.11797L212.772 5.02734L214.961 4.66359L216.33 6.70966C216.269 7.16434 216.193 7.67965 216.102 8.25558C216.041 8.83151 215.98 9.4226 215.919 10.0288C215.889 10.6048 215.858 11.1807 215.828 11.7566C215.828 12.3022 215.858 12.7872 215.919 13.2116C215.767 13.7572 215.539 14.3332 215.235 14.9394C214.961 15.5153 214.642 16.0155 214.277 16.4399L214.095 18.8951L212.27 20.532L212.042 22.8509L210.492 24.6696C210.4 25.094 210.309 25.5335 210.218 25.9882C210.127 26.4126 210.005 26.8218 209.853 27.2158C209.701 27.5796 209.519 27.9585 209.306 28.3525C209.093 28.7163 208.88 29.0952 208.667 29.4892C208.059 30.0045 207.436 30.5805 206.797 31.217C206.159 31.8536 205.581 32.4901 205.064 33.1267C204.79 33.4601 204.532 33.8239 204.289 34.2179C204.076 34.5817 203.848 34.9303 203.604 35.2637C202.814 36.264 201.962 37.2037 201.05 38.0827C200.138 38.9618 199.241 39.8711 198.359 40.8108L199.363 42.5841C200.001 42.7963 200.655 42.9933 201.324 43.1752C201.993 43.357 202.662 43.5238 203.331 43.6753C203.635 43.6147 203.984 43.5541 204.38 43.4934C204.775 43.4025 205.186 43.3116 205.611 43.2206C206.037 43.0994 206.447 42.9781 206.843 42.8569C207.268 42.7356 207.618 42.6144 207.892 42.4931C208.5 42.2506 209.199 41.9021 209.99 41.4474C210.78 40.9624 211.449 40.538 211.997 40.1743C212.97 39.568 213.958 38.9466 214.961 38.3101C215.965 37.6735 216.923 37.0066 217.835 36.3095C218.443 35.8548 219.081 35.2789 219.75 34.5817C220.419 33.8845 221.043 33.2328 221.62 32.6265C222.229 31.99 222.761 31.4747 223.217 31.0806C223.703 30.6866 224.038 30.535 224.22 30.6259ZM211.814 9.11947C211.176 10.1804 210.492 11.211 209.762 12.2113C209.062 13.1813 208.409 14.1968 207.801 15.2577C207.588 15.6214 207.405 16.0003 207.253 16.3944C207.101 16.7581 206.904 17.1219 206.66 17.4856C206.447 17.8191 206.219 18.1525 205.976 18.4859C205.733 18.8194 205.52 19.1831 205.338 19.5772C204.973 20.2743 204.638 21.017 204.334 21.8051C204.06 22.5629 203.756 23.3056 203.422 24.0331C203.057 24.7605 202.631 25.4426 202.145 26.0791C201.658 26.7157 201.217 27.3977 200.822 28.1252L200.092 29.5802C200.032 29.7317 199.971 29.853 199.91 29.9439C199.849 30.0045 199.788 30.1106 199.727 30.2622C199.606 30.5956 199.545 30.9594 199.545 31.3534C199.545 31.7475 199.499 32.1112 199.408 32.4447C199.317 32.8084 199.18 33.157 198.998 33.4904C198.815 33.8239 198.648 34.1573 198.496 34.4907C198.344 34.8242 198.222 35.1728 198.131 35.5365C198.04 35.8699 197.933 36.2034 197.812 36.5368C198.055 36.2943 198.314 36.0821 198.587 35.9003C198.891 35.6881 199.18 35.4607 199.454 35.2182C199.727 34.9454 199.986 34.6575 200.229 34.3543C200.472 34.0512 200.746 33.7784 201.05 33.5359C201.324 33.2934 201.613 33.0812 201.917 32.8994C202.251 32.6872 202.571 32.475 202.875 32.2628C203.361 31.5959 203.787 30.9139 204.152 30.2167C204.334 29.8833 204.486 29.5044 204.608 29.08C204.76 28.6557 204.942 28.2768 205.155 27.9433C205.338 27.6099 205.566 27.2916 205.839 26.9885C206.143 26.6854 206.402 26.3671 206.615 26.0337C206.858 25.7002 207.056 25.3516 207.208 24.9879C207.39 24.6241 207.588 24.2755 207.801 23.9421C208.226 23.2752 208.698 22.6387 209.214 22.0324L209.442 19.168L211.084 17.2583L211.313 15.5305L212.453 13.9391L212.59 11.3929L211.814 9.11947Z" fill="white"/>
<path d="M248.667 30.6259C248.698 31.0806 248.607 31.5201 248.394 31.9445C248.211 32.3689 248.044 32.7478 247.892 33.0812L246.432 34.6271L245.566 37.2188C245.231 37.4613 244.866 37.7038 244.471 37.9463C244.106 38.1585 243.772 38.3858 243.468 38.6283C243.133 38.9012 242.829 39.2043 242.556 39.5377C242.312 39.8711 242.039 40.1591 241.735 40.4016C241.431 40.6441 241.066 40.8563 240.64 41.0382C240.245 41.1897 239.88 41.3716 239.545 41.5838C238.937 41.9475 238.359 42.3264 237.812 42.7205C237.295 43.1145 236.748 43.4934 236.17 43.8572C236.018 43.9178 235.896 43.9936 235.805 44.0845C235.744 44.1452 235.638 44.2058 235.486 44.2664C235.395 44.327 234.999 44.4483 234.3 44.6301C233.601 44.812 232.825 45.0242 231.974 45.2667C231.153 45.4789 230.378 45.6759 229.648 45.8578C228.918 46.0397 228.508 46.1306 228.416 46.1306C227.869 46.1912 227.307 46.2215 226.729 46.2215C226.151 46.2215 225.573 46.2367 224.996 46.267L224.311 46.6762C223.977 46.4337 223.612 46.2064 223.217 45.9942C222.822 45.782 222.487 45.5547 222.213 45.3122C221.909 45.0394 221.605 44.7362 221.301 44.4028C220.997 44.0391 220.723 43.7056 220.48 43.4025C220.328 42.9781 220.176 42.5689 220.024 42.1749C219.872 41.7505 219.75 41.3413 219.659 40.9472L219.431 39.2194C219.37 38.6435 219.31 38.0827 219.249 37.5371C219.218 36.9915 219.173 36.4307 219.112 35.8548C219.629 34.4301 220.085 33.0054 220.48 31.5808C220.906 30.1258 221.423 28.7011 222.031 27.3068C222.183 26.9733 222.32 26.6399 222.441 26.3065C222.593 25.9427 222.745 25.5941 222.898 25.2607C223.08 24.8969 223.278 24.5635 223.49 24.2604C223.703 23.927 223.886 23.5935 224.038 23.2601C224.19 22.8963 224.311 22.5326 224.403 22.1689C224.494 21.7748 224.616 21.411 224.768 21.0776C224.859 20.8957 225.011 20.6381 225.224 20.3047C225.437 19.9409 225.665 19.5772 225.908 19.2134C226.151 18.8194 226.379 18.4405 226.592 18.0767C226.835 17.713 227.033 17.425 227.185 17.2128C227.428 16.9097 227.671 16.6217 227.915 16.3489C228.158 16.0761 228.356 15.773 228.508 15.4396C228.812 14.9242 229.101 14.2725 229.374 13.4844C229.648 12.6963 229.952 11.9991 230.286 11.3929C230.651 10.726 231.077 10.1046 231.563 9.52869C232.08 8.92245 232.552 8.30105 232.977 7.66449C233.434 7.02794 233.874 6.33076 234.3 5.57295L236.307 4.11797L237.219 5.02734L239.408 4.66359L240.777 6.70966C240.716 7.16434 240.64 7.67965 240.549 8.25558C240.488 8.83151 240.427 9.4226 240.366 10.0288C240.336 10.6048 240.305 11.1807 240.275 11.7566C240.275 12.3022 240.305 12.7872 240.366 13.2116C240.214 13.7572 239.986 14.3332 239.682 14.9394C239.408 15.5153 239.089 16.0155 238.724 16.4399L238.542 18.8951L236.717 20.532L236.489 22.8509L234.939 24.6696C234.847 25.094 234.756 25.5335 234.665 25.9882C234.574 26.4126 234.452 26.8218 234.3 27.2158C234.148 27.5796 233.966 27.9585 233.753 28.3525C233.54 28.7163 233.327 29.0952 233.114 29.4892C232.506 30.0045 231.883 30.5805 231.244 31.217C230.606 31.8536 230.028 32.4901 229.511 33.1267C229.237 33.4601 228.979 33.8239 228.736 34.2179C228.523 34.5817 228.295 34.9303 228.051 35.2637C227.261 36.264 226.41 37.2037 225.497 38.0827C224.585 38.9618 223.688 39.8711 222.806 40.8108L223.81 42.5841C224.448 42.7963 225.102 42.9933 225.771 43.1752C226.44 43.357 227.109 43.5238 227.778 43.6753C228.082 43.6147 228.432 43.5541 228.827 43.4934C229.222 43.4025 229.633 43.3116 230.058 43.2206C230.484 43.0994 230.895 42.9781 231.29 42.8569C231.716 42.7356 232.065 42.6144 232.339 42.4931C232.947 42.2506 233.646 41.9021 234.437 41.4474C235.228 40.9624 235.896 40.538 236.444 40.1743C237.417 39.568 238.405 38.9466 239.408 38.3101C240.412 37.6735 241.37 37.0066 242.282 36.3095C242.89 35.8548 243.529 35.2789 244.198 34.5817C244.866 33.8845 245.49 33.2328 246.068 32.6265C246.676 31.99 247.208 31.4747 247.664 31.0806C248.15 30.6866 248.485 30.535 248.667 30.6259ZM236.261 9.11947C235.623 10.1804 234.939 11.211 234.209 12.2113C233.51 13.1813 232.856 14.1968 232.248 15.2577C232.035 15.6214 231.852 16.0003 231.7 16.3944C231.548 16.7581 231.351 17.1219 231.107 17.4856C230.895 17.8191 230.666 18.1525 230.423 18.4859C230.18 18.8194 229.967 19.1831 229.785 19.5772C229.42 20.2743 229.085 21.017 228.781 21.8051C228.508 22.5629 228.204 23.3056 227.869 24.0331C227.504 24.7605 227.078 25.4426 226.592 26.0791C226.105 26.7157 225.665 27.3977 225.269 28.1252L224.54 29.5802C224.479 29.7317 224.418 29.853 224.357 29.9439C224.296 30.0045 224.235 30.1106 224.175 30.2622C224.053 30.5956 223.992 30.9594 223.992 31.3534C223.992 31.7475 223.947 32.1112 223.855 32.4447C223.764 32.8084 223.627 33.157 223.445 33.4904C223.262 33.8239 223.095 34.1573 222.943 34.4907C222.791 34.8242 222.669 35.1728 222.578 35.5365C222.487 35.8699 222.381 36.2034 222.259 36.5368C222.502 36.2943 222.761 36.0821 223.034 35.9003C223.338 35.6881 223.627 35.4607 223.901 35.2182C224.175 34.9454 224.433 34.6575 224.676 34.3543C224.92 34.0512 225.193 33.7784 225.497 33.5359C225.771 33.2934 226.06 33.0812 226.364 32.8994C226.698 32.6872 227.018 32.475 227.322 32.2628C227.808 31.5959 228.234 30.9139 228.599 30.2167C228.781 29.8833 228.933 29.5044 229.055 29.08C229.207 28.6557 229.389 28.2768 229.602 27.9433C229.785 27.6099 230.013 27.2916 230.286 26.9885C230.59 26.6854 230.849 26.3671 231.062 26.0337C231.305 25.7002 231.503 25.3516 231.655 24.9879C231.837 24.6241 232.035 24.2755 232.248 23.9421C232.673 23.2752 233.145 22.6387 233.662 22.0324L233.89 19.168L235.532 17.2583L235.76 15.5305L236.9 13.9391L237.037 11.3929L236.261 9.11947Z" fill="white"/>
<path d="M255.144 17.1673C254.597 17.3795 254.293 17.6978 254.232 18.1222C254.171 18.5466 254.141 18.9861 254.141 19.4408C254.171 19.8954 254.156 20.3198 254.095 20.7139C254.034 21.1079 253.73 21.3656 253.183 21.4868C252.97 21.1231 252.696 20.7896 252.362 20.4865C252.058 20.1531 251.754 19.8348 251.45 19.5317C251.146 19.1983 250.902 18.8497 250.72 18.4859C250.537 18.1222 250.477 17.6827 250.537 17.1673L252.818 14.5302C253.183 14.6514 253.472 14.803 253.684 14.9849C253.897 15.1667 254.08 15.3789 254.232 15.6214C254.384 15.8639 254.521 16.1216 254.642 16.3944C254.794 16.6369 254.962 16.8945 255.144 17.1673ZM263.992 37.5371C264.023 38.204 263.962 38.6738 263.81 38.9466C263.688 39.2194 263.536 39.4468 263.354 39.6286C263.171 39.7802 263.004 39.9621 262.852 40.1743C262.731 40.3561 262.67 40.6896 262.67 41.1746C261.97 41.9324 261.408 42.4931 260.982 42.8569C260.556 43.1903 260.146 43.4783 259.751 43.7208C259.355 43.933 258.914 44.1755 258.428 44.4483C257.941 44.7211 257.272 45.1455 256.421 45.7214L256.102 45.7669C256.011 46.2215 255.843 46.4792 255.6 46.5398C255.387 46.6308 255.129 46.6762 254.825 46.6762C254.551 46.6762 254.277 46.7065 254.004 46.7672C253.73 46.8278 253.502 47.0854 253.32 47.5401C252.803 47.6917 252.362 47.7523 251.997 47.722C251.632 47.6917 251.161 47.6765 250.583 47.6765C250.401 47.6765 250.157 47.6614 249.853 47.6311C249.58 47.6007 249.352 47.6159 249.169 47.6765C249.047 47.7068 248.911 47.7826 248.759 47.9039C248.637 48.0554 248.5 48.1767 248.348 48.2676C248.196 48.3585 248.044 48.3889 247.892 48.3585C247.74 48.3585 247.603 48.2373 247.481 47.9948C247.117 48.0857 246.782 48.0857 246.478 47.9948C246.174 47.9039 245.885 47.7523 245.611 47.5401C245.338 47.3279 245.079 47.0703 244.836 46.7672C244.623 46.4943 244.41 46.2367 244.198 45.9942C244.046 45.8123 243.878 45.6456 243.696 45.494C243.513 45.3425 243.346 45.1909 243.194 45.0394C242.86 44.7059 242.616 44.2816 242.464 43.7663C242.312 43.2509 242.221 42.7205 242.191 42.1749C242.16 41.6292 242.175 41.0836 242.236 40.538C242.297 39.9924 242.388 39.5074 242.51 39.083C242.784 38.8102 242.981 38.5071 243.103 38.1737C243.194 37.8099 243.27 37.4462 243.331 37.0824C243.422 36.7187 243.513 36.3701 243.605 36.0367C243.726 35.6729 243.924 35.3546 244.198 35.0818C244.198 34.6878 244.258 34.324 244.38 33.9906C244.532 33.6572 244.714 33.3389 244.927 33.0358C245.171 32.7326 245.429 32.4598 245.703 32.2173C246.007 31.9445 246.28 31.6869 246.524 31.4444C246.767 31.4444 247.01 31.4444 247.253 31.4444C247.497 31.4141 247.725 31.4292 247.938 31.4898C248.15 31.5201 248.333 31.6111 248.485 31.7626C248.637 31.8839 248.759 32.0961 248.85 32.3992C249.063 33.2176 249.002 33.8845 248.667 34.3998C248.363 34.8848 248.014 35.3546 247.618 35.8093C247.223 36.264 246.904 36.7338 246.66 37.2188C246.417 37.7038 246.478 38.3252 246.843 39.083C246.508 39.083 246.28 39.174 246.159 39.3558C246.068 39.5377 245.992 39.7499 245.931 39.9924C245.9 40.2046 245.84 40.4168 245.748 40.6289C245.657 40.8411 245.475 40.9927 245.201 41.0836C245.383 41.2655 245.475 41.5838 245.475 42.0385C245.505 42.4931 245.551 42.9327 245.611 43.357C245.703 43.7511 245.84 44.0694 246.022 44.3119C246.235 44.5544 246.615 44.5695 247.162 44.3573C247.557 44.6908 248.029 44.8272 248.576 44.7666C249.154 44.7059 249.686 44.6908 250.172 44.7211C250.598 44.4483 250.963 44.3119 251.267 44.3119C251.571 44.2816 251.86 44.3119 252.134 44.4028C252.407 44.4634 252.696 44.5241 253 44.5847C253.304 44.6453 253.669 44.5998 254.095 44.4483C254.217 43.933 254.429 43.6299 254.734 43.5389C255.038 43.448 255.342 43.4025 255.646 43.4025C255.95 43.3722 256.223 43.3116 256.467 43.2206C256.74 43.1297 256.923 42.8266 257.014 42.3113C257.257 42.0082 257.546 41.8414 257.881 41.8111C258.215 41.7505 258.55 41.6899 258.884 41.6292C259.249 41.5686 259.568 41.4474 259.842 41.2655C260.146 41.0533 260.359 40.6593 260.48 40.0833C260.997 39.6893 261.362 39.4013 261.575 39.2194C261.818 39.0072 262.016 38.8405 262.168 38.7193C262.32 38.598 262.518 38.4616 262.761 38.3101C263.004 38.1585 263.415 37.9009 263.992 37.5371Z" fill="white"/>
</svg>
